<svg width="263" height="236" viewBox="0 0 263 236" fill="none" xmlns="http://www.w3.org/2000/svg">
<path d="M11.6707 191.526C11.5855 190.806 11.2399 190.247 10.6338 189.85C10.0278 189.452 9.28438 189.253 8.4037 189.253C7.75976 189.253 7.19631 189.357 6.71336 189.565C6.23514 189.774 5.86108 190.06 5.5912 190.425C5.32605 190.789 5.19347 191.204 5.19347 191.668C5.19347 192.056 5.2858 192.39 5.47046 192.669C5.65985 192.944 5.90133 193.173 6.19489 193.358C6.48845 193.538 6.79622 193.687 7.11819 193.806C7.44016 193.919 7.73608 194.012 8.00597 194.083L9.48324 194.48C9.86203 194.58 10.2834 194.717 10.7474 194.892C11.2162 195.067 11.6636 195.306 12.0898 195.61C12.5206 195.908 12.8758 196.291 13.1551 196.76C13.4345 197.229 13.5742 197.804 13.5742 198.486C13.5742 199.272 13.3682 199.982 12.9563 200.617C12.5491 201.251 11.9525 201.755 11.1665 202.129C10.3852 202.503 9.43589 202.69 8.31847 202.69C7.2768 202.69 6.37482 202.522 5.6125 202.186C4.85493 201.85 4.25834 201.381 3.82273 200.78C3.39186 200.179 3.14802 199.48 3.0912 198.685H4.90938C4.95673 199.234 5.14139 199.689 5.46336 200.048C5.79006 200.404 6.20199 200.669 6.69915 200.844C7.20105 201.014 7.74082 201.1 8.31847 201.1C8.99082 201.1 9.59451 200.991 10.1296 200.773C10.6646 200.55 11.0884 200.243 11.4009 199.85C11.7134 199.452 11.8696 198.988 11.8696 198.458C11.8696 197.975 11.7347 197.582 11.4648 197.279C11.1949 196.976 10.8398 196.729 10.3994 196.54C9.9591 196.351 9.48324 196.185 8.97188 196.043L7.18211 195.531C6.04574 195.205 5.14612 194.738 4.48324 194.132C3.82036 193.526 3.48892 192.733 3.48892 191.753C3.48892 190.939 3.7091 190.228 4.14944 189.622C4.59451 189.012 5.1911 188.538 5.93921 188.202C6.69205 187.861 7.53249 187.69 8.46052 187.69C9.39802 187.69 10.2313 187.859 10.9605 188.195C11.6897 188.526 12.2673 188.981 12.6935 189.558C13.1243 190.136 13.3516 190.792 13.3753 191.526H11.6707ZM20.8167 202.662C19.7656 202.662 18.8588 202.43 18.0965 201.966C17.3389 201.497 16.7542 200.844 16.3423 200.006C15.9351 199.163 15.7315 198.183 15.7315 197.065C15.7315 195.948 15.9351 194.963 16.3423 194.111C16.7542 193.254 17.3271 192.586 18.061 192.108C18.7996 191.625 19.6614 191.384 20.6462 191.384C21.2144 191.384 21.7755 191.478 22.3295 191.668C22.8835 191.857 23.3877 192.165 23.8423 192.591C24.2968 193.012 24.659 193.571 24.9289 194.267C25.1988 194.963 25.3337 195.82 25.3337 196.838V197.548H16.9246V196.1H23.6292C23.6292 195.484 23.5061 194.935 23.2599 194.452C23.0184 193.969 22.6728 193.588 22.2229 193.308C21.7779 193.029 21.2523 192.889 20.6462 192.889C19.9786 192.889 19.401 193.055 18.9133 193.387C18.4303 193.713 18.0586 194.139 17.7982 194.665C17.5378 195.19 17.4076 195.754 17.4076 196.355V197.321C17.4076 198.145 17.5496 198.843 17.8337 199.416C18.1226 199.985 18.5227 200.418 19.034 200.716C19.5454 201.01 20.1396 201.156 20.8167 201.156C21.257 201.156 21.6548 201.095 22.0099 200.972C22.3697 200.844 22.6799 200.655 22.9403 200.404C23.2007 200.148 23.4019 199.831 23.544 199.452L25.1633 199.906C24.9928 200.456 24.7064 200.939 24.3039 201.355C23.9014 201.767 23.4043 202.089 22.8124 202.321C22.2206 202.548 21.5553 202.662 20.8167 202.662ZM27.8835 202.435V191.526H29.5028V193.23H29.6448C29.8721 192.648 30.239 192.196 30.7457 191.874C31.2523 191.547 31.8607 191.384 32.571 191.384C33.2907 191.384 33.8896 191.547 34.3678 191.874C34.8508 192.196 35.2272 192.648 35.4971 193.23H35.6107C35.8901 192.667 36.3091 192.219 36.8678 191.888C37.4265 191.552 38.0965 191.384 38.8778 191.384C39.8532 191.384 40.651 191.689 41.2712 192.3C41.8915 192.906 42.2016 193.851 42.2016 195.134V202.435H40.5255V195.134C40.5255 194.329 40.3053 193.753 39.865 193.408C39.4246 193.062 38.9062 192.889 38.3096 192.889C37.5425 192.889 36.9483 193.121 36.5269 193.585C36.1055 194.045 35.8948 194.627 35.8948 195.333V202.435H34.1903V194.963C34.1903 194.343 33.989 193.843 33.5866 193.465C33.1841 193.081 32.6657 192.889 32.0312 192.889C31.5956 192.889 31.1884 193.005 30.8096 193.237C30.4355 193.469 30.1325 193.791 29.9005 194.203C29.6732 194.61 29.5596 195.082 29.5596 195.617V202.435H27.8835ZM48.4765 202.69C47.7852 202.69 47.1578 202.56 46.5944 202.3C46.0309 202.035 45.5835 201.654 45.2521 201.156C44.9206 200.655 44.7549 200.048 44.7549 199.338C44.7549 198.713 44.878 198.207 45.1242 197.818C45.3704 197.425 45.6995 197.118 46.1114 196.895C46.5234 196.673 46.9779 196.507 47.4751 196.398C47.977 196.284 48.4812 196.194 48.9879 196.128C49.6507 196.043 50.1881 195.979 50.6001 195.936C51.0167 195.889 51.3198 195.811 51.5092 195.702C51.7033 195.593 51.8004 195.404 51.8004 195.134V195.077C51.8004 194.376 51.6086 193.832 51.2251 193.443C50.8463 193.055 50.271 192.861 49.4992 192.861C48.699 192.861 48.0717 193.036 47.6171 193.387C47.1626 193.737 46.843 194.111 46.6583 194.509L45.0674 193.94C45.3515 193.278 45.7303 192.762 46.2038 192.392C46.682 192.018 47.2028 191.758 47.7663 191.611C48.3345 191.459 48.8932 191.384 49.4424 191.384C49.7928 191.384 50.1952 191.426 50.6498 191.512C51.1091 191.592 51.5518 191.76 51.9779 192.016C52.4088 192.271 52.7663 192.657 53.0504 193.173C53.3345 193.69 53.4765 194.381 53.4765 195.247V202.435H51.8004V200.958H51.7151C51.6015 201.194 51.4121 201.448 51.147 201.717C50.8818 201.987 50.5291 202.217 50.0887 202.406C49.6484 202.596 49.111 202.69 48.4765 202.69ZM48.7322 201.185C49.3951 201.185 49.9538 201.055 50.4083 200.794C50.8676 200.534 51.2132 200.198 51.4452 199.786C51.682 199.374 51.8004 198.94 51.8004 198.486V196.952C51.7293 197.037 51.5731 197.115 51.3316 197.186C51.0949 197.253 50.8202 197.312 50.5077 197.364C50.2 197.411 49.8993 197.454 49.6058 197.492C49.3169 197.525 49.0826 197.553 48.9026 197.577C48.467 197.634 48.0598 197.726 47.681 197.854C47.307 197.977 47.004 198.164 46.772 198.415C46.5447 198.661 46.431 198.997 46.431 199.423C46.431 200.006 46.6465 200.446 47.0773 200.744C47.513 201.038 48.0646 201.185 48.7322 201.185ZM56.5358 202.435V191.526H58.2119V202.435H56.5358ZM57.3881 189.708C57.0614 189.708 56.7796 189.596 56.5429 189.374C56.3109 189.151 56.1949 188.884 56.1949 188.571C56.1949 188.259 56.3109 187.991 56.5429 187.769C56.7796 187.546 57.0614 187.435 57.3881 187.435C57.7148 187.435 57.9941 187.546 58.2261 187.769C58.4629 187.991 58.5813 188.259 58.5813 188.571C58.5813 188.884 58.4629 189.151 58.2261 189.374C57.9941 189.596 57.7148 189.708 57.3881 189.708ZM62.958 195.872V202.435H61.2819V191.526H62.9012V193.23H63.0433C63.2989 192.676 63.6872 192.231 64.208 191.895C64.7289 191.554 65.4012 191.384 66.2251 191.384C66.9637 191.384 67.61 191.535 68.164 191.838C68.718 192.137 69.1488 192.591 69.4566 193.202C69.7644 193.808 69.9183 194.575 69.9183 195.503V202.435H68.2421V195.617C68.2421 194.76 68.0196 194.092 67.5745 193.614C67.1294 193.131 66.5186 192.889 65.7421 192.889C65.2071 192.889 64.7289 193.005 64.3075 193.237C63.8908 193.469 63.5617 193.808 63.3202 194.253C63.0788 194.698 62.958 195.238 62.958 195.872ZM77.555 202.662C76.5038 202.662 75.5971 202.43 74.8348 201.966C74.0772 201.497 73.4925 200.844 73.0805 200.006C72.6733 199.163 72.4697 198.183 72.4697 197.065C72.4697 195.948 72.6733 194.963 73.0805 194.111C73.4925 193.254 74.0654 192.586 74.7993 192.108C75.5379 191.625 76.3997 191.384 77.3845 191.384C77.9527 191.384 78.5138 191.478 79.0678 191.668C79.6217 191.857 80.126 192.165 80.5805 192.591C81.0351 193.012 81.3973 193.571 81.6672 194.267C81.9371 194.963 82.072 195.82 82.072 196.838V197.548H73.6629V196.1H80.3675C80.3675 195.484 80.2444 194.935 79.9982 194.452C79.7567 193.969 79.411 193.588 78.9612 193.308C78.5162 193.029 77.9906 192.889 77.3845 192.889C76.7169 192.889 76.1393 193.055 75.6516 193.387C75.1686 193.713 74.7969 194.139 74.5365 194.665C74.2761 195.19 74.1459 195.754 74.1459 196.355V197.321C74.1459 198.145 74.2879 198.843 74.572 199.416C74.8608 199.985 75.2609 200.418 75.7723 200.716C76.2837 201.01 76.8779 201.156 77.555 201.156C77.9953 201.156 78.393 201.095 78.7482 200.972C79.108 200.844 79.4181 200.655 79.6786 200.404C79.939 200.148 80.1402 199.831 80.2822 199.452L81.9016 199.906C81.7311 200.456 81.4447 200.939 81.0422 201.355C80.6397 201.767 80.1426 202.089 79.5507 202.321C78.9589 202.548 78.2936 202.662 77.555 202.662ZM93.457 202.69C92.7657 202.69 92.1383 202.56 91.5749 202.3C91.0114 202.035 90.564 201.654 90.2325 201.156C89.9011 200.655 89.7354 200.048 89.7354 199.338C89.7354 198.713 89.8585 198.207 90.1047 197.818C90.3509 197.425 90.68 197.118 91.0919 196.895C91.5038 196.673 91.9584 196.507 92.4555 196.398C92.9574 196.284 93.4617 196.194 93.9683 196.128C94.6312 196.043 95.1686 195.979 95.5805 195.936C95.9972 195.889 96.3002 195.811 96.4896 195.702C96.6838 195.593 96.7808 195.404 96.7808 195.134V195.077C96.7808 194.376 96.5891 193.832 96.2055 193.443C95.8268 193.055 95.2515 192.861 94.4797 192.861C93.6795 192.861 93.0521 193.036 92.5976 193.387C92.143 193.737 91.8234 194.111 91.6388 194.509L90.0479 193.94C90.332 193.278 90.7108 192.762 91.1842 192.392C91.6625 192.018 92.1833 191.758 92.7467 191.611C93.3149 191.459 93.8736 191.384 94.4229 191.384C94.7733 191.384 95.1757 191.426 95.6303 191.512C96.0895 191.592 96.5322 191.76 96.9584 192.016C97.3893 192.271 97.7467 192.657 98.0308 193.173C98.3149 193.69 98.457 194.381 98.457 195.247V202.435H96.7808V200.958H96.6956C96.582 201.194 96.3926 201.448 96.1274 201.717C95.8623 201.987 95.5095 202.217 95.0692 202.406C94.6288 202.596 94.0914 202.69 93.457 202.69ZM93.7126 201.185C94.3755 201.185 94.9342 201.055 95.3888 200.794C95.8481 200.534 96.1937 200.198 96.4257 199.786C96.6625 199.374 96.7808 198.94 96.7808 198.486V196.952C96.7098 197.037 96.5536 197.115 96.3121 197.186C96.0753 197.253 95.8007 197.312 95.4882 197.364C95.1804 197.411 94.8798 197.454 94.5862 197.492C94.2974 197.525 94.063 197.553 93.8831 197.577C93.4475 197.634 93.0403 197.726 92.6615 197.854C92.2875 197.977 91.9844 198.164 91.7524 198.415C91.5251 198.661 91.4115 198.997 91.4115 199.423C91.4115 200.006 91.6269 200.446 92.0578 200.744C92.4934 201.038 93.045 201.185 93.7126 201.185ZM101.516 206.526V191.526H103.136V193.259H103.334C103.458 193.069 103.628 192.828 103.846 192.534C104.068 192.236 104.386 191.971 104.798 191.739C105.214 191.502 105.778 191.384 106.488 191.384C107.406 191.384 108.216 191.613 108.917 192.073C109.618 192.532 110.164 193.183 110.557 194.026C110.95 194.869 111.147 195.863 111.147 197.009C111.147 198.164 110.95 199.165 110.557 200.013C110.164 200.856 109.62 201.509 108.924 201.973C108.228 202.432 107.425 202.662 106.516 202.662C105.816 202.662 105.254 202.546 104.833 202.314C104.412 202.077 104.087 201.81 103.86 201.512C103.633 201.208 103.458 200.958 103.334 200.759H103.192V206.526H101.516ZM103.164 196.98C103.164 197.804 103.285 198.531 103.526 199.161C103.768 199.786 104.12 200.276 104.584 200.631C105.048 200.981 105.617 201.156 106.289 201.156C106.99 201.156 107.575 200.972 108.043 200.602C108.517 200.228 108.872 199.726 109.109 199.097C109.35 198.462 109.471 197.757 109.471 196.98C109.471 196.213 109.352 195.522 109.116 194.906C108.884 194.286 108.531 193.796 108.057 193.436C107.589 193.072 106.999 192.889 106.289 192.889C105.607 192.889 105.034 193.062 104.57 193.408C104.106 193.749 103.756 194.227 103.519 194.842C103.282 195.453 103.164 196.166 103.164 196.98ZM113.704 202.435V191.526H115.323V193.173H115.437C115.636 192.634 115.995 192.196 116.516 191.86C117.037 191.523 117.624 191.355 118.278 191.355C118.401 191.355 118.555 191.358 118.739 191.362C118.924 191.367 119.064 191.374 119.158 191.384V193.088C119.101 193.074 118.971 193.053 118.768 193.024C118.569 192.991 118.358 192.975 118.136 192.975C117.605 192.975 117.132 193.086 116.715 193.308C116.303 193.526 115.976 193.829 115.735 194.217C115.498 194.601 115.38 195.039 115.38 195.531V202.435H113.704ZM125.387 202.662C124.336 202.662 123.429 202.43 122.667 201.966C121.909 201.497 121.325 200.844 120.913 200.006C120.505 199.163 120.302 198.183 120.302 197.065C120.302 195.948 120.505 194.963 120.913 194.111C121.325 193.254 121.897 192.586 122.631 192.108C123.37 191.625 124.232 191.384 125.217 191.384C125.785 191.384 126.346 191.478 126.9 191.668C127.454 191.857 127.958 192.165 128.413 192.591C128.867 193.012 129.229 193.571 129.499 194.267C129.769 194.963 129.904 195.82 129.904 196.838V197.548H121.495V196.1H128.2C128.2 195.484 128.076 194.935 127.83 194.452C127.589 193.969 127.243 193.588 126.793 193.308C126.348 193.029 125.823 192.889 125.217 192.889C124.549 192.889 123.971 193.055 123.484 193.387C123.001 193.713 122.629 194.139 122.369 194.665C122.108 195.19 121.978 195.754 121.978 196.355V197.321C121.978 198.145 122.12 198.843 122.404 199.416C122.693 199.985 123.093 200.418 123.604 200.716C124.116 201.01 124.71 201.156 125.387 201.156C125.827 201.156 126.225 201.095 126.58 200.972C126.94 200.844 127.25 200.655 127.511 200.404C127.771 200.148 127.972 199.831 128.114 199.452L129.734 199.906C129.563 200.456 129.277 200.939 128.874 201.355C128.472 201.767 127.975 202.089 127.383 202.321C126.791 202.548 126.126 202.662 125.387 202.662ZM124.421 190.048L122.205 186.753H124.165L125.898 190.048H124.421ZM140.181 193.969L138.675 194.395C138.581 194.144 138.441 193.9 138.256 193.664C138.076 193.422 137.83 193.223 137.518 193.067C137.205 192.911 136.805 192.833 136.317 192.833C135.65 192.833 135.093 192.986 134.648 193.294C134.208 193.597 133.988 193.983 133.988 194.452C133.988 194.869 134.139 195.198 134.442 195.439C134.745 195.681 135.219 195.882 135.863 196.043L137.482 196.44C138.458 196.677 139.184 197.039 139.663 197.527C140.141 198.01 140.38 198.633 140.38 199.395C140.38 200.02 140.2 200.579 139.84 201.071C139.485 201.564 138.988 201.952 138.349 202.236C137.709 202.52 136.966 202.662 136.119 202.662C135.006 202.662 134.085 202.421 133.356 201.938C132.627 201.455 132.165 200.749 131.971 199.821L133.562 199.423C133.713 200.011 134 200.451 134.421 200.744C134.847 201.038 135.404 201.185 136.09 201.185C136.871 201.185 137.492 201.019 137.951 200.688C138.415 200.351 138.647 199.949 138.647 199.48C138.647 199.101 138.514 198.784 138.249 198.529C137.984 198.268 137.577 198.074 137.028 197.946L135.209 197.52C134.21 197.283 133.476 196.916 133.008 196.419C132.544 195.917 132.312 195.29 132.312 194.537C132.312 193.922 132.485 193.377 132.83 192.904C133.181 192.43 133.656 192.058 134.258 191.789C134.864 191.519 135.55 191.384 136.317 191.384C137.397 191.384 138.244 191.62 138.86 192.094C139.48 192.567 139.921 193.192 140.181 193.969ZM156.255 193.969L154.75 194.395C154.655 194.144 154.515 193.9 154.331 193.664C154.151 193.422 153.904 193.223 153.592 193.067C153.279 192.911 152.879 192.833 152.392 192.833C151.724 192.833 151.168 192.986 150.723 193.294C150.282 193.597 150.062 193.983 150.062 194.452C150.062 194.869 150.214 195.198 150.517 195.439C150.82 195.681 151.293 195.882 151.937 196.043L153.556 196.44C154.532 196.677 155.259 197.039 155.737 197.527C156.215 198.01 156.454 198.633 156.454 199.395C156.454 200.02 156.274 200.579 155.914 201.071C155.559 201.564 155.062 201.952 154.423 202.236C153.784 202.52 153.04 202.662 152.193 202.662C151.08 202.662 150.159 202.421 149.43 201.938C148.701 201.455 148.239 200.749 148.045 199.821L149.636 199.423C149.787 200.011 150.074 200.451 150.495 200.744C150.921 201.038 151.478 201.185 152.164 201.185C152.946 201.185 153.566 201.019 154.025 200.688C154.489 200.351 154.721 199.949 154.721 199.48C154.721 199.101 154.589 198.784 154.323 198.529C154.058 198.268 153.651 198.074 153.102 197.946L151.284 197.52C150.285 197.283 149.551 196.916 149.082 196.419C148.618 195.917 148.386 195.29 148.386 194.537C148.386 193.922 148.559 193.377 148.904 192.904C149.255 192.43 149.731 192.058 150.332 191.789C150.938 191.519 151.625 191.384 152.392 191.384C153.471 191.384 154.319 191.62 154.934 192.094C155.555 192.567 155.995 193.192 156.255 193.969ZM163.551 202.662C162.5 202.662 161.593 202.43 160.831 201.966C160.073 201.497 159.489 200.844 159.077 200.006C158.669 199.163 158.466 198.183 158.466 197.065C158.466 195.948 158.669 194.963 159.077 194.111C159.489 193.254 160.061 192.586 160.795 192.108C161.534 191.625 162.396 191.384 163.381 191.384C163.949 191.384 164.51 191.478 165.064 191.668C165.618 191.857 166.122 192.165 166.577 192.591C167.031 193.012 167.393 193.571 167.663 194.267C167.933 194.963 168.068 195.82 168.068 196.838V197.548H159.659V196.1H166.364C166.364 195.484 166.24 194.935 165.994 194.452C165.753 193.969 165.407 193.588 164.957 193.308C164.512 193.029 163.987 192.889 163.381 192.889C162.713 192.889 162.135 193.055 161.648 193.387C161.165 193.713 160.793 194.139 160.533 194.665C160.272 195.19 160.142 195.754 160.142 196.355V197.321C160.142 198.145 160.284 198.843 160.568 199.416C160.857 199.985 161.257 200.418 161.768 200.716C162.28 201.01 162.874 201.156 163.551 201.156C163.991 201.156 164.389 201.095 164.744 200.972C165.104 200.844 165.414 200.655 165.675 200.404C165.935 200.148 166.136 199.831 166.278 199.452L167.898 199.906C167.727 200.456 167.441 200.939 167.038 201.355C166.636 201.767 166.139 202.089 165.547 202.321C164.955 202.548 164.29 202.662 163.551 202.662ZM170.618 202.435V191.526H172.237V193.23H172.379C172.606 192.648 172.973 192.196 173.48 191.874C173.987 191.547 174.595 191.384 175.305 191.384C176.025 191.384 176.624 191.547 177.102 191.874C177.585 192.196 177.962 192.648 178.231 193.23H178.345C178.624 192.667 179.043 192.219 179.602 191.888C180.161 191.552 180.831 191.384 181.612 191.384C182.588 191.384 183.385 191.689 184.006 192.3C184.626 192.906 184.936 193.851 184.936 195.134V202.435H183.26V195.134C183.26 194.329 183.04 193.753 182.599 193.408C182.159 193.062 181.641 192.889 181.044 192.889C180.277 192.889 179.683 193.121 179.261 193.585C178.84 194.045 178.629 194.627 178.629 195.333V202.435H176.925V194.963C176.925 194.343 176.723 193.843 176.321 193.465C175.918 193.081 175.4 192.889 174.766 192.889C174.33 192.889 173.923 193.005 173.544 193.237C173.17 193.469 172.867 193.791 172.635 194.203C172.408 194.61 172.294 195.082 172.294 195.617V202.435H170.618ZM191.211 202.69C190.52 202.69 189.892 202.56 189.329 202.3C188.765 202.035 188.318 201.654 187.986 201.156C187.655 200.655 187.489 200.048 187.489 199.338C187.489 198.713 187.612 198.207 187.859 197.818C188.105 197.425 188.434 197.118 188.846 196.895C189.258 196.673 189.712 196.507 190.209 196.398C190.711 196.284 191.216 196.194 191.722 196.128C192.385 196.043 192.923 195.979 193.334 195.936C193.751 195.889 194.054 195.811 194.244 195.702C194.438 195.593 194.535 195.404 194.535 195.134V195.077C194.535 194.376 194.343 193.832 193.959 193.443C193.581 193.055 193.005 192.861 192.234 192.861C191.433 192.861 190.806 193.036 190.351 193.387C189.897 193.737 189.577 194.111 189.393 194.509L187.802 193.94C188.086 193.278 188.465 192.762 188.938 192.392C189.416 192.018 189.937 191.758 190.501 191.611C191.069 191.459 191.628 191.384 192.177 191.384C192.527 191.384 192.93 191.426 193.384 191.512C193.843 191.592 194.286 191.76 194.712 192.016C195.143 192.271 195.501 192.657 195.785 193.173C196.069 193.69 196.211 194.381 196.211 195.247V202.435H194.535V200.958H194.45C194.336 201.194 194.146 201.448 193.881 201.717C193.616 201.987 193.263 202.217 192.823 202.406C192.383 202.596 191.845 202.69 191.211 202.69ZM191.467 201.185C192.129 201.185 192.688 201.055 193.143 200.794C193.602 200.534 193.948 200.198 194.18 199.786C194.416 199.374 194.535 198.94 194.535 198.486V196.952C194.464 197.037 194.307 197.115 194.066 197.186C193.829 197.253 193.555 197.312 193.242 197.364C192.934 197.411 192.634 197.454 192.34 197.492C192.051 197.525 191.817 197.553 191.637 197.577C191.201 197.634 190.794 197.726 190.415 197.854C190.041 197.977 189.738 198.164 189.506 198.415C189.279 198.661 189.165 198.997 189.165 199.423C189.165 200.006 189.381 200.446 189.812 200.744C190.247 201.038 190.799 201.185 191.467 201.185ZM199.27 202.435V191.526H200.946V202.435H199.27ZM200.122 189.708C199.796 189.708 199.514 189.596 199.277 189.374C199.045 189.151 198.929 188.884 198.929 188.571C198.929 188.259 199.045 187.991 199.277 187.769C199.514 187.546 199.796 187.435 200.122 187.435C200.449 187.435 200.729 187.546 200.961 187.769C201.197 187.991 201.316 188.259 201.316 188.571C201.316 188.884 201.197 189.151 200.961 189.374C200.729 189.596 200.449 189.708 200.122 189.708ZM205.692 195.872V202.435H204.016V191.526H205.636V193.23H205.778C206.033 192.676 206.422 192.231 206.942 191.895C207.463 191.554 208.136 191.384 208.959 191.384C209.698 191.384 210.344 191.535 210.898 191.838C211.452 192.137 211.883 192.591 212.191 193.202C212.499 193.808 212.653 194.575 212.653 195.503V202.435H210.976V195.617C210.976 194.76 210.754 194.092 210.309 193.614C209.864 193.131 209.253 192.889 208.476 192.889C207.941 192.889 207.463 193.005 207.042 193.237C206.625 193.469 206.296 193.808 206.055 194.253C205.813 194.698 205.692 195.238 205.692 195.872ZM220.289 202.662C219.238 202.662 218.331 202.43 217.569 201.966C216.812 201.497 216.227 200.844 215.815 200.006C215.408 199.163 215.204 198.183 215.204 197.065C215.204 195.948 215.408 194.963 215.815 194.111C216.227 193.254 216.8 192.586 217.534 192.108C218.272 191.625 219.134 191.384 220.119 191.384C220.687 191.384 221.248 191.478 221.802 191.668C222.356 191.857 222.86 192.165 223.315 192.591C223.769 193.012 224.132 193.571 224.402 194.267C224.671 194.963 224.806 195.82 224.806 196.838V197.548H216.397V196.1H223.102C223.102 195.484 222.979 194.935 222.733 194.452C222.491 193.969 222.145 193.588 221.696 193.308C221.251 193.029 220.725 192.889 220.119 192.889C219.451 192.889 218.874 193.055 218.386 193.387C217.903 193.713 217.531 194.139 217.271 194.665C217.01 195.19 216.88 195.754 216.88 196.355V197.321C216.88 198.145 217.022 198.843 217.306 199.416C217.595 199.985 217.995 200.418 218.507 200.716C219.018 201.01 219.612 201.156 220.289 201.156C220.73 201.156 221.127 201.095 221.483 200.972C221.842 200.844 222.153 200.655 222.413 200.404C222.673 200.148 222.875 199.831 223.017 199.452L224.636 199.906C224.465 200.456 224.179 200.939 223.777 201.355C223.374 201.767 222.877 202.089 222.285 202.321C221.693 202.548 221.028 202.662 220.289 202.662ZM229.856 200.446L229.742 201.213C229.662 201.753 229.539 202.331 229.373 202.946C229.212 203.562 229.044 204.142 228.869 204.686C228.694 205.231 228.549 205.664 228.436 205.986H227.157C227.219 205.683 227.299 205.283 227.399 204.786C227.498 204.289 227.598 203.732 227.697 203.117C227.801 202.506 227.886 201.881 227.953 201.242L228.038 200.446H229.856Z" fill="white"/>
<path d="M38.7308 212.158L43.0489 224.402H43.2194L47.5376 212.158H49.3842L44.0433 226.704H42.2251L36.8842 212.158H38.7308ZM51.4225 226.704V215.795H53.0987V226.704H51.4225ZM52.2748 213.976C51.9481 213.976 51.6664 213.865 51.4296 213.643C51.1976 213.42 51.0816 213.152 51.0816 212.84C51.0816 212.527 51.1976 212.26 51.4296 212.037C51.6664 211.815 51.9481 211.704 52.2748 211.704C52.6015 211.704 52.8809 211.815 53.1129 212.037C53.3496 212.26 53.468 212.527 53.468 212.84C53.468 213.152 53.3496 213.42 53.1129 213.643C52.8809 213.865 52.6015 213.976 52.2748 213.976ZM65.0891 215.795L61.055 226.704H59.3504L55.3163 215.795H57.1345L60.1459 224.488H60.2595L63.2709 215.795H65.0891ZM71.4847 226.931C70.4335 226.931 69.5268 226.699 68.7645 226.235C68.0069 225.766 67.4222 225.113 67.0102 224.275C66.603 223.432 66.3994 222.452 66.3994 221.334C66.3994 220.217 66.603 219.232 67.0102 218.38C67.4222 217.523 67.9951 216.855 68.729 216.377C69.4676 215.894 70.3294 215.652 71.3142 215.652C71.8824 215.652 72.4435 215.747 72.9974 215.937C73.5514 216.126 74.0557 216.434 74.5102 216.86C74.9648 217.281 75.327 217.84 75.5969 218.536C75.8668 219.232 76.0017 220.089 76.0017 221.107V221.817H67.5926V220.368H74.2972C74.2972 219.753 74.1741 219.204 73.9278 218.721C73.6864 218.238 73.3407 217.857 72.8909 217.577C72.4458 217.298 71.9203 217.158 71.3142 217.158C70.6466 217.158 70.0689 217.324 69.5813 217.655C69.0983 217.982 68.7266 218.408 68.4662 218.934C68.2058 219.459 68.0756 220.023 68.0756 220.624V221.59C68.0756 222.414 68.2176 223.112 68.5017 223.685C68.7905 224.253 69.1906 224.687 69.702 224.985C70.2134 225.278 70.8076 225.425 71.4847 225.425C71.925 225.425 72.3227 225.364 72.6778 225.241C73.0377 225.113 73.3478 224.923 73.6082 224.672C73.8687 224.417 74.0699 224.099 74.2119 223.721L75.8313 224.175C75.6608 224.724 75.3743 225.207 74.9719 225.624C74.5694 226.036 74.0723 226.358 73.4804 226.59C72.8885 226.817 72.2233 226.931 71.4847 226.931ZM78.2389 226.704V225.425L84.4321 217.471V217.357H78.4378V215.795H86.5912V217.13L80.5685 225.027V225.141H86.7901V226.704H78.2389ZM96.6729 212.158V226.704H94.9967V212.158H96.6729ZM101.22 212.158V213.437C101.22 213.825 101.149 214.239 101.007 214.679C100.87 215.115 100.666 215.539 100.396 215.951C100.131 216.358 99.8091 216.713 99.4303 217.016L98.5212 216.277C98.8195 215.851 99.0776 215.409 99.2954 214.949C99.5179 214.485 99.6292 213.991 99.6292 213.465V212.158H101.22ZM105.512 226.959C104.82 226.959 104.193 226.829 103.63 226.569C103.066 226.304 102.619 225.922 102.287 225.425C101.956 224.923 101.79 224.317 101.79 223.607C101.79 222.982 101.913 222.475 102.159 222.087C102.406 221.694 102.735 221.386 103.147 221.164C103.559 220.941 104.013 220.776 104.51 220.667C105.012 220.553 105.516 220.463 106.023 220.397C106.686 220.312 107.223 220.248 107.635 220.205C108.052 220.158 108.355 220.08 108.544 219.971C108.738 219.862 108.836 219.672 108.836 219.402V219.346C108.836 218.645 108.644 218.1 108.26 217.712C107.881 217.324 107.306 217.13 106.534 217.13C105.734 217.13 105.107 217.305 104.652 217.655C104.198 218.006 103.878 218.38 103.693 218.777L102.103 218.209C102.387 217.546 102.765 217.03 103.239 216.661C103.717 216.287 104.238 216.027 104.801 215.88C105.37 215.728 105.928 215.652 106.478 215.652C106.828 215.652 107.23 215.695 107.685 215.78C108.144 215.861 108.587 216.029 109.013 216.285C109.444 216.54 109.801 216.926 110.086 217.442C110.37 217.958 110.512 218.65 110.512 219.516V226.704H108.836V225.226H108.75C108.637 225.463 108.447 225.716 108.182 225.986C107.917 226.256 107.564 226.486 107.124 226.675C106.684 226.865 106.146 226.959 105.512 226.959ZM105.767 225.454C106.43 225.454 106.989 225.323 107.443 225.063C107.903 224.803 108.248 224.466 108.48 224.054C108.717 223.643 108.836 223.209 108.836 222.755V221.221C108.764 221.306 108.608 221.384 108.367 221.455C108.13 221.521 107.855 221.581 107.543 221.633C107.235 221.68 106.934 221.723 106.641 221.76C106.352 221.794 106.118 221.822 105.938 221.846C105.502 221.902 105.095 221.995 104.716 222.123C104.342 222.246 104.039 222.433 103.807 222.684C103.58 222.93 103.466 223.266 103.466 223.692C103.466 224.275 103.682 224.715 104.113 225.013C104.548 225.307 105.1 225.454 105.767 225.454ZM122.101 215.795L118.067 226.704H116.362L112.328 215.795H114.146L117.158 224.488H117.271L120.283 215.795H122.101ZM128.496 226.931C127.445 226.931 126.539 226.699 125.776 226.235C125.019 225.766 124.434 225.113 124.022 224.275C123.615 223.432 123.411 222.452 123.411 221.334C123.411 220.217 123.615 219.232 124.022 218.38C124.434 217.523 125.007 216.855 125.741 216.377C126.479 215.894 127.341 215.652 128.326 215.652C128.894 215.652 129.455 215.747 130.009 215.937C130.563 216.126 131.067 216.434 131.522 216.86C131.976 217.281 132.339 217.84 132.609 218.536C132.878 219.232 133.013 220.089 133.013 221.107V221.817H124.604V220.368H131.309C131.309 219.753 131.186 219.204 130.94 218.721C130.698 218.238 130.352 217.857 129.903 217.577C129.458 217.298 128.932 217.158 128.326 217.158C127.658 217.158 127.081 217.324 126.593 217.655C126.11 217.982 125.738 218.408 125.478 218.934C125.217 219.459 125.087 220.023 125.087 220.624V221.59C125.087 222.414 125.229 223.112 125.513 223.685C125.802 224.253 126.202 224.687 126.714 224.985C127.225 225.278 127.819 225.425 128.496 225.425C128.937 225.425 129.334 225.364 129.69 225.241C130.049 225.113 130.36 224.923 130.62 224.672C130.88 224.417 131.082 224.099 131.224 223.721L132.843 224.175C132.673 224.724 132.386 225.207 131.984 225.624C131.581 226.036 131.084 226.358 130.492 226.59C129.9 226.817 129.235 226.931 128.496 226.931ZM137.239 220.141V226.704H135.563V215.795H137.182V217.499H137.325C137.58 216.945 137.968 216.5 138.489 216.164C139.01 215.823 139.682 215.652 140.506 215.652C141.245 215.652 141.891 215.804 142.445 216.107C142.999 216.405 143.43 216.86 143.738 217.471C144.046 218.077 144.2 218.844 144.2 219.772V226.704H142.523V219.885C142.523 219.028 142.301 218.361 141.856 217.883C141.411 217.4 140.8 217.158 140.023 217.158C139.488 217.158 139.01 217.274 138.589 217.506C138.172 217.738 137.843 218.077 137.601 218.522C137.36 218.967 137.239 219.507 137.239 220.141ZM152.007 215.795V217.215H146.353V215.795H152.007ZM148.001 213.181H149.677V223.579C149.677 224.052 149.746 224.407 149.883 224.644C150.025 224.876 150.205 225.032 150.423 225.113C150.645 225.188 150.88 225.226 151.126 225.226C151.311 225.226 151.462 225.217 151.581 225.198C151.699 225.174 151.794 225.155 151.865 225.141L152.206 226.647C152.092 226.689 151.933 226.732 151.73 226.775C151.526 226.822 151.268 226.846 150.956 226.846C150.482 226.846 150.018 226.744 149.563 226.54C149.114 226.337 148.74 226.027 148.441 225.61C148.148 225.193 148.001 224.668 148.001 224.033V213.181ZM161.403 222.243V215.795H163.079V226.704H161.403V224.857H161.289C161.034 225.411 160.636 225.882 160.096 226.27C159.556 226.654 158.875 226.846 158.051 226.846C157.369 226.846 156.763 226.697 156.233 226.398C155.702 226.095 155.286 225.641 154.983 225.035C154.68 224.424 154.528 223.654 154.528 222.726V215.795H156.204V222.613C156.204 223.408 156.427 224.043 156.872 224.516C157.322 224.99 157.894 225.226 158.59 225.226C159.007 225.226 159.431 225.12 159.862 224.907C160.297 224.694 160.662 224.367 160.956 223.927C161.254 223.486 161.403 222.925 161.403 222.243ZM166.149 226.704V215.795H167.768V217.442H167.882C168.081 216.902 168.441 216.465 168.962 216.128C169.482 215.792 170.07 215.624 170.723 215.624C170.846 215.624 171 215.626 171.185 215.631C171.369 215.636 171.509 215.643 171.604 215.652V217.357C171.547 217.343 171.417 217.322 171.213 217.293C171.014 217.26 170.803 217.243 170.581 217.243C170.051 217.243 169.577 217.355 169.16 217.577C168.749 217.795 168.422 218.098 168.18 218.486C167.944 218.87 167.825 219.308 167.825 219.8V226.704H166.149ZM177.832 226.931C176.781 226.931 175.874 226.699 175.112 226.235C174.355 225.766 173.77 225.113 173.358 224.275C172.951 223.432 172.747 222.452 172.747 221.334C172.747 220.217 172.951 219.232 173.358 218.38C173.77 217.523 174.343 216.855 175.077 216.377C175.815 215.894 176.677 215.652 177.662 215.652C178.23 215.652 178.791 215.747 179.345 215.937C179.899 216.126 180.403 216.434 180.858 216.86C181.312 217.281 181.675 217.84 181.945 218.536C182.214 219.232 182.349 220.089 182.349 221.107V221.817H173.94V220.368H180.645C180.645 219.753 180.522 219.204 180.276 218.721C180.034 218.238 179.688 217.857 179.239 217.577C178.793 217.298 178.268 217.158 177.662 217.158C176.994 217.158 176.417 217.324 175.929 217.655C175.446 217.982 175.074 218.408 174.814 218.934C174.553 219.459 174.423 220.023 174.423 220.624V221.59C174.423 222.414 174.565 223.112 174.849 223.685C175.138 224.253 175.538 224.687 176.05 224.985C176.561 225.278 177.155 225.425 177.832 225.425C178.273 225.425 178.67 225.364 179.026 225.241C179.385 225.113 179.695 224.923 179.956 224.672C180.216 224.417 180.418 224.099 180.56 223.721L182.179 224.175C182.008 224.724 181.722 225.207 181.32 225.624C180.917 226.036 180.42 226.358 179.828 226.59C179.236 226.817 178.571 226.931 177.832 226.931ZM187.115 212.158L186.973 222.613H185.325L185.183 212.158H187.115ZM186.149 226.817C185.799 226.817 185.498 226.692 185.247 226.441C184.996 226.19 184.871 225.889 184.871 225.539C184.871 225.188 184.996 224.888 185.247 224.637C185.498 224.386 185.799 224.26 186.149 224.26C186.499 224.26 186.8 224.386 187.051 224.637C187.302 224.888 187.427 225.188 187.427 225.539C187.427 225.771 187.368 225.984 187.25 226.178C187.136 226.372 186.982 226.528 186.788 226.647C186.599 226.76 186.386 226.817 186.149 226.817Z" fill="white"/>
<path d="M232.123 7.15641V89.4065C232.123 91.3045 231.391 93.1248 230.088 94.4669C228.785 95.809 227.017 96.5629 225.175 96.5629H158.869C157.03 96.5684 155.268 97.3248 153.969 98.6663C152.671 100.008 151.942 101.825 151.942 103.719V137.102C151.942 139 152.674 140.82 153.977 142.162C155.28 143.504 157.047 144.258 158.889 144.258H225.195C227.038 144.258 228.805 145.012 230.108 146.354C231.411 147.697 232.143 149.517 232.143 151.415V161.536C232.143 163.434 231.411 165.254 230.108 166.596C228.805 167.938 227.038 168.692 225.195 168.692H135.148C133.305 168.692 131.538 167.938 130.235 166.596C128.932 165.254 128.2 163.434 128.2 161.536V79.2856C128.2 77.3876 128.932 75.5673 130.235 74.2253C131.538 72.8832 133.305 72.1292 135.148 72.1292H201.473C203.316 72.1292 205.083 71.3752 206.386 70.0331C207.689 68.6911 208.421 66.8708 208.421 64.9728V31.5901C208.421 29.6922 207.689 27.8719 206.386 26.5298C205.083 25.1877 203.316 24.4338 201.473 24.4338H30.6694C29.7568 24.4329 28.8529 24.6173 28.0096 24.9767C27.1662 25.336 26.4 25.8631 25.7546 26.5278C25.1093 27.1925 24.5976 27.9818 24.2487 28.8504C23.8999 29.7191 23.7208 30.6501 23.7216 31.5901V64.9728C23.7216 66.8708 24.4536 68.6911 25.7566 70.0331C27.0596 71.3752 28.8268 72.1292 30.6694 72.1292H96.9749C97.887 72.1292 98.7901 72.3143 99.6327 72.6741C100.475 73.0338 101.241 73.561 101.885 74.2257C102.53 74.8903 103.041 75.6793 103.39 76.5475C103.738 77.4157 103.917 78.3461 103.916 79.2856V161.536C103.917 162.475 103.738 163.406 103.39 164.274C103.041 165.142 102.53 165.931 101.885 166.596C101.241 167.26 100.475 167.787 99.6327 168.147C98.7901 168.507 97.887 168.692 96.9749 168.692H6.94781C5.10514 168.692 3.33794 167.938 2.03497 166.596C0.732 165.254 0 163.434 0 161.536L0 151.415C0 149.517 0.732 147.697 2.03497 146.354C3.33794 145.012 5.10514 144.258 6.94781 144.258H73.2533C74.1653 144.258 75.0685 144.073 75.9111 143.713C76.7536 143.354 77.5191 142.827 78.1637 142.162C78.8084 141.497 79.3195 140.708 79.6679 139.84C80.0164 138.972 80.1953 138.041 80.1944 137.102V103.719C80.1953 102.78 80.0164 101.849 79.6679 100.981C79.3195 100.113 78.8084 99.324 78.1637 98.6594C77.5191 97.9948 76.7536 97.4675 75.9111 97.1078C75.0685 96.7481 74.1653 96.5629 73.2533 96.5629H6.94781C5.10514 96.5629 3.33794 95.809 2.03497 94.4669C0.732 93.1248 0 91.3045 0 89.4065V7.15641C0 5.25842 0.732 3.43817 2.03497 2.09609C3.33794 0.754004 5.10514 2.98917e-05 6.94781 2.98917e-05H225.155C226.069 -0.0026913 226.974 0.180406 227.82 0.538829C228.665 0.897253 229.433 1.42396 230.081 2.08876C230.728 2.75356 231.241 3.54339 231.592 4.413C231.942 5.2826 232.123 6.21488 232.123 7.15641Z" fill="white"/>
</svg>
