<svg width="17" height="24" viewBox="0 0 17 24" fill="none" xmlns="http://www.w3.org/2000/svg">
<g clip-path="url(#clip0_225_163)">
<path d="M15.9374 10.5H1.06238C0.475579 10.5 -0.00012207 11.1716 -0.00012207 12C-0.00012207 12.8284 0.475579 13.5 1.06238 13.5H15.9374C16.5242 13.5 16.9999 12.8284 16.9999 12C16.9999 11.1716 16.5242 10.5 15.9374 10.5Z" fill="white"/>
<path d="M1.06238 6.50002H15.9374C16.5242 6.50002 16.9999 5.82844 16.9999 5.00002C16.9999 4.17159 16.5242 3.50002 15.9374 3.50002H1.06238C0.475579 3.50002 -0.00012207 4.17159 -0.00012207 5.00002C-0.00012207 5.82844 0.475579 6.50002 1.06238 6.50002Z" fill="white"/>
<path d="M15.9374 17.5H1.06238C0.475579 17.5 -0.00012207 18.1716 -0.00012207 19C-0.00012207 19.8284 0.475579 20.5 1.06238 20.5H15.9374C16.5242 20.5 16.9999 19.8284 16.9999 19C16.9999 18.1716 16.5242 17.5 15.9374 17.5Z" fill="white"/>
</g>
<defs>
<clipPath id="clip0_225_163">
<rect width="17" height="24" fill="white"/>
</clipPath>
</defs>
</svg>
