<svg width="75" height="62" viewBox="0 0 75 62" fill="none" xmlns="http://www.w3.org/2000/svg">
<g clip-path="url(#clip0_45_236)">
<path d="M74.1667 55.7221C73.2251 58.0319 72.193 58.7123 69.5856 58.7123C64.0086 58.7123 58.4316 58.7123 52.8546 58.6944C52.3295 58.6944 51.913 58.784 51.6052 59.2137C50.1748 61.2191 48.2735 61.7921 45.811 61.6488C42.443 61.434 39.057 61.5951 35.671 61.5951C35.4356 61.5951 35.1821 61.613 34.9467 61.5772C34.3854 61.4698 34.0232 61.1475 34.0232 60.5566C34.0051 59.9299 34.3673 59.5897 34.9648 59.4644C35.2002 59.4286 35.4537 59.4465 35.6891 59.4465C39.6545 59.4465 43.6019 59.4465 47.676 59.4465C47.676 59.1779 47.676 58.9272 47.676 58.6765C47.676 55.0775 47.676 51.4606 47.676 47.8616C47.676 45.5876 48.8711 44.4058 51.1344 44.4058C54.7559 44.4058 58.3773 44.4058 61.9987 44.4058C62.2522 44.4058 62.5238 44.4058 62.8316 44.4058C62.8316 35.7574 62.8316 27.1628 62.8316 18.5144C42.6422 18.5144 22.4528 18.5144 2.17285 18.5144C2.17285 18.7472 2.17285 18.9979 2.17285 19.2485C2.17285 32.1942 2.17285 45.122 2.17285 58.0677C2.17285 59.2316 2.39014 59.4465 3.5671 59.4465C12.168 59.4465 20.7507 59.4465 29.3516 59.4465C29.587 59.4465 29.8405 59.4286 30.0759 59.4644C30.6734 59.5539 31.0537 59.8941 31.0537 60.5208C31.0537 61.1296 30.6915 61.4877 30.094 61.5772C29.8767 61.613 29.6594 61.5951 29.4421 61.5951C20.8051 61.5951 12.1499 61.5951 3.51278 61.5951C1.17696 61.5951 0 60.4313 0 58.1036C0 41.3977 0 24.6739 0 7.96805C0 5.69404 1.15885 4.53018 3.47656 4.53018C6.28316 4.53018 9.07166 4.51228 11.8783 4.54809C12.4215 4.54809 12.6025 4.40485 12.5663 3.86768C12.5301 2.99031 12.5482 2.09503 12.5663 1.21766C12.5844 0.465627 13.019 8.32733e-05 13.6346 8.32733e-05C14.2322 8.32733e-05 14.703 0.465627 14.7211 1.18185C14.7573 2.25618 14.7211 3.33051 14.7211 4.45856C17.1474 4.45856 19.5195 4.45856 22.0001 4.45856C22.0001 3.5991 22.0001 2.75754 22.0001 1.89807C22.0001 1.62949 21.982 1.37881 22.0001 1.11023C22.0363 0.447722 22.4709 -0.0178223 23.0684 -0.0178223C23.6298 -0.0178223 24.1005 0.411911 24.1368 1.0386C24.1911 1.77273 24.1549 2.52476 24.1549 3.25889C24.1549 3.63491 24.1549 4.01092 24.1549 4.45856C26.5812 4.45856 28.9532 4.45856 31.4158 4.45856C31.4158 3.42004 31.3796 2.36361 31.4339 1.32509C31.452 0.966982 31.5607 0.519344 31.8142 0.304477C32.0496 0.089611 32.6109 -0.0357278 32.8463 0.089611C33.1903 0.286572 33.5343 0.73421 33.5706 1.11023C33.6611 2.20246 33.6068 3.2947 33.6068 4.45856C36.015 4.45856 38.387 4.45856 40.8858 4.45856C40.8858 3.84977 40.8858 3.24099 40.8858 2.6322C40.8858 2.13084 40.8677 1.62949 40.9039 1.12813C40.9583 0.411911 41.4471 -0.0357278 42.0447 8.32733e-05C42.6241 0.0358943 43.0406 0.483533 43.0587 1.18185C43.0768 2.25618 43.0587 3.33051 43.0587 4.45856C45.485 4.45856 47.8571 4.45856 50.3558 4.45856C50.3558 3.52747 50.3558 2.57848 50.3558 1.62949C50.3558 0.53725 50.6999 8.32733e-05 51.4242 8.32733e-05C52.1665 8.32733e-05 52.5287 0.519344 52.5287 1.61158C52.5287 2.54267 52.5287 3.47376 52.5287 4.47647C52.8365 4.49437 53.09 4.53018 53.3435 4.53018C56.0777 4.53018 58.7937 4.53018 61.5279 4.53018C63.7189 4.53018 64.6786 5.37174 65.0769 7.46669C66.7246 16.0793 68.3905 24.7097 70.0564 33.3223C70.0926 33.5372 70.1469 33.752 70.165 33.949C70.2374 34.6652 69.9115 35.1487 69.3321 35.2382C68.7164 35.3456 68.2275 35.0412 68.0646 34.3429C67.8111 33.179 67.5938 31.9973 67.3765 30.8334C66.6884 27.2523 66.0004 23.6712 65.3123 20.0901C65.2761 19.911 65.2218 19.732 65.0769 19.5708C65.0769 19.8573 65.0769 20.1617 65.0769 20.4482C65.0769 28.5952 65.0769 36.7243 65.095 44.8714C65.095 45.5876 64.8777 46.1247 64.3526 46.644C61.2201 49.7059 58.1238 52.7856 55.0094 55.8475C54.8283 56.0265 54.5567 56.0981 54.3213 56.2414C54.3937 56.3309 54.4661 56.4204 54.5386 56.51C54.7378 56.5279 54.955 56.5458 55.1542 56.5458C60.0975 56.5458 65.0588 56.5458 70.002 56.5458C70.2193 56.5458 70.4366 56.5458 70.6539 56.51C71.6136 56.3488 72.1387 55.5968 71.9576 54.6299C71.0341 49.8133 70.0926 44.9788 69.1691 40.1622C69.1329 39.9832 69.0967 39.7862 69.0786 39.5892C68.9699 38.8372 69.2596 38.3358 69.8753 38.2105C70.5452 38.0852 71.0341 38.4254 71.1971 39.1953C71.4506 40.3592 71.6679 41.5409 71.8852 42.7048C72.6095 46.5187 73.3519 50.3326 74.0761 54.1643C74.0942 54.2539 74.1486 54.3255 74.2029 54.415C74.1667 54.8627 74.1667 55.2924 74.1667 55.7221ZM2.17285 16.2762C22.4528 16.2762 42.6422 16.2762 62.8859 16.2762C62.8859 13.465 62.8859 10.7076 62.8859 7.93224C62.8859 6.89371 62.6687 6.67885 61.6185 6.67885C58.8118 6.67885 56.0234 6.67885 53.2168 6.67885C52.9995 6.67885 52.8003 6.71466 52.5287 6.73256C52.5287 7.1623 52.5287 7.53831 52.5287 7.91433C52.5287 9.04238 52.5468 10.1525 52.5287 11.2806C52.5106 12.0863 52.0941 12.5519 51.4604 12.5519C50.8266 12.5519 50.4102 12.0863 50.3739 11.2985C50.3558 10.7792 50.3739 10.2421 50.3739 9.72279C50.3739 8.72008 50.3739 7.73528 50.3739 6.73256C47.8933 6.73256 45.5212 6.73256 43.0768 6.73256C43.0768 7.05486 43.0768 7.30554 43.0768 7.55622C43.0768 8.84542 43.0949 10.1346 43.0587 11.4238C43.0406 12.1042 42.5879 12.5698 41.9904 12.534C41.3385 12.4981 40.9764 12.1042 40.922 11.4954C40.8858 11.0299 40.9039 10.5464 40.9039 10.063C40.9039 8.95285 40.9039 7.84271 40.9039 6.71466C38.4233 6.71466 36.0512 6.71466 33.6249 6.71466C33.6249 8.1292 33.6249 9.49002 33.6249 10.8329C33.6249 11.9968 33.2808 12.534 32.5385 12.534C31.7961 12.534 31.452 11.9968 31.452 10.8329C31.452 9.45421 31.452 8.07548 31.452 6.69675C28.9895 6.69675 26.6174 6.69675 24.1911 6.69675C24.1911 8.1292 24.1911 9.50792 24.1911 10.8867C24.1911 11.1194 24.1911 11.3701 24.1549 11.6029C24.0281 12.1938 23.6479 12.5519 23.0322 12.4981C22.4347 12.4623 22.0544 12.0863 22.0363 11.4775C22.0182 10.8867 22.0182 10.2779 22.0182 9.68698C22.0182 8.68427 22.0182 7.69946 22.0182 6.69675C19.5557 6.69675 17.1655 6.69675 14.7392 6.69675C14.7392 7.01905 14.7392 7.26973 14.7392 7.53831C14.7392 8.7738 14.7573 10.0272 14.7392 11.2627C14.7211 12.0505 14.2684 12.534 13.6528 12.534C13.019 12.534 12.6025 12.0505 12.5844 11.2627C12.5663 10.6002 12.5844 9.91975 12.5844 9.25725C12.5844 8.41569 12.5844 7.55622 12.5844 6.66094C9.34326 6.66094 6.19263 6.66094 3.0601 6.66094C2.48067 6.66094 2.19096 7.03696 2.19096 7.59203C2.17285 10.4927 2.17285 13.3576 2.17285 16.2762ZM49.8307 57.638C53.5789 53.9495 57.3271 50.243 61.0571 46.5366C60.9847 46.5366 60.8217 46.5366 60.6588 46.5366C57.4719 46.5366 54.2851 46.5366 51.1163 46.5366C50.1023 46.5366 49.8488 46.7873 49.8488 47.8079C49.8488 50.9234 49.8488 54.0569 49.8488 57.1725C49.8307 57.3694 49.8307 57.5485 49.8307 57.638Z" fill="white"/>
<path d="M38.2784 32.6597C35.8521 32.6417 33.8784 30.6721 33.8965 28.2728C33.9146 25.8735 35.9426 23.9038 38.3508 23.9218C40.7591 23.9397 42.769 25.9451 42.7328 28.3265C42.7146 30.7438 40.7048 32.6776 38.2784 32.6597ZM38.2784 30.511C39.5278 30.5289 40.5418 29.562 40.5599 28.3265C40.578 27.1089 39.5821 26.0883 38.3508 26.0525C37.1196 26.0346 36.0874 27.0194 36.0693 28.237C36.0512 29.5083 37.029 30.4931 38.2784 30.511Z" fill="white"/>
<path d="M26.7261 34.6293C29.1705 34.6114 31.1442 36.5452 31.1623 38.9624C31.1804 41.3618 29.2248 43.3314 26.7804 43.3672C24.3903 43.403 22.3442 41.3976 22.326 39.0161C22.2898 36.6526 24.2997 34.6472 26.7261 34.6293ZM26.7804 36.7779C25.531 36.76 24.517 37.7448 24.4989 38.9624C24.4808 40.1621 25.5129 41.2006 26.7261 41.2185C27.9574 41.2364 28.9713 40.2337 28.9895 39.0161C29.0076 37.7627 28.0298 36.7958 26.7804 36.7779Z" fill="white"/>
<path d="M31.1623 49.6879C31.1623 52.1051 29.2067 54.0568 26.7442 54.0568C24.3178 54.0568 22.3079 52.0872 22.3079 49.6879C22.3079 47.3064 24.3359 45.301 26.7442 45.301C29.1705 45.301 31.1623 47.2885 31.1623 49.6879ZM28.9894 49.67C28.9894 48.4524 27.9754 47.4318 26.7442 47.4318C25.531 47.4318 24.4808 48.4703 24.4989 49.67C24.4989 50.8876 25.5129 51.8724 26.7623 51.8724C28.0117 51.8903 28.9894 50.9234 28.9894 49.67Z" fill="white"/>
<path d="M31.1623 28.3444C31.1442 30.7617 29.1705 32.6955 26.7079 32.6776C24.2816 32.6597 22.2898 30.6542 22.3079 28.2728C22.3441 25.8914 24.3721 23.9038 26.7804 23.9218C29.2248 23.9576 31.1804 25.9272 31.1623 28.3444ZM28.9894 28.3623C29.0076 27.1268 28.0479 26.1062 26.8166 26.0704C25.6034 26.0346 24.5351 27.0373 24.4989 28.237C24.4627 29.4367 25.4767 30.4752 26.7079 30.511C27.9573 30.5468 28.9713 29.5978 28.9894 28.3623Z" fill="white"/>
<path d="M38.2965 54.0389C35.8521 54.021 33.8965 52.0693 33.8965 49.652C33.9146 47.2527 35.9426 45.2652 38.3327 45.2831C40.741 45.301 42.7509 47.3064 42.7327 49.6878C42.7146 52.1051 40.7229 54.0568 38.2965 54.0389ZM38.3327 51.8902C39.5821 51.8723 40.578 50.8875 40.5599 49.652C40.5418 48.4345 39.4916 47.4317 38.2784 47.4497C37.0471 47.4676 36.0512 48.4882 36.0693 49.7057C36.0693 50.9412 37.0833 51.9081 38.3327 51.8902Z" fill="white"/>
<path d="M49.8851 34.6293C52.3114 34.6472 54.3213 36.6347 54.3032 39.0161C54.2851 41.3976 52.239 43.403 49.8488 43.3672C47.4225 43.3493 45.4488 41.3618 45.4669 38.9624C45.4669 36.5452 47.4406 34.6114 49.8851 34.6293ZM47.6217 38.9982C47.6217 40.2337 48.6176 41.2364 49.8669 41.2364C51.0801 41.2364 52.1303 40.2158 52.1303 38.9982C52.1303 37.7806 51.1163 36.7958 49.8669 36.7779C48.5994 36.7779 47.6217 37.7448 47.6217 38.9982Z" fill="white"/>
<path d="M45.4488 28.3086C45.4307 25.9093 47.4225 23.9217 49.8488 23.9217C52.2571 23.9038 54.2851 25.9093 54.3032 28.2907C54.3213 30.6721 52.3114 32.6597 49.885 32.6597C47.4406 32.6776 45.4669 30.7438 45.4488 28.3086ZM49.8669 30.511C51.0982 30.511 52.1303 29.4904 52.1122 28.2907C52.1122 27.0731 51.062 26.0704 49.8488 26.0704C48.6175 26.0704 47.6216 27.0731 47.6216 28.3086C47.6398 29.562 48.6175 30.5289 49.8669 30.511Z" fill="white"/>
<path d="M38.2965 34.6294C40.7229 34.6294 42.7327 36.599 42.7327 38.9804C42.7327 41.3619 40.7229 43.3673 38.3146 43.3673C35.9064 43.3673 33.8965 41.3798 33.8965 38.9983C33.8965 36.599 35.8702 34.6294 38.2965 34.6294ZM36.0693 38.9625C36.0512 40.1801 37.0652 41.2007 38.2784 41.2186C39.4916 41.2365 40.5418 40.2159 40.5599 39.0163C40.578 37.7808 39.5821 36.796 38.3327 36.7781C37.0652 36.7781 36.0693 37.7271 36.0693 38.9625Z" fill="white"/>
<path d="M16.6223 28.3086C17.2018 28.8458 17.6906 29.2397 18.1252 29.6874C18.759 30.3141 18.8133 30.887 18.3425 31.3705C17.8717 31.8539 17.2018 31.7823 16.568 31.1735C16.1334 30.7617 15.7351 30.3141 15.2643 29.8127C14.703 30.3678 14.2141 30.8691 13.6709 31.3347C12.9828 31.9435 12.005 31.7644 11.8421 30.9228C11.7696 30.5647 12.005 30.1171 12.2042 29.7769C12.3672 29.4904 12.6569 29.2934 12.9104 29.0607C13.1639 28.8458 13.4355 28.6309 13.7614 28.3624C13.182 27.7894 12.6931 27.3417 12.2223 26.8762C11.6429 26.2853 11.6067 25.7123 12.0774 25.2289C12.5301 24.7633 13.1639 24.7992 13.7433 25.3363C14.2141 25.784 14.6487 26.2674 15.1738 26.8046C15.7351 26.2674 16.224 25.7661 16.7491 25.2826C17.2742 24.7992 17.8717 24.7813 18.3063 25.1752C18.7771 25.6049 18.8133 26.2316 18.2882 26.7688C17.7993 27.2701 17.2561 27.7178 16.6223 28.3086Z" fill="white"/>
<path d="M15.1919 51.1203C14.6486 51.6933 14.196 52.1946 13.7071 52.6423C13.1276 53.1794 12.4939 53.1974 12.0412 52.7318C11.5885 52.2663 11.6248 51.6933 12.168 51.1382C12.6388 50.6548 13.1458 50.225 13.7433 49.67C13.182 49.1328 12.675 48.7031 12.2223 48.2375C11.6248 47.6287 11.5885 47.002 12.0955 46.5365C12.5844 46.0889 13.1639 46.1426 13.7614 46.7155C14.2141 47.1632 14.6486 47.6466 15.1919 48.2196C15.717 47.6824 16.1515 47.199 16.6042 46.7514C17.238 46.1426 17.8174 46.0709 18.3063 46.5365C18.8133 47.0199 18.7408 47.6287 18.1071 48.2912C17.6906 48.721 17.2742 49.1507 16.8396 49.5625C16.8215 49.5804 16.8215 49.5983 16.7853 49.7595C17.2199 50.1713 17.7269 50.619 18.1795 51.0845C18.7408 51.6575 18.7771 52.2663 18.3063 52.7318C17.8355 53.1974 17.2199 53.1615 16.6404 52.6065C16.1877 52.1946 15.7532 51.7112 15.1919 51.1203Z" fill="white"/>
<path d="M16.7853 39.1236C17.2561 39.5713 17.7631 40.001 18.2338 40.4845C18.759 41.0395 18.7771 41.6304 18.3244 42.0781C17.8898 42.5257 17.2561 42.5078 16.7129 42.0064C16.2059 41.5409 15.7532 41.0216 15.1919 40.4487C14.6486 41.0216 14.2141 41.5051 13.7252 41.9706C13.1458 42.5257 12.512 42.5436 12.0593 42.0781C11.6248 41.6125 11.6429 41.0395 12.168 40.4845C12.6388 40.001 13.1458 39.5534 13.8157 38.9446C13.2363 38.4611 12.7112 38.0493 12.2223 37.5838C11.6248 37.0108 11.5885 36.4199 12.0412 35.9365C12.4939 35.4709 13.1639 35.5067 13.7614 36.0797C14.2141 36.5094 14.6668 36.9392 15.1194 37.3689C15.1375 37.3868 15.1556 37.3689 15.3005 37.3868C15.6989 36.975 16.1334 36.5094 16.6042 36.0618C17.2017 35.4888 17.8717 35.4351 18.3244 35.9186C18.7771 36.402 18.7227 36.9571 18.1433 37.5659C17.7087 38.0135 17.2742 38.4611 16.8215 38.8909C16.8396 38.9267 16.8396 38.9446 16.7853 39.1236Z" fill="white"/>
</g>
<defs>
<clipPath id="clip0_45_236">
<rect width="74.1667" height="61.6667" fill="white"/>
</clipPath>
</defs>
</svg>
