<svg width="33" height="33" viewBox="0 0 33 33" fill="none" xmlns="http://www.w3.org/2000/svg">
<path d="M28.875 17.083V15.125C28.875 11.8429 27.5712 8.69532 25.2504 6.37455C22.9296 4.05379 19.782 2.75 16.5 2.75C13.2179 2.75 10.0703 4.05379 7.74952 6.37455C5.42875 8.69532 4.12496 11.8429 4.12496 15.125V17.083C2.68281 17.718 1.50256 18.8292 0.781817 20.2305C0.0610712 21.6318 -0.156429 23.2381 0.165729 24.7806C0.487887 26.3231 1.33015 27.7081 2.55151 28.7038C3.77287 29.6994 5.29919 30.2453 6.87496 30.25C7.60431 30.25 8.30378 29.9603 8.81951 29.4445C9.33523 28.9288 9.62496 28.2293 9.62496 27.5V19.25C9.62496 18.5207 9.33523 17.8212 8.81951 17.3055C8.30378 16.7897 7.60431 16.5 6.87496 16.5V15.125C6.87496 12.5723 7.88902 10.1241 9.69406 8.3191C11.4991 6.51406 13.9473 5.5 16.5 5.5C19.0527 5.5 21.5008 6.51406 23.3059 8.3191C25.1109 10.1241 26.125 12.5723 26.125 15.125V16.5C25.3956 16.5 24.6961 16.7897 24.1804 17.3055C23.6647 17.8212 23.375 18.5207 23.375 19.25V27.5H19.25C18.8853 27.5 18.5356 27.6449 18.2777 27.9027C18.0198 28.1606 17.875 28.5103 17.875 28.875C17.875 29.2397 18.0198 29.5894 18.2777 29.8473C18.5356 30.1051 18.8853 30.25 19.25 30.25H26.125C27.7007 30.2453 29.2271 29.6994 30.4484 28.7038C31.6698 27.7081 32.512 26.3231 32.8342 24.7806C33.1564 23.2381 32.9389 21.6318 32.2181 20.2305C31.4974 18.8292 30.3171 17.718 28.875 17.083ZM6.87496 27.5C5.78094 27.5 4.73173 27.0654 3.95815 26.2918C3.18456 25.5182 2.74996 24.469 2.74996 23.375C2.74996 22.281 3.18456 21.2318 3.95815 20.4582C4.73173 19.6846 5.78094 19.25 6.87496 19.25V27.5ZM26.125 27.5V19.25C27.219 19.25 28.2682 19.6846 29.0418 20.4582C29.8154 21.2318 30.25 22.281 30.25 23.375C30.25 24.469 29.8154 25.5182 29.0418 26.2918C28.2682 27.0654 27.219 27.5 26.125 27.5Z" fill="#E20052"/>
</svg>
