<svg width="62" height="62" viewBox="0 0 62 62" fill="none" xmlns="http://www.w3.org/2000/svg">
<g clip-path="url(#clip0_47_297)">
<path d="M30.8333 31.1668C32.8661 31.1668 34.8532 30.564 36.5434 29.4347C38.2335 28.3053 39.5509 26.7002 40.3288 24.8222C41.1067 22.9441 41.3102 20.8776 40.9136 18.8839C40.5171 16.8902 39.5382 15.0589 38.1008 13.6215C36.6635 12.1842 34.8321 11.2053 32.8384 10.8087C30.8447 10.4122 28.7782 10.6157 26.9002 11.3936C25.0222 12.1715 23.417 13.4888 22.2877 15.179C21.1583 16.8692 20.5556 18.8563 20.5556 20.889C20.5556 23.6149 21.6384 26.2291 23.5659 28.1565C25.4933 30.084 28.1075 31.1668 30.8333 31.1668ZM30.8333 15.7501C31.8497 15.7501 32.8433 16.0515 33.6884 16.6162C34.5334 17.1809 35.1921 17.9834 35.5811 18.9225C35.97 19.8615 36.0718 20.8947 35.8735 21.8916C35.6752 22.8884 35.1858 23.8041 34.4671 24.5228C33.7484 25.2415 32.8327 25.7309 31.8359 25.9292C30.839 26.1275 29.8058 26.0257 28.8668 25.6367C27.9278 25.2478 27.1252 24.5891 26.5605 23.744C25.9958 22.899 25.6944 21.9054 25.6944 20.889C25.6944 19.5261 26.2359 18.219 27.1996 17.2553C28.1633 16.2915 29.4704 15.7501 30.8333 15.7501ZM41.1111 56.9383L61.6667 61.9436V34.9773C61.6661 33.3222 61.1329 31.7113 60.1459 30.3828C59.1589 29.0543 57.7705 28.0787 56.1861 27.6004L50.7902 25.8018C51.1848 24.1991 51.3858 22.555 51.3889 20.9044C51.3889 15.4528 49.2232 10.2244 45.3683 6.36946C41.5134 2.51455 36.285 0.348877 30.8333 0.348877C25.3817 0.348877 20.1533 2.51455 16.2984 6.36946C12.4435 10.2244 10.2778 15.4528 10.2778 20.9044C10.2854 21.9475 10.3713 22.9884 10.5347 24.0186C9.36786 23.5534 8.10478 23.3813 6.85598 23.5172C5.60717 23.6531 4.4107 24.0929 3.37123 24.7983C2.33176 25.5036 1.48096 26.4529 0.893257 27.5631C0.305556 28.6733 -0.0011388 29.9106 3.17748e-06 31.1668V56.224L20.5119 62.0849L41.1111 56.9383ZM19.9312 10.0049C22.8276 7.14956 26.7349 5.5545 30.8021 5.56711C34.8692 5.57973 38.7666 7.199 41.6452 10.0722C44.5238 12.9454 46.1504 16.8397 46.1707 20.9068C46.191 24.9739 44.6033 28.8843 41.7535 31.786L30.8333 42.4724L19.9312 31.8066C17.0402 28.9154 15.4161 24.9943 15.4161 20.9057C15.4161 16.8171 17.0402 12.896 19.9312 10.0049ZM5.13889 31.1668C5.13565 30.743 5.23887 30.3252 5.4391 29.9517C5.63933 29.5782 5.93014 29.2609 6.28486 29.029C6.65593 28.7855 7.08339 28.6415 7.52617 28.6109C7.96896 28.5803 8.41217 28.6641 8.8132 28.8543L12.4978 30.1853C13.4836 32.1374 14.7732 33.9206 16.3185 35.4681L30.8333 49.6668L45.3687 35.4501C46.7979 34.0229 48.0099 32.3936 48.9659 30.6144L54.6624 32.5183C55.1989 32.6718 55.6709 32.9958 56.007 33.4412C56.3431 33.8867 56.525 34.4295 56.5252 34.9876V55.4121L41.1111 51.6453L20.6069 56.7842L5.13889 52.3544V31.1668Z" fill="white"/>
</g>
<defs>
<clipPath id="clip0_47_297">
<rect width="61.6667" height="61.6667" fill="white" transform="translate(0 0.333496)"/>
</clipPath>
</defs>
</svg>
