<svg width="29" height="29" viewBox="0 0 29 29" fill="none" xmlns="http://www.w3.org/2000/svg">
<g clip-path="url(#clip0_135_317)">
<path d="M29 14C29 17.4478 27.6304 20.7544 25.1924 23.1924C22.7544 25.6304 19.4478 27 16 27C12.5522 27 9.24558 25.6304 6.80761 23.1924C4.36964 20.7544 3 17.4478 3 14C3 13.7127 3.11414 13.4371 3.3173 13.234C3.52047 13.0308 3.79602 12.9167 4.08333 12.9167C4.37065 12.9167 4.6462 13.0308 4.84937 13.234C5.05253 13.4371 5.16667 13.7127 5.16667 14C5.16667 16.1426 5.80203 18.2371 6.99241 20.0187C8.18279 21.8002 9.87473 23.1887 11.8543 24.0087C13.8338 24.8286 16.012 25.0432 18.1135 24.6252C20.2149 24.2072 22.1453 23.1754 23.6603 21.6603C25.1754 20.1453 26.2072 18.2149 26.6252 16.1135C27.0432 14.012 26.8286 11.8338 26.0087 9.85426C25.1887 7.87473 23.8002 6.18279 22.0187 4.99241C20.2371 3.80203 18.1426 3.16667 16 3.16667C15.7127 3.16667 15.4371 3.05253 15.234 2.84937C15.0308 2.6462 14.9167 2.37065 14.9167 2.08333C14.9167 1.79602 15.0308 1.52047 15.234 1.3173C15.4371 1.11414 15.7127 1 16 1C19.4467 1.00373 22.7511 2.37456 25.1883 4.81173C27.6254 7.24889 28.9963 10.5533 29 14ZM14.1334 12.9167H11.6667C11.3793 12.9167 11.1038 13.0308 10.9006 13.234C10.6975 13.4371 10.5833 13.7127 10.5833 14C10.5833 14.2873 10.6975 14.5629 10.9006 14.766C11.1038 14.9692 11.3793 15.0833 11.6667 15.0833H14.1334C14.2989 15.3707 14.5282 15.6161 14.8037 15.8005C15.0793 15.9849 15.3935 16.1035 15.7222 16.147C16.0509 16.1904 16.3852 16.1576 16.6992 16.0512C17.0132 15.9447 17.2985 15.7674 17.5329 15.5329C17.7674 15.2985 17.9447 15.0132 18.0512 14.6992C18.1576 14.3852 18.1904 14.0509 18.147 13.7222C18.1035 13.3935 17.9849 13.0793 17.8005 12.8037C17.6161 12.5282 17.3707 12.2989 17.0833 12.1334V8.58333C17.0833 8.29602 16.9692 8.02047 16.766 7.8173C16.5629 7.61414 16.2873 7.5 16 7.5C15.7127 7.5 15.4371 7.61414 15.234 7.8173C15.0308 8.02047 14.9167 8.29602 14.9167 8.58333V12.1334C14.5921 12.3222 14.3222 12.5921 14.1334 12.9167ZM4.97925 10.516C5.19351 10.516 5.40296 10.4525 5.58112 10.3334C5.75927 10.2144 5.89812 10.0452 5.98012 9.84724C6.06211 9.64929 6.08357 9.43147 6.04177 9.22132C5.99997 9.01117 5.89679 8.81814 5.74528 8.66663C5.59378 8.51513 5.40074 8.41195 5.1906 8.37015C4.98045 8.32835 4.76263 8.3498 4.56468 8.4318C4.36672 8.51379 4.19753 8.65265 4.07849 8.8308C3.95945 9.00895 3.89592 9.2184 3.89592 9.43267C3.89592 9.71999 4.01005 9.99553 4.21322 10.1987C4.41638 10.4019 4.69193 10.516 4.97925 10.516ZM7.57275 6.64092C7.78701 6.64092 7.99646 6.57738 8.17462 6.45834C8.35277 6.3393 8.49162 6.17011 8.57362 5.97216C8.65561 5.7742 8.67707 5.55638 8.63527 5.34624C8.59347 5.13609 8.49029 4.94306 8.33878 4.79155C8.18728 4.64004 7.99424 4.53687 7.7841 4.49507C7.57395 4.45327 7.35613 4.47472 7.15818 4.55671C6.96022 4.63871 6.79103 4.77756 6.67199 4.95572C6.55295 5.13387 6.48942 5.34332 6.48942 5.55758C6.48942 5.8449 6.60355 6.12045 6.80672 6.32362C7.00988 6.52678 7.28543 6.64092 7.57275 6.64092ZM11.4272 4.07775C11.6415 4.07775 11.851 4.01421 12.0291 3.89518C12.2073 3.77614 12.3461 3.60694 12.4281 3.40899C12.5101 3.21104 12.5316 2.99321 12.4898 2.78307C12.448 2.57292 12.3448 2.37989 12.1933 2.22838C12.0418 2.07688 11.8487 1.9737 11.6386 1.9319C11.4285 1.8901 11.2106 1.91155 11.0127 1.99355C10.8147 2.07554 10.6455 2.2144 10.5265 2.39255C10.4075 2.5707 10.3439 2.78015 10.3439 2.99442C10.3439 3.28173 10.4581 3.55728 10.6612 3.76045C10.8644 3.96361 11.1399 4.07775 11.4272 4.07775Z" fill="#05AF62"/>
</g>
<defs>
<clipPath id="clip0_135_317">
<rect width="26" height="26" fill="white" transform="translate(3 1)"/>
</clipPath>
</defs>
</svg>
