<svg width="29" height="29" viewBox="0 0 29 29" fill="none" xmlns="http://www.w3.org/2000/svg">
<g clip-path="url(#clip0_135_304)">
<path d="M14.4492 29.0097L13.6069 28.2877C12.4457 27.3154 2.30664 18.5589 2.30664 12.1538C2.30664 5.44765 7.74306 0.0112305 14.4492 0.0112305C21.1553 0.0112305 26.5918 5.44765 26.5918 12.1538C26.5918 18.559 16.4527 27.3155 15.2963 28.2925L14.4492 29.0097ZM14.4492 2.63681C9.19561 2.64275 4.93822 6.90015 4.93227 12.1537C4.93227 16.1776 11.1702 22.6056 14.4492 25.5477C17.7282 22.6044 23.9661 16.1727 23.9661 12.1537C23.9602 6.90015 19.7028 2.64281 14.4492 2.63681Z" fill="#00B6F0"/>
<path d="M14.4494 16.967C11.7912 16.967 9.63623 14.812 9.63623 12.1538C9.63623 9.49553 11.7912 7.34058 14.4494 7.34058C17.1077 7.34058 19.2626 9.49553 19.2626 12.1538C19.2626 14.812 17.1078 16.967 14.4494 16.967ZM14.4494 9.74712C13.1203 9.74712 12.0428 10.8246 12.0428 12.1537C12.0428 13.4829 13.1203 14.5603 14.4494 14.5603C15.7786 14.5603 16.856 13.4829 16.856 12.1537C16.856 10.8246 15.7786 9.74712 14.4494 9.74712Z" fill="#00B6F0"/>
</g>
<defs>
<clipPath id="clip0_135_304">
<rect width="29" height="29" fill="white"/>
</clipPath>
</defs>
</svg>
