<svg width="71" height="42" viewBox="0 0 71 42" fill="none" xmlns="http://www.w3.org/2000/svg">
<g clip-path="url(#clip0_268_28)">
<path d="M71 1.78108V22.2601C71 22.4944 70.9449 22.7264 70.8377 22.9428C70.7306 23.1592 70.5736 23.3558 70.3757 23.5213C70.1778 23.6867 69.9429 23.8178 69.6845 23.907C69.426 23.9962 69.1491 24.0418 68.8697 24.0411H48.5903C48.3111 24.0411 48.0347 24.0873 47.7769 24.1769C47.519 24.2665 47.2847 24.3978 47.0874 24.5634C46.8901 24.729 46.7337 24.9255 46.6271 25.1418C46.5204 25.3581 46.4657 25.5898 46.4659 25.8239V34.135C46.4657 34.369 46.5204 34.6007 46.6271 34.8168C46.7338 35.033 46.8902 35.2295 47.0875 35.3949C47.2849 35.5603 47.5191 35.6915 47.777 35.7809C48.0349 35.8704 48.3112 35.9163 48.5903 35.9161H68.8697C69.4333 35.9165 69.9736 36.1045 70.3719 36.4388C70.7702 36.7731 70.994 37.2263 70.994 37.6988V40.224C70.9924 40.6955 70.7679 41.1472 70.3697 41.4801C69.9714 41.8131 69.432 42 68.8697 42H41.3379C41.0589 42 40.7827 41.9539 40.5249 41.8644C40.2672 41.7749 40.033 41.6437 39.8357 41.4783C39.6385 41.313 39.482 41.1166 39.3752 40.9005C39.2685 40.6844 39.2135 40.4528 39.2135 40.2189V19.74C39.2135 19.5061 39.2685 19.2745 39.3752 19.0584C39.482 18.8423 39.6385 18.6459 39.8357 18.4805C40.033 18.3152 40.2672 18.184 40.5249 18.0945C40.7827 18.005 41.0589 17.9589 41.3379 17.9589H61.6173C61.8964 17.9591 62.1729 17.9132 62.4308 17.8238C62.6888 17.7344 62.9232 17.6032 63.1207 17.4378C63.3182 17.2724 63.4748 17.076 63.5817 16.8598C63.6886 16.6436 63.7436 16.4118 63.7436 16.1778V7.86501C63.7439 7.63106 63.6891 7.39935 63.5824 7.18316C63.4758 6.96697 63.3193 6.77054 63.122 6.60511C62.9247 6.43968 62.6904 6.30849 62.4325 6.21906C62.1747 6.12963 61.8983 6.08372 61.6193 6.08394H9.38073C9.10169 6.08372 8.82533 6.12963 8.56748 6.21906C8.30962 6.30849 8.07534 6.43968 7.87802 6.60511C7.68071 6.77054 7.52424 6.96697 7.41758 7.18316C7.31092 7.39935 7.25615 7.63106 7.25641 7.86501V16.1778C7.25641 16.6502 7.48022 17.1032 7.87861 17.4372C8.277 17.7712 8.81733 17.9589 9.38073 17.9589H29.6601C30.2235 17.9589 30.7639 18.1465 31.1623 18.4805C31.5606 18.8146 31.7845 19.2676 31.7845 19.74V40.2189C31.7845 40.6913 31.5606 41.1443 31.1623 41.4783C30.7639 41.8124 30.2235 42 29.6601 42H2.12432C1.56091 42 1.02059 41.8124 0.622198 41.4783C0.223811 41.1443 0 40.6913 0 40.2189V37.6938C-2.5127e-07 37.2213 0.223747 36.7681 0.622076 36.4338C1.02041 36.0995 1.56073 35.9115 2.12432 35.911H22.4037C22.9671 35.911 23.5075 35.7234 23.9058 35.3894C24.3042 35.0553 24.528 34.6023 24.528 34.13V25.8239C24.528 25.3514 24.3043 24.8982 23.906 24.5639C23.5076 24.2296 22.9673 24.0416 22.4037 24.0411H2.12432C1.84535 24.0411 1.56911 23.9951 1.31138 23.9056C1.05364 23.816 0.819459 23.6849 0.622198 23.5195C0.424937 23.3541 0.268461 23.1577 0.161704 22.9416C0.0549471 22.7256 0 22.4939 0 22.2601L0 1.78108C0 1.30871 0.223811 0.855687 0.622198 0.521671C1.02059 0.187655 1.56091 7.16082e-06 2.12432 7.16082e-06H68.8697C69.1491 -0.000657261 69.426 0.0449212 69.6845 0.134131C69.9429 0.223341 70.1778 0.354428 70.3757 0.519883C70.5736 0.685337 70.7306 0.881905 70.8377 1.09832C70.9449 1.31474 71 1.54676 71 1.78108Z" fill="white"/>
</g>
<defs>
<clipPath id="clip0_268_28">
<rect width="71" height="42" fill="white"/>
</clipPath>
</defs>
</svg>
