<svg width="103" height="93" viewBox="0 0 103 93" fill="none" xmlns="http://www.w3.org/2000/svg">
<path d="M4.65181 76.2911C4.61771 76.0033 4.47946 75.7798 4.23703 75.6207C3.99461 75.4616 3.69726 75.3821 3.34499 75.3821C3.08741 75.3821 2.86203 75.4237 2.66885 75.5071C2.47756 75.5904 2.32794 75.705 2.21999 75.8508C2.11393 75.9966 2.0609 76.1624 2.0609 76.348C2.0609 76.5033 2.09783 76.6368 2.17169 76.7485C2.24745 76.8584 2.34404 76.9502 2.46146 77.0241C2.57889 77.0961 2.70199 77.1557 2.83078 77.2031C2.95957 77.2485 3.07794 77.2855 3.1859 77.3139L3.77681 77.473C3.92832 77.5127 4.09688 77.5677 4.28249 77.6377C4.46999 77.7078 4.64896 77.8035 4.81942 77.9247C4.99177 78.044 5.13381 78.1974 5.24556 78.3849C5.3573 78.5724 5.41317 78.8025 5.41317 79.0752C5.41317 79.3896 5.33078 79.6737 5.16601 79.9275C5.00313 80.1813 4.76449 80.383 4.4501 80.5326C4.1376 80.6822 3.75787 80.7571 3.3109 80.7571C2.89423 80.7571 2.53343 80.6898 2.22851 80.5554C1.92548 80.4209 1.68684 80.2334 1.5126 79.9929C1.34025 79.7523 1.24271 79.473 1.21999 79.1548H1.94726C1.9662 79.3745 2.04006 79.5563 2.16885 79.7002C2.29953 79.8423 2.46431 79.9483 2.66317 80.0184C2.86393 80.0866 3.07984 80.1207 3.3109 80.1207C3.57984 80.1207 3.82131 80.0771 4.03533 79.99C4.24934 79.901 4.41885 79.7779 4.54385 79.6207C4.66885 79.4616 4.73135 79.276 4.73135 79.0639C4.73135 78.8707 4.67737 78.7135 4.56942 78.5923C4.46146 78.4711 4.31942 78.3726 4.14328 78.2968C3.96715 78.2211 3.77681 78.1548 3.57226 78.098L2.85635 77.8934C2.40181 77.7627 2.04196 77.5762 1.77681 77.3338C1.51165 77.0913 1.37908 76.7741 1.37908 76.3821C1.37908 76.0563 1.46715 75.7722 1.64328 75.5298C1.82131 75.2855 2.05995 75.0961 2.35919 74.9616C2.66033 74.8252 2.9965 74.7571 3.36771 74.7571C3.74271 74.7571 4.07605 74.8243 4.36771 74.9588C4.65938 75.0913 4.89044 75.2732 5.0609 75.5042C5.23325 75.7353 5.32415 75.9976 5.33362 76.2911H4.65181ZM8.31019 80.7457C7.88973 80.7457 7.52704 80.6529 7.22212 80.4673C6.91909 80.2798 6.68519 80.0184 6.52041 79.6832C6.35753 79.3461 6.2761 78.954 6.2761 78.5071C6.2761 78.0601 6.35753 77.6661 6.52041 77.3252C6.68519 76.9824 6.91435 76.7154 7.20791 76.5241C7.50337 76.3309 7.84807 76.2343 8.242 76.2343C8.46928 76.2343 8.69371 76.2722 8.9153 76.348C9.13689 76.4237 9.3386 76.5468 9.52041 76.7173C9.70223 76.8858 9.84712 77.1093 9.95507 77.3877C10.063 77.6661 10.117 78.009 10.117 78.4161V78.7002H6.75337V78.1207H9.43519C9.43519 77.8745 9.38594 77.6548 9.28746 77.4616C9.19087 77.2684 9.05261 77.116 8.87269 77.0042C8.69466 76.8925 8.48443 76.8366 8.242 76.8366C7.97496 76.8366 7.7439 76.9029 7.54882 77.0355C7.35564 77.1661 7.20697 77.3366 7.1028 77.5468C6.99863 77.7571 6.94655 77.9824 6.94655 78.223V78.6093C6.94655 78.9389 7.00337 79.2182 7.117 79.4474C7.23253 79.6747 7.39257 79.848 7.59712 79.9673C7.80166 80.0847 8.03935 80.1434 8.31019 80.1434C8.48632 80.1434 8.64541 80.1188 8.78746 80.0696C8.9314 80.0184 9.05545 79.9427 9.15962 79.8423C9.26378 79.74 9.34428 79.6131 9.4011 79.4616L10.0488 79.6434C9.98064 79.8631 9.86606 80.0563 9.70507 80.223C9.54409 80.3877 9.34522 80.5165 9.10848 80.6093C8.87174 80.7002 8.60564 80.7457 8.31019 80.7457ZM11.1369 80.6548V76.2911H11.7846V76.973H11.8414C11.9323 76.74 12.0791 76.5591 12.2818 76.4304C12.4844 76.2997 12.7278 76.2343 13.0119 76.2343C13.2998 76.2343 13.5394 76.2997 13.7306 76.4304C13.9238 76.5591 14.0744 76.74 14.1823 76.973H14.2278C14.3395 76.7476 14.5072 76.5686 14.7306 76.436C14.9541 76.3016 15.2221 76.2343 15.5346 76.2343C15.9248 76.2343 16.2439 76.3565 16.492 76.6008C16.7401 76.8432 16.8642 77.2211 16.8642 77.7343V80.6548H16.1937V77.7343C16.1937 77.4124 16.1056 77.1822 15.9295 77.044C15.7534 76.9057 15.546 76.8366 15.3073 76.8366C15.0005 76.8366 14.7628 76.9294 14.5943 77.115C14.4257 77.2987 14.3414 77.5317 14.3414 77.8139V80.6548H13.6596V77.6661C13.6596 77.418 13.5791 77.2182 13.4181 77.0667C13.2572 76.9133 13.0498 76.8366 12.796 76.8366C12.6217 76.8366 12.4589 76.883 12.3073 76.9758C12.1577 77.0686 12.0365 77.1974 11.9437 77.3622C11.8528 77.5251 11.8073 77.7135 11.8073 77.9275V80.6548H11.1369ZM19.3741 80.7571C19.0976 80.7571 18.8466 80.705 18.6213 80.6008C18.3959 80.4947 18.2169 80.3423 18.0843 80.1434C17.9518 79.9427 17.8855 79.7002 17.8855 79.4161C17.8855 79.1661 17.9347 78.9635 18.0332 78.8082C18.1317 78.651 18.2633 78.5279 18.4281 78.4389C18.5929 78.3499 18.7747 78.2836 18.9735 78.24C19.1743 78.1946 19.376 78.1586 19.5787 78.1321C19.8438 78.098 20.0588 78.0724 20.2235 78.0554C20.3902 78.0364 20.5114 78.0052 20.5872 77.9616C20.6648 77.918 20.7037 77.8423 20.7037 77.7343V77.7116C20.7037 77.4313 20.6269 77.2135 20.4735 77.0582C20.322 76.9029 20.0919 76.8252 19.7832 76.8252C19.4631 76.8252 19.2122 76.8953 19.0304 77.0355C18.8485 77.1756 18.7207 77.3252 18.6468 77.4843L18.0105 77.2571C18.1241 76.9919 18.2756 76.7855 18.465 76.6377C18.6563 76.4881 18.8646 76.384 19.09 76.3252C19.3173 76.2646 19.5408 76.2343 19.7605 76.2343C19.9006 76.2343 20.0616 76.2514 20.2434 76.2855C20.4271 76.3177 20.6042 76.3849 20.7747 76.4872C20.947 76.5894 21.09 76.7438 21.2037 76.9502C21.3173 77.1567 21.3741 77.4332 21.3741 77.7798V80.6548H20.7037V80.0639H20.6696C20.6241 80.1586 20.5483 80.2599 20.4423 80.3679C20.3362 80.4758 20.1951 80.5677 20.019 80.6434C19.8429 80.7192 19.6279 80.7571 19.3741 80.7571ZM19.4764 80.1548C19.7415 80.1548 19.965 80.1027 20.1468 79.9985C20.3305 79.8944 20.4688 79.7599 20.5616 79.5951C20.6563 79.4304 20.7037 79.2571 20.7037 79.0752V78.4616C20.6752 78.4957 20.6127 78.5269 20.5162 78.5554C20.4215 78.5819 20.3116 78.6055 20.1866 78.6264C20.0635 78.6453 19.9432 78.6624 19.8258 78.6775C19.7103 78.6908 19.6165 78.7021 19.5446 78.7116C19.3703 78.7343 19.2074 78.7713 19.0559 78.8224C18.9063 78.8716 18.7851 78.9465 18.6923 79.0468C18.6014 79.1453 18.5559 79.2798 18.5559 79.4502C18.5559 79.6832 18.6421 79.8593 18.8144 79.9786C18.9887 80.0961 19.2093 80.1548 19.4764 80.1548ZM22.5978 80.6548V76.2911H23.2683V80.6548H22.5978ZM22.9387 75.5639C22.8081 75.5639 22.6954 75.5194 22.6007 75.4304C22.5079 75.3413 22.4615 75.2343 22.4615 75.1093C22.4615 74.9843 22.5079 74.8773 22.6007 74.7883C22.6954 74.6993 22.8081 74.6548 22.9387 74.6548C23.0694 74.6548 23.1812 74.6993 23.274 74.7883C23.3687 74.8773 23.416 74.9843 23.416 75.1093C23.416 75.2343 23.3687 75.3413 23.274 75.4304C23.1812 75.5194 23.0694 75.5639 22.9387 75.5639ZM25.1667 78.0298V80.6548H24.4963V76.2911H25.144V76.973H25.2008C25.3031 76.7514 25.4584 76.5733 25.6667 76.4389C25.8751 76.3025 26.144 76.2343 26.4735 76.2343C26.769 76.2343 27.0275 76.2949 27.2491 76.4161C27.4707 76.5355 27.643 76.7173 27.7662 76.9616C27.8893 77.204 27.9508 77.5108 27.9508 77.8821V80.6548H27.2804V77.9275C27.2804 77.5847 27.1913 77.3177 27.0133 77.1264C26.8353 76.9332 26.591 76.8366 26.2804 76.8366C26.0663 76.8366 25.8751 76.883 25.7065 76.9758C25.5398 77.0686 25.4082 77.204 25.3116 77.3821C25.215 77.5601 25.1667 77.776 25.1667 78.0298ZM31.0055 80.7457C30.585 80.7457 30.2224 80.6529 29.9174 80.4673C29.6144 80.2798 29.3805 80.0184 29.2157 79.6832C29.0528 79.3461 28.9714 78.954 28.9714 78.5071C28.9714 78.0601 29.0528 77.6661 29.2157 77.3252C29.3805 76.9824 29.6097 76.7154 29.9032 76.5241C30.1987 76.3309 30.5434 76.2343 30.9373 76.2343C31.1646 76.2343 31.389 76.2722 31.6106 76.348C31.8322 76.4237 32.0339 76.5468 32.2157 76.7173C32.3975 76.8858 32.5424 77.1093 32.6504 77.3877C32.7583 77.6661 32.8123 78.009 32.8123 78.4161V78.7002H29.4487V78.1207H32.1305C32.1305 77.8745 32.0813 77.6548 31.9828 77.4616C31.8862 77.2684 31.7479 77.116 31.568 77.0042C31.39 76.8925 31.1797 76.8366 30.9373 76.8366C30.6703 76.8366 30.4392 76.9029 30.2441 77.0355C30.051 77.1661 29.9023 77.3366 29.7981 77.5468C29.6939 77.7571 29.6419 77.9824 29.6419 78.223V78.6093C29.6419 78.9389 29.6987 79.2182 29.8123 79.4474C29.9278 79.6747 30.0879 79.848 30.2924 79.9673C30.497 80.0847 30.7347 80.1434 31.0055 80.1434C31.1816 80.1434 31.3407 80.1188 31.4828 80.0696C31.6267 80.0184 31.7508 79.9427 31.8549 79.8423C31.9591 79.74 32.0396 79.6131 32.0964 79.4616L32.7441 79.6434C32.676 79.8631 32.5614 80.0563 32.4004 80.223C32.2394 80.3877 32.0405 80.5165 31.8038 80.6093C31.5671 80.7002 31.301 80.7457 31.0055 80.7457ZM37.3663 80.7571C37.0898 80.7571 36.8388 80.705 36.6135 80.6008C36.3881 80.4947 36.2091 80.3423 36.0765 80.1434C35.9439 79.9427 35.8777 79.7002 35.8777 79.4161C35.8777 79.1661 35.9269 78.9635 36.0254 78.8082C36.1239 78.651 36.2555 78.5279 36.4203 78.4389C36.585 78.3499 36.7669 78.2836 36.9657 78.24C37.1665 78.1946 37.3682 78.1586 37.5708 78.1321C37.836 78.098 38.051 78.0724 38.2157 78.0554C38.3824 78.0364 38.5036 78.0052 38.5794 77.9616C38.657 77.918 38.6958 77.8423 38.6958 77.7343V77.7116C38.6958 77.4313 38.6191 77.2135 38.4657 77.0582C38.3142 76.9029 38.0841 76.8252 37.7754 76.8252C37.4553 76.8252 37.2044 76.8953 37.0225 77.0355C36.8407 77.1756 36.7129 77.3252 36.639 77.4843L36.0027 77.2571C36.1163 76.9919 36.2678 76.7855 36.4572 76.6377C36.6485 76.4881 36.8568 76.384 37.0822 76.3252C37.3095 76.2646 37.533 76.2343 37.7527 76.2343C37.8928 76.2343 38.0538 76.2514 38.2356 76.2855C38.4193 76.3177 38.5964 76.3849 38.7669 76.4872C38.9392 76.5894 39.0822 76.7438 39.1958 76.9502C39.3095 77.1567 39.3663 77.4332 39.3663 77.7798V80.6548H38.6958V80.0639H38.6617C38.6163 80.1586 38.5405 80.2599 38.4345 80.3679C38.3284 80.4758 38.1873 80.5677 38.0112 80.6434C37.835 80.7192 37.6201 80.7571 37.3663 80.7571ZM37.4686 80.1548C37.7337 80.1548 37.9572 80.1027 38.139 79.9985C38.3227 79.8944 38.461 79.7599 38.5538 79.5951C38.6485 79.4304 38.6958 79.2571 38.6958 79.0752V78.4616C38.6674 78.4957 38.6049 78.5269 38.5083 78.5554C38.4136 78.5819 38.3038 78.6055 38.1788 78.6264C38.0557 78.6453 37.9354 78.6624 37.818 78.6775C37.7025 78.6908 37.6087 78.7021 37.5367 78.7116C37.3625 78.7343 37.1996 78.7713 37.0481 78.8224C36.8985 78.8716 36.7773 78.9465 36.6845 79.0468C36.5936 79.1453 36.5481 79.2798 36.5481 79.4502C36.5481 79.6832 36.6343 79.8593 36.8066 79.9786C36.9809 80.0961 37.2015 80.1548 37.4686 80.1548ZM40.59 82.2911V76.2911H41.2377V76.9843H41.3173C41.3665 76.9086 41.4347 76.812 41.5218 76.6946C41.6108 76.5752 41.7377 76.4692 41.9025 76.3764C42.0692 76.2817 42.2946 76.2343 42.5787 76.2343C42.9461 76.2343 43.2699 76.3262 43.5502 76.5099C43.8305 76.6936 44.0493 76.954 44.2065 77.2911C44.3637 77.6283 44.4423 78.026 44.4423 78.4843C44.4423 78.9465 44.3637 79.347 44.2065 79.686C44.0493 80.0232 43.8315 80.2845 43.5531 80.4701C43.2747 80.6538 42.9537 80.7457 42.59 80.7457C42.3097 80.7457 42.0853 80.6993 41.9167 80.6065C41.7482 80.5118 41.6184 80.4048 41.5275 80.2855C41.4366 80.1643 41.3665 80.0639 41.3173 79.9843H41.2605V82.2911H40.59ZM41.2491 78.473C41.2491 78.8025 41.2974 79.0932 41.394 79.3451C41.4906 79.5951 41.6317 79.7911 41.8173 79.9332C42.0029 80.0733 42.2302 80.1434 42.4991 80.1434C42.7794 80.1434 43.0133 80.0696 43.2008 79.9218C43.3902 79.7722 43.5323 79.5715 43.6269 79.3196C43.7235 79.0658 43.7718 78.7836 43.7718 78.473C43.7718 78.1661 43.7245 77.8896 43.6298 77.6434C43.537 77.3953 43.3959 77.1993 43.2065 77.0554C43.019 76.9095 42.7832 76.8366 42.4991 76.8366C42.2264 76.8366 41.9972 76.9057 41.8116 77.044C41.626 77.1804 41.4858 77.3716 41.3912 77.6179C41.2965 77.8622 41.2491 78.1472 41.2491 78.473ZM45.465 80.6548V76.2911H46.1127V76.9502H46.1582C46.2377 76.7343 46.3817 76.5591 46.59 76.4247C46.7983 76.2902 47.0332 76.223 47.2946 76.223C47.3438 76.223 47.4054 76.2239 47.4792 76.2258C47.5531 76.2277 47.609 76.2305 47.6468 76.2343V76.9161C47.6241 76.9105 47.572 76.9019 47.4906 76.8906C47.411 76.8773 47.3268 76.8707 47.2377 76.8707C47.0256 76.8707 46.8362 76.9152 46.6696 77.0042C46.5048 77.0913 46.3741 77.2126 46.2775 77.3679C46.1828 77.5213 46.1355 77.6965 46.1355 77.8934V80.6548H45.465ZM50.1383 80.7457C49.7179 80.7457 49.3552 80.6529 49.0502 80.4673C48.7472 80.2798 48.5133 80.0184 48.3485 79.6832C48.1857 79.3461 48.1042 78.954 48.1042 78.5071C48.1042 78.0601 48.1857 77.6661 48.3485 77.3252C48.5133 76.9824 48.7425 76.7154 49.036 76.5241C49.3315 76.3309 49.6762 76.2343 50.0701 76.2343C50.2974 76.2343 50.5218 76.2722 50.7434 76.348C50.965 76.4237 51.1667 76.5468 51.3485 76.7173C51.5304 76.8858 51.6752 77.1093 51.7832 77.3877C51.8912 77.6661 51.9451 78.009 51.9451 78.4161V78.7002H48.5815V78.1207H51.2633C51.2633 77.8745 51.2141 77.6548 51.1156 77.4616C51.019 77.2684 50.8807 77.116 50.7008 77.0042C50.5228 76.8925 50.3126 76.8366 50.0701 76.8366C49.8031 76.8366 49.572 76.9029 49.3769 77.0355C49.1838 77.1661 49.0351 77.3366 48.9309 77.5468C48.8268 77.7571 48.7747 77.9824 48.7747 78.223V78.6093C48.7747 78.9389 48.8315 79.2182 48.9451 79.4474C49.0607 79.6747 49.2207 79.848 49.4252 79.9673C49.6298 80.0847 49.8675 80.1434 50.1383 80.1434C50.3144 80.1434 50.4735 80.1188 50.6156 80.0696C50.7595 80.0184 50.8836 79.9427 50.9877 79.8423C51.0919 79.74 51.1724 79.6131 51.2292 79.4616L51.8769 79.6434C51.8088 79.8631 51.6942 80.0563 51.5332 80.223C51.3722 80.3877 51.1733 80.5165 50.9366 80.6093C50.6999 80.7002 50.4338 80.7457 50.1383 80.7457ZM49.7519 75.7002L48.8656 74.3821H49.6497L50.3429 75.7002H49.7519ZM56.0559 77.2684L55.4537 77.4389C55.4158 77.3385 55.3599 77.241 55.286 77.1463C55.2141 77.0497 55.1156 76.9701 54.9906 76.9076C54.8656 76.8451 54.7055 76.8139 54.5105 76.8139C54.2434 76.8139 54.0209 76.8754 53.8429 76.9985C53.6667 77.1197 53.5787 77.2741 53.5787 77.4616C53.5787 77.6283 53.6393 77.7599 53.7605 77.8565C53.8817 77.9531 54.0711 78.0336 54.3287 78.098L54.9764 78.2571C55.3665 78.3518 55.6573 78.4966 55.8485 78.6917C56.0398 78.8849 56.1355 79.134 56.1355 79.4389C56.1355 79.6889 56.0635 79.9124 55.9196 80.1093C55.7775 80.3063 55.5787 80.4616 55.323 80.5752C55.0673 80.6889 54.7699 80.7457 54.4309 80.7457C53.9858 80.7457 53.6175 80.6491 53.3258 80.4559C53.0341 80.2627 52.8495 79.9805 52.7718 79.6093L53.4082 79.4502C53.4688 79.6851 53.5834 79.8612 53.7519 79.9786C53.9224 80.0961 54.1449 80.1548 54.4196 80.1548C54.7321 80.1548 54.9802 80.0885 55.1639 79.9559C55.3495 79.8215 55.4423 79.6605 55.4423 79.473C55.4423 79.3215 55.3893 79.1946 55.2832 79.0923C55.1771 78.9881 55.0143 78.9105 54.7946 78.8593L54.0673 78.6889C53.6677 78.5942 53.3741 78.4474 53.1866 78.2485C53.001 78.0478 52.9082 77.7968 52.9082 77.4957C52.9082 77.2495 52.9773 77.0317 53.1156 76.8423C53.2557 76.6529 53.4461 76.5042 53.6866 76.3963C53.929 76.2883 54.2037 76.2343 54.5105 76.2343C54.9423 76.2343 55.2813 76.329 55.5275 76.5184C55.7756 76.7078 55.9518 76.9578 56.0559 77.2684ZM62.4856 77.2684L61.8833 77.4389C61.8455 77.3385 61.7896 77.241 61.7157 77.1463C61.6438 77.0497 61.5453 76.9701 61.4203 76.9076C61.2953 76.8451 61.1352 76.8139 60.9402 76.8139C60.6731 76.8139 60.4506 76.8754 60.2725 76.9985C60.0964 77.1197 60.0083 77.2741 60.0083 77.4616C60.0083 77.6283 60.0689 77.7599 60.1902 77.8565C60.3114 77.9531 60.5008 78.0336 60.7583 78.098L61.4061 78.2571C61.7962 78.3518 62.0869 78.4966 62.2782 78.6917C62.4695 78.8849 62.5652 79.134 62.5652 79.4389C62.5652 79.6889 62.4932 79.9124 62.3492 80.1093C62.2072 80.3063 62.0083 80.4616 61.7527 80.5752C61.497 80.6889 61.1996 80.7457 60.8606 80.7457C60.4155 80.7457 60.0472 80.6491 59.7555 80.4559C59.4638 80.2627 59.2792 79.9805 59.2015 79.6093L59.8379 79.4502C59.8985 79.6851 60.0131 79.8612 60.1816 79.9786C60.3521 80.0961 60.5746 80.1548 60.8492 80.1548C61.1617 80.1548 61.4099 80.0885 61.5936 79.9559C61.7792 79.8215 61.872 79.6605 61.872 79.473C61.872 79.3215 61.8189 79.1946 61.7129 79.0923C61.6068 78.9881 61.4439 78.9105 61.2242 78.8593L60.497 78.6889C60.0974 78.5942 59.8038 78.4474 59.6163 78.2485C59.4307 78.0478 59.3379 77.7968 59.3379 77.4957C59.3379 77.2495 59.407 77.0317 59.5453 76.8423C59.6854 76.6529 59.8758 76.5042 60.1163 76.3963C60.3587 76.2883 60.6333 76.2343 60.9402 76.2343C61.372 76.2343 61.711 76.329 61.9572 76.5184C62.2053 76.7078 62.3814 76.9578 62.4856 77.2684ZM65.4039 80.7457C64.9835 80.7457 64.6208 80.6529 64.3159 80.4673C64.0128 80.2798 63.7789 80.0184 63.6142 79.6832C63.4513 79.3461 63.3698 78.954 63.3698 78.5071C63.3698 78.0601 63.4513 77.6661 63.6142 77.3252C63.7789 76.9824 64.0081 76.7154 64.3017 76.5241C64.5971 76.3309 64.9418 76.2343 65.3358 76.2343C65.563 76.2343 65.7875 76.2722 66.009 76.348C66.2306 76.4237 66.4323 76.5468 66.6142 76.7173C66.796 76.8858 66.9409 77.1093 67.0488 77.3877C67.1568 77.6661 67.2108 78.009 67.2108 78.4161V78.7002H63.8471V78.1207H66.5289C66.5289 77.8745 66.4797 77.6548 66.3812 77.4616C66.2846 77.2684 66.1464 77.116 65.9664 77.0042C65.7884 76.8925 65.5782 76.8366 65.3358 76.8366C65.0687 76.8366 64.8376 76.9029 64.6426 77.0355C64.4494 77.1661 64.3007 77.3366 64.1965 77.5468C64.0924 77.7571 64.0403 77.9824 64.0403 78.223V78.6093C64.0403 78.9389 64.0971 79.2182 64.2108 79.4474C64.3263 79.6747 64.4863 79.848 64.6909 79.9673C64.8954 80.0847 65.1331 80.1434 65.4039 80.1434C65.5801 80.1434 65.7392 80.1188 65.8812 80.0696C66.0251 80.0184 66.1492 79.9427 66.2534 79.8423C66.3575 79.74 66.438 79.6131 66.4948 79.4616L67.1426 79.6434C67.0744 79.8631 66.9598 80.0563 66.7988 80.223C66.6378 80.3877 66.439 80.5165 66.2022 80.6093C65.9655 80.7002 65.6994 80.7457 65.4039 80.7457ZM68.2306 80.6548V76.2911H68.8784V76.973H68.9352C69.0261 76.74 69.1729 76.5591 69.3755 76.4304C69.5782 76.2997 69.8215 76.2343 70.1056 76.2343C70.3935 76.2343 70.6331 76.2997 70.8244 76.4304C71.0176 76.5591 71.1681 76.74 71.2761 76.973H71.3215C71.4333 76.7476 71.6009 76.5686 71.8244 76.436C72.0479 76.3016 72.3159 76.2343 72.6284 76.2343C73.0185 76.2343 73.3376 76.3565 73.5858 76.6008C73.8339 76.8432 73.9579 77.2211 73.9579 77.7343V80.6548H73.2875V77.7343C73.2875 77.4124 73.1994 77.1822 73.0233 77.044C72.8471 76.9057 72.6397 76.8366 72.4011 76.8366C72.0943 76.8366 71.8566 76.9294 71.688 77.115C71.5195 77.2987 71.4352 77.5317 71.4352 77.8139V80.6548H70.7534V77.6661C70.7534 77.418 70.6729 77.2182 70.5119 77.0667C70.3509 76.9133 70.1435 76.8366 69.8897 76.8366C69.7155 76.8366 69.5526 76.883 69.4011 76.9758C69.2515 77.0686 69.1303 77.1974 69.0375 77.3622C68.9465 77.5251 68.9011 77.7135 68.9011 77.9275V80.6548H68.2306ZM76.4679 80.7571C76.1913 80.7571 75.9404 80.705 75.715 80.6008C75.4896 80.4947 75.3107 80.3423 75.1781 80.1434C75.0455 79.9427 74.9792 79.7002 74.9792 79.4161C74.9792 79.1661 75.0285 78.9635 75.1269 78.8082C75.2254 78.651 75.3571 78.5279 75.5218 78.4389C75.6866 78.3499 75.8684 78.2836 76.0673 78.24C76.268 78.1946 76.4698 78.1586 76.6724 78.1321C76.9376 78.098 77.1525 78.0724 77.3173 78.0554C77.484 78.0364 77.6052 78.0052 77.6809 77.9616C77.7586 77.918 77.7974 77.8423 77.7974 77.7343V77.7116C77.7974 77.4313 77.7207 77.2135 77.5673 77.0582C77.4158 76.9029 77.1857 76.8252 76.8769 76.8252C76.5569 76.8252 76.3059 76.8953 76.1241 77.0355C75.9423 77.1756 75.8144 77.3252 75.7406 77.4843L75.1042 77.2571C75.2179 76.9919 75.3694 76.7855 75.5588 76.6377C75.7501 76.4881 75.9584 76.384 76.1838 76.3252C76.411 76.2646 76.6345 76.2343 76.8542 76.2343C76.9944 76.2343 77.1554 76.2514 77.3372 76.2855C77.5209 76.3177 77.698 76.3849 77.8684 76.4872C78.0408 76.5894 78.1838 76.7438 78.2974 76.9502C78.411 77.1567 78.4679 77.4332 78.4679 77.7798V80.6548H77.7974V80.0639H77.7633C77.7179 80.1586 77.6421 80.2599 77.536 80.3679C77.43 80.4758 77.2889 80.5677 77.1127 80.6434C76.9366 80.7192 76.7216 80.7571 76.4679 80.7571ZM76.5701 80.1548C76.8353 80.1548 77.0588 80.1027 77.2406 79.9985C77.4243 79.8944 77.5626 79.7599 77.6554 79.5951C77.7501 79.4304 77.7974 79.2571 77.7974 79.0752V78.4616C77.769 78.4957 77.7065 78.5269 77.6099 78.5554C77.5152 78.5819 77.4054 78.6055 77.2804 78.6264C77.1573 78.6453 77.037 78.6624 76.9196 78.6775C76.804 78.6908 76.7103 78.7021 76.6383 78.7116C76.4641 78.7343 76.3012 78.7713 76.1497 78.8224C76.0001 78.8716 75.8788 78.9465 75.786 79.0468C75.6951 79.1453 75.6497 79.2798 75.6497 79.4502C75.6497 79.6832 75.7358 79.8593 75.9082 79.9786C76.0824 80.0961 76.3031 80.1548 76.5701 80.1548ZM79.6916 80.6548V76.2911H80.362V80.6548H79.6916ZM80.0325 75.5639C79.9018 75.5639 79.7891 75.5194 79.6944 75.4304C79.6016 75.3413 79.5552 75.2343 79.5552 75.1093C79.5552 74.9843 79.6016 74.8773 79.6944 74.7883C79.7891 74.6993 79.9018 74.6548 80.0325 74.6548C80.1632 74.6548 80.2749 74.6993 80.3677 74.7883C80.4624 74.8773 80.5098 74.9843 80.5098 75.1093C80.5098 75.2343 80.4624 75.3413 80.3677 75.4304C80.2749 75.5194 80.1632 75.5639 80.0325 75.5639ZM82.2605 78.0298V80.6548H81.59V76.2911H82.2377V76.973H82.2946C82.3968 76.7514 82.5521 76.5733 82.7605 76.4389C82.9688 76.3025 83.2377 76.2343 83.5673 76.2343C83.8627 76.2343 84.1213 76.2949 84.3429 76.4161C84.5644 76.5355 84.7368 76.7173 84.8599 76.9616C84.983 77.204 85.0446 77.5108 85.0446 77.8821V80.6548H84.3741V77.9275C84.3741 77.5847 84.2851 77.3177 84.1071 77.1264C83.929 76.9332 83.6847 76.8366 83.3741 76.8366C83.1601 76.8366 82.9688 76.883 82.8002 76.9758C82.6336 77.0686 82.5019 77.204 82.4054 77.3821C82.3088 77.5601 82.2605 77.776 82.2605 78.0298ZM88.0992 80.7457C87.6788 80.7457 87.3161 80.6529 87.0112 80.4673C86.7082 80.2798 86.4742 80.0184 86.3095 79.6832C86.1466 79.3461 86.0652 78.954 86.0652 78.5071C86.0652 78.0601 86.1466 77.6661 86.3095 77.3252C86.4742 76.9824 86.7034 76.7154 86.997 76.5241C87.2924 76.3309 87.6371 76.2343 88.0311 76.2343C88.2583 76.2343 88.4828 76.2722 88.7044 76.348C88.926 76.4237 89.1277 76.5468 89.3095 76.7173C89.4913 76.8858 89.6362 77.1093 89.7441 77.3877C89.8521 77.6661 89.9061 78.009 89.9061 78.4161V78.7002H86.5424V78.1207H89.2242C89.2242 77.8745 89.175 77.6548 89.0765 77.4616C88.9799 77.2684 88.8417 77.116 88.6617 77.0042C88.4837 76.8925 88.2735 76.8366 88.0311 76.8366C87.764 76.8366 87.533 76.9029 87.3379 77.0355C87.1447 77.1661 86.996 77.3366 86.8919 77.5468C86.7877 77.7571 86.7356 77.9824 86.7356 78.223V78.6093C86.7356 78.9389 86.7924 79.2182 86.9061 79.4474C87.0216 79.6747 87.1816 79.848 87.3862 79.9673C87.5907 80.0847 87.8284 80.1434 88.0992 80.1434C88.2754 80.1434 88.4345 80.1188 88.5765 80.0696C88.7205 80.0184 88.8445 79.9427 88.9487 79.8423C89.0528 79.74 89.1333 79.6131 89.1902 79.4616L89.8379 79.6434C89.7697 79.8631 89.6551 80.0563 89.4941 80.223C89.3332 80.3877 89.1343 80.5165 88.8975 80.6093C88.6608 80.7002 88.3947 80.7457 88.0992 80.7457ZM91.926 79.8593L91.8805 80.1661C91.8483 80.3821 91.7991 80.6131 91.7328 80.8593C91.6684 81.1055 91.6011 81.3376 91.5311 81.5554C91.461 81.7732 91.4032 81.9465 91.3578 82.0752H90.8464C90.871 81.954 90.9032 81.794 90.943 81.5951C90.9828 81.3963 91.0225 81.1737 91.0623 80.9275C91.104 80.6832 91.1381 80.4332 91.1646 80.1775L91.1987 79.8593H91.926Z" fill="white"/>
<path d="M15.1879 84.1262L16.9151 89.0239H16.9833L18.7106 84.1262H19.4492L17.3129 89.9443H16.5856L14.4492 84.1262H15.1879ZM20.2646 89.9443V85.5807H20.935V89.9443H20.2646ZM20.6055 84.8534C20.4748 84.8534 20.3621 84.8089 20.2674 84.7199C20.1746 84.6309 20.1282 84.5239 20.1282 84.3989C20.1282 84.2739 20.1746 84.1669 20.2674 84.0779C20.3621 83.9888 20.4748 83.9443 20.6055 83.9443C20.7362 83.9443 20.8479 83.9888 20.9407 84.0779C21.0354 84.1669 21.0828 84.2739 21.0828 84.3989C21.0828 84.5239 21.0354 84.6309 20.9407 84.7199C20.8479 84.8089 20.7362 84.8534 20.6055 84.8534ZM25.7312 85.5807L24.1176 89.9443H23.4357L21.8221 85.5807H22.5494L23.7539 89.058H23.7994L25.0039 85.5807H25.7312ZM28.2894 90.0352C27.869 90.0352 27.5063 89.9424 27.2014 89.7568C26.8983 89.5693 26.6644 89.308 26.4997 88.9727C26.3368 88.6356 26.2553 88.2436 26.2553 87.7966C26.2553 87.3496 26.3368 86.9557 26.4997 86.6148C26.6644 86.272 26.8936 86.0049 27.1872 85.8137C27.4826 85.6205 27.8273 85.5239 28.2213 85.5239C28.4485 85.5239 28.673 85.5618 28.8945 85.6375C29.1161 85.7133 29.3178 85.8364 29.4997 86.0068C29.6815 86.1754 29.8264 86.3989 29.9343 86.6773C30.0423 86.9557 30.0963 87.2985 30.0963 87.7057V87.9898H26.7326V87.4102H29.4144C29.4144 87.164 29.3652 86.9443 29.2667 86.7512C29.1701 86.558 29.0319 86.4055 28.8519 86.2938C28.6739 86.182 28.4637 86.1262 28.2213 86.1262C27.9542 86.1262 27.7231 86.1924 27.5281 86.325C27.3349 86.4557 27.1862 86.6262 27.082 86.8364C26.9779 87.0466 26.9258 87.272 26.9258 87.5125V87.8989C26.9258 88.2284 26.9826 88.5078 27.0963 88.7369C27.2118 88.9642 27.3718 89.1375 27.5764 89.2568C27.7809 89.3743 28.0186 89.433 28.2894 89.433C28.4656 89.433 28.6247 89.4084 28.7667 89.3591C28.9106 89.308 29.0347 89.2322 29.1389 89.1318C29.243 89.0296 29.3235 88.9027 29.3803 88.7512L30.0281 88.933C29.9599 89.1527 29.8453 89.3459 29.6843 89.5125C29.5233 89.6773 29.3245 89.8061 29.0877 89.8989C28.851 89.9898 28.5849 90.0352 28.2894 90.0352ZM30.9911 89.9443V89.433L33.4684 86.2512V86.2057H31.0707V85.5807H34.332V86.1148L31.923 89.2739V89.3193H34.4116V89.9443H30.9911ZM38.2852 84.1262V84.6375C38.2852 84.7928 38.2568 84.9585 38.1999 85.1347C38.145 85.3089 38.0636 85.4784 37.9556 85.6432C37.8496 85.8061 37.7208 85.9481 37.5693 86.0693L37.2056 85.7739C37.3249 85.6034 37.4282 85.4263 37.5153 85.2426C37.6043 85.057 37.6488 84.8591 37.6488 84.6489V84.1262H38.2852ZM40.0018 90.0466C39.7253 90.0466 39.4743 89.9945 39.249 89.8904C39.0236 89.7843 38.8446 89.6318 38.712 89.433C38.5794 89.2322 38.5132 88.9898 38.5132 88.7057C38.5132 88.4557 38.5624 88.253 38.6609 88.0977C38.7594 87.9405 38.891 87.8174 39.0558 87.7284C39.2205 87.6394 39.4024 87.5731 39.6012 87.5296C39.802 87.4841 40.0037 87.4481 40.2063 87.4216C40.4715 87.3875 40.6865 87.3619 40.8512 87.3449C41.0179 87.326 41.1391 87.2947 41.2149 87.2512C41.2925 87.2076 41.3313 87.1318 41.3313 87.0239V87.0012C41.3313 86.7209 41.2546 86.503 41.1012 86.3477C40.9497 86.1924 40.7196 86.1148 40.4109 86.1148C40.0908 86.1148 39.8399 86.1849 39.658 86.325C39.4762 86.4652 39.3484 86.6148 39.2745 86.7739L38.6382 86.5466C38.7518 86.2815 38.9033 86.075 39.0927 85.9273C39.284 85.7777 39.4923 85.6735 39.7177 85.6148C39.945 85.5542 40.1685 85.5239 40.3882 85.5239C40.5283 85.5239 40.6893 85.5409 40.8711 85.575C41.0548 85.6072 41.2319 85.6744 41.4024 85.7767C41.5747 85.879 41.7177 86.0334 41.8313 86.2398C41.945 86.4462 42.0018 86.7227 42.0018 87.0693V89.9443H41.3313V89.3534H41.2972C41.2518 89.4481 41.176 89.5494 41.07 89.6574C40.9639 89.7654 40.8228 89.8572 40.6467 89.933C40.4705 90.0087 40.2556 90.0466 40.0018 90.0466ZM40.1041 89.4443C40.3692 89.4443 40.5927 89.3923 40.7745 89.2881C40.9582 89.1839 41.0965 89.0494 41.1893 88.8847C41.284 88.7199 41.3313 88.5466 41.3313 88.3648V87.7512C41.3029 87.7852 41.2404 87.8165 41.1438 87.8449C41.0491 87.8714 40.9393 87.8951 40.8143 87.9159C40.6912 87.9349 40.5709 87.9519 40.4535 87.9671C40.338 87.9803 40.2442 87.9917 40.1722 88.0012C39.998 88.0239 39.8351 88.0608 39.6836 88.1119C39.534 88.1612 39.4128 88.236 39.32 88.3364C39.2291 88.4349 39.1836 88.5693 39.1836 88.7398C39.1836 88.9727 39.2698 89.1489 39.4421 89.2682C39.6164 89.3856 39.837 89.4443 40.1041 89.4443ZM46.6374 85.5807L45.0238 89.9443H44.342L42.7284 85.5807H43.4556L44.6602 89.058H44.7056L45.9102 85.5807H46.6374ZM49.1957 90.0352C48.7752 90.0352 48.4125 89.9424 48.1076 89.7568C47.8046 89.5693 47.5707 89.308 47.4059 88.9727C47.243 88.6356 47.1616 88.2436 47.1616 87.7966C47.1616 87.3496 47.243 86.9557 47.4059 86.6148C47.5707 86.272 47.7999 86.0049 48.0934 85.8137C48.3889 85.6205 48.7336 85.5239 49.1275 85.5239C49.3548 85.5239 49.5792 85.5618 49.8008 85.6375C50.0224 85.7133 50.2241 85.8364 50.4059 86.0068C50.5877 86.1754 50.7326 86.3989 50.8406 86.6773C50.9485 86.9557 51.0025 87.2985 51.0025 87.7057V87.9898H47.6389V87.4102H50.3207C50.3207 87.164 50.2714 86.9443 50.173 86.7512C50.0764 86.558 49.9381 86.4055 49.7582 86.2938C49.5802 86.182 49.3699 86.1262 49.1275 86.1262C48.8605 86.1262 48.6294 86.1924 48.4343 86.325C48.2411 86.4557 48.0925 86.6262 47.9883 86.8364C47.8841 87.0466 47.832 87.272 47.832 87.5125V87.8989C47.832 88.2284 47.8889 88.5078 48.0025 88.7369C48.118 88.9642 48.2781 89.1375 48.4826 89.2568C48.6872 89.3743 48.9249 89.433 49.1957 89.433C49.3718 89.433 49.5309 89.4084 49.673 89.3591C49.8169 89.308 49.9409 89.2322 50.0451 89.1318C50.1493 89.0296 50.2298 88.9027 50.2866 88.7512L50.9343 88.933C50.8661 89.1527 50.7516 89.3459 50.5906 89.5125C50.4296 89.6773 50.2307 89.8061 49.994 89.8989C49.7572 89.9898 49.4911 90.0352 49.1957 90.0352ZM52.6928 87.3193V89.9443H52.0224V85.5807H52.6701V86.2625H52.7269C52.8292 86.0409 52.9845 85.8629 53.1928 85.7284C53.4012 85.5921 53.6701 85.5239 53.9997 85.5239C54.2951 85.5239 54.5536 85.5845 54.7752 85.7057C54.9968 85.825 55.1692 86.0068 55.2923 86.2512C55.4154 86.4936 55.4769 86.8004 55.4769 87.1716V89.9443H54.8065V87.2171C54.8065 86.8743 54.7175 86.6072 54.5394 86.4159C54.3614 86.2227 54.1171 86.1262 53.8065 86.1262C53.5925 86.1262 53.4012 86.1726 53.2326 86.2654C53.0659 86.3582 52.9343 86.4936 52.8377 86.6716C52.7411 86.8496 52.6928 87.0655 52.6928 87.3193ZM58.5998 85.5807V86.1489H56.3384V85.5807H58.5998ZM56.9975 84.5352H57.668V88.6943C57.668 88.8837 57.6954 89.0258 57.7504 89.1205C57.8072 89.2133 57.8792 89.2758 57.9663 89.308C58.0553 89.3383 58.149 89.3534 58.2475 89.3534C58.3214 89.3534 58.382 89.3496 58.4293 89.3421C58.4767 89.3326 58.5146 89.325 58.543 89.3193L58.6793 89.9216C58.6339 89.9387 58.5704 89.9557 58.489 89.9727C58.4076 89.9917 58.3043 90.0012 58.1793 90.0012C57.99 90.0012 57.8043 89.9604 57.6225 89.879C57.4426 89.7976 57.293 89.6735 57.1737 89.5068C57.0562 89.3402 56.9975 89.1299 56.9975 88.8762V84.5352ZM62.3583 88.1602V85.5807H63.0288V89.9443H62.3583V89.2057H62.3129C62.2106 89.4273 62.0515 89.6157 61.8356 89.771C61.6197 89.9244 61.347 90.0012 61.0174 90.0012C60.7447 90.0012 60.5023 89.9415 60.2901 89.8222C60.078 89.701 59.9114 89.5191 59.7901 89.2767C59.6689 89.0324 59.6083 88.7246 59.6083 88.3534V85.5807H60.2788V88.308C60.2788 88.6262 60.3678 88.8799 60.5458 89.0693C60.7258 89.2587 60.9549 89.3534 61.2333 89.3534C61.4 89.3534 61.5695 89.3108 61.7418 89.2256C61.9161 89.1404 62.0619 89.0097 62.1793 88.8335C62.2987 88.6574 62.3583 88.433 62.3583 88.1602ZM64.2568 89.9443V85.5807H64.9045V86.2398H64.9499C65.0295 86.0239 65.1734 85.8487 65.3818 85.7142C65.5901 85.5798 65.8249 85.5125 66.0863 85.5125C66.1356 85.5125 66.1971 85.5135 66.271 85.5154C66.3448 85.5173 66.4007 85.5201 66.4386 85.5239V86.2057C66.4159 86.2 66.3638 86.1915 66.2823 86.1801C66.2028 86.1669 66.1185 86.1602 66.0295 86.1602C65.8174 86.1602 65.628 86.2048 65.4613 86.2938C65.2965 86.3809 65.1659 86.5021 65.0693 86.6574C64.9746 86.8108 64.9272 86.986 64.9272 87.183V89.9443H64.2568ZM68.9301 90.0352C68.5096 90.0352 68.1469 89.9424 67.842 89.7568C67.539 89.5693 67.3051 89.308 67.1403 88.9727C66.9774 88.6356 66.896 88.2436 66.896 87.7966C66.896 87.3496 66.9774 86.9557 67.1403 86.6148C67.3051 86.272 67.5342 86.0049 67.8278 85.8137C68.1232 85.6205 68.4679 85.5239 68.8619 85.5239C69.0892 85.5239 69.3136 85.5618 69.5352 85.6375C69.7568 85.7133 69.9585 85.8364 70.1403 86.0068C70.3221 86.1754 70.467 86.3989 70.5749 86.6773C70.6829 86.9557 70.7369 87.2985 70.7369 87.7057V87.9898H67.3732V87.4102H70.0551C70.0551 87.164 70.0058 86.9443 69.9073 86.7512C69.8107 86.558 69.6725 86.4055 69.4926 86.2938C69.3145 86.182 69.1043 86.1262 68.8619 86.1262C68.5948 86.1262 68.3638 86.1924 68.1687 86.325C67.9755 86.4557 67.8268 86.6262 67.7227 86.8364C67.6185 87.0466 67.5664 87.272 67.5664 87.5125V87.8989C67.5664 88.2284 67.6232 88.5078 67.7369 88.7369C67.8524 88.9642 68.0124 89.1375 68.217 89.2568C68.4215 89.3743 68.6592 89.433 68.9301 89.433C69.1062 89.433 69.2653 89.4084 69.4073 89.3591C69.5513 89.308 69.6753 89.2322 69.7795 89.1318C69.8837 89.0296 69.9642 88.9027 70.021 88.7512L70.6687 88.933C70.6005 89.1527 70.4859 89.3459 70.3249 89.5125C70.164 89.6773 69.9651 89.8061 69.7284 89.8989C69.4916 89.9898 69.2255 90.0352 68.9301 90.0352ZM72.6431 84.1262L72.5863 88.308H71.9272L71.8704 84.1262H72.6431ZM72.2568 89.9898C72.1166 89.9898 71.9963 89.9396 71.896 89.8392C71.7956 89.7388 71.7454 89.6186 71.7454 89.4784C71.7454 89.3383 71.7956 89.218 71.896 89.1176C71.9963 89.0173 72.1166 88.9671 72.2568 88.9671C72.3969 88.9671 72.5172 89.0173 72.6176 89.1176C72.7179 89.218 72.7681 89.3383 72.7681 89.4784C72.7681 89.5712 72.7445 89.6565 72.6971 89.7341C72.6517 89.8118 72.5901 89.8743 72.5124 89.9216C72.4367 89.9671 72.3515 89.9898 72.2568 89.9898Z" fill="white"/>
<path d="M90.9075 2.88239V34.366C90.9075 35.0925 90.6208 35.7893 90.1105 36.303C89.6002 36.8167 88.9081 37.1053 88.1865 37.1053H62.2189C61.4986 37.1074 60.8085 37.3969 60.2999 37.9104C59.7913 38.4239 59.5057 39.1195 59.5057 39.8446V52.6228C59.5057 53.3493 59.7924 54.0461 60.3027 54.5598C60.813 55.0735 61.5051 55.3621 62.2268 55.3621H88.1943C88.916 55.3621 89.6081 55.6507 90.1184 56.1645C90.6287 56.6782 90.9153 57.3749 90.9153 58.1014V61.9755C90.9153 62.702 90.6287 63.3988 90.1184 63.9125C89.6081 64.4262 88.916 64.7148 88.1943 64.7148H52.9287C52.207 64.7148 51.5149 64.4262 51.0046 63.9125C50.4943 63.3988 50.2076 62.702 50.2076 61.9755V30.4919C50.2076 29.7654 50.4943 29.0687 51.0046 28.5549C51.5149 28.0412 52.207 27.7526 52.9287 27.7526H78.9041C79.6258 27.7526 80.3179 27.464 80.8281 26.9503C81.3384 26.4366 81.6251 25.7398 81.6251 25.0133V12.2351C81.6251 11.5086 81.3384 10.8118 80.8281 10.2981C80.3179 9.7844 79.6258 9.4958 78.9041 9.4958H12.0112C11.6538 9.49545 11.2998 9.56607 10.9696 9.70361C10.6393 9.84115 10.3392 10.0429 10.0864 10.2973C9.8337 10.5518 9.63328 10.8539 9.49666 11.1864C9.36004 11.5189 9.28989 11.8753 9.29024 12.2351V25.0133C9.29024 25.7398 9.57691 26.4366 10.0872 26.9503C10.5975 27.464 11.2896 27.7526 12.0112 27.7526H37.9788C38.336 27.7526 38.6897 27.8235 39.0197 27.9612C39.3497 28.0989 39.6495 28.3007 39.9019 28.5551C40.1544 28.8095 40.3546 29.1115 40.491 29.4438C40.6275 29.7762 40.6976 30.1323 40.6972 30.4919V61.9755C40.6976 62.3351 40.6275 62.6913 40.491 63.0236C40.3546 63.356 40.1544 63.658 39.9019 63.9124C39.6495 64.1668 39.3497 64.3686 39.0197 64.5063C38.6897 64.644 38.336 64.7148 37.9788 64.7148H2.72101C1.99935 64.7148 1.30725 64.4262 0.796966 63.9125C0.286677 63.3988 0 62.702 0 61.9755L0 58.1014C0 57.3749 0.286677 56.6782 0.796966 56.1645C1.30725 55.6507 1.99935 55.3621 2.72101 55.3621H28.6886C29.0458 55.3621 29.3995 55.2913 29.7295 55.1536C30.0595 55.0159 30.3592 54.814 30.6117 54.5596C30.8642 54.3052 31.0643 54.0032 31.2008 53.6709C31.3373 53.3386 31.4073 52.9824 31.407 52.6228V39.8446C31.4073 39.485 31.3373 39.1289 31.2008 38.7965C31.0643 38.4642 30.8642 38.1622 30.6117 37.9078C30.3592 37.6534 30.0595 37.4516 29.7295 37.3139C29.3995 37.1762 29.0458 37.1053 28.6886 37.1053H2.72101C1.99935 37.1053 1.30725 36.8167 0.796966 36.303C0.286677 35.7893 0 35.0925 0 34.366V2.88239C0 2.15588 0.286677 1.45912 0.796966 0.945404C1.30725 0.431683 1.99935 0.143078 2.72101 0.143078H88.1786C88.5366 0.142036 88.8913 0.212122 89.2223 0.349319C89.5533 0.486516 89.8542 0.688127 90.1077 0.942599C90.3612 1.19707 90.5624 1.4994 90.6996 1.83227C90.8368 2.16513 90.9075 2.52199 90.9075 2.88239Z" fill="white"/>
</svg>
