<svg width="60" height="60" viewBox="0 0 60 60" fill="none" xmlns="http://www.w3.org/2000/svg">
<path d="M20 30C28.2725 30 35 23.2725 35 15C35 6.7275 28.2725 0 20 0C11.7275 0 5 6.7275 5 15C5 23.2725 11.7275 30 20 30ZM20 5C25.515 5 30 9.485 30 15C30 20.515 25.515 25 20 25C14.485 25 10 20.515 10 15C10 9.485 14.485 5 20 5ZM25 37.5C25 38.88 23.88 40 22.5 40C12.85 40 5 47.85 5 57.5C5 58.88 3.88 60 2.5 60C1.12 60 0 58.88 0 57.5C0 45.095 10.095 35 22.5 35C23.88 35 25 36.12 25 37.5ZM59.11 44.38L53.195 49.1975L55.6425 56.6475C55.9775 57.655 55.6375 58.765 54.795 59.4125C53.9525 60.06 52.7925 60.105 51.905 59.5275L45.02 55.045L38.25 59.575C37.83 59.8575 37.345 59.9975 36.86 59.9975C36.3325 59.9975 35.805 59.83 35.36 59.4975C34.51 58.8625 34.1575 57.7575 34.475 56.745L36.8275 49.205L30.885 44.37C30.085 43.6925 29.7925 42.5875 30.155 41.6025C30.5175 40.6175 31.4525 39.965 32.5 39.965H40.0025L42.6575 32.515C43.0225 31.5375 43.9575 30.8875 45 30.8875C46.0425 30.8875 46.98 31.5375 47.3425 32.515L49.9975 39.965H57.5C58.55 39.965 59.4875 40.6225 59.8475 41.6075C60.2075 42.5925 59.9125 43.7 59.11 44.3775V44.38Z" fill="white"/>
</svg>
