<svg width="20" height="20" viewBox="0 0 20 20" fill="none" xmlns="http://www.w3.org/2000/svg">
<path d="M9.99988 10C10.9888 10 11.9555 9.70676 12.7777 9.15735C13.6 8.60794 14.2408 7.82705 14.6193 6.91342C14.9977 5.99979 15.0967 4.99446 14.9038 4.02455C14.7109 3.05465 14.2347 2.16373 13.5354 1.46447C12.8361 0.765206 11.9452 0.289002 10.9753 0.0960758C10.0054 -0.0968503 9.00009 0.00216643 8.08646 0.380605C7.17283 0.759043 6.39194 1.39991 5.84253 2.22215C5.29312 3.0444 4.99988 4.0111 4.99988 5C5.0012 6.32568 5.52841 7.59668 6.46581 8.53407C7.4032 9.47147 8.6742 9.99868 9.99988 10ZM9.99988 1.66667C10.6591 1.66667 11.3036 1.86217 11.8518 2.22844C12.3999 2.59471 12.8272 3.1153 13.0795 3.72439C13.3318 4.33348 13.3978 5.0037 13.2692 5.6503C13.1405 6.29691 12.8231 6.89085 12.3569 7.35703C11.8907 7.8232 11.2968 8.14067 10.6502 8.26929C10.0036 8.3979 9.33335 8.33189 8.72427 8.0796C8.11518 7.82731 7.59458 7.40007 7.22831 6.8519C6.86204 6.30374 6.66654 5.65927 6.66654 5C6.66654 4.11595 7.01773 3.2681 7.64286 2.64298C8.26798 2.01786 9.11582 1.66667 9.99988 1.66667Z" fill="white"/>
<path d="M9.99988 11.6667C8.01143 11.6689 6.10506 12.4598 4.69901 13.8658C3.29297 15.2718 2.50208 17.1782 2.49988 19.1667C2.49988 19.3877 2.58768 19.5996 2.74396 19.7559C2.90024 19.9122 3.1122 20 3.33321 20C3.55422 20 3.76619 19.9122 3.92247 19.7559C4.07875 19.5996 4.16654 19.3877 4.16654 19.1667C4.16654 17.6196 4.78113 16.1358 5.87509 15.0419C6.96905 13.9479 8.45278 13.3333 9.99988 13.3333C11.547 13.3333 13.0307 13.9479 14.1247 15.0419C15.2186 16.1358 15.8332 17.6196 15.8332 19.1667C15.8332 19.3877 15.921 19.5996 16.0773 19.7559C16.2336 19.9122 16.4455 20 16.6665 20C16.8876 20 17.0995 19.9122 17.2558 19.7559C17.4121 19.5996 17.4999 19.3877 17.4999 19.1667C17.4977 17.1782 16.7068 15.2718 15.3007 13.8658C13.8947 12.4598 11.9883 11.6689 9.99988 11.6667Z" fill="white"/>
</svg>
