<svg width="62" height="67" viewBox="0 0 62 67" fill="none" xmlns="http://www.w3.org/2000/svg">
<g clip-path="url(#clip0_47_292)">
<path d="M23.994 36.4787C18.0084 37.7238 15.0427 44.9263 13.7562 49.4153C13.6349 49.8337 13.6065 50.2771 13.6733 50.7096C13.7401 51.1421 13.9003 51.5516 14.1408 51.9047C14.3813 52.2579 14.6954 52.5448 15.0577 52.7424C15.4199 52.9399 15.8201 53.0424 16.2259 53.0417H25.8333C26.9109 53.0419 27.9766 52.7993 28.9625 52.3293C29.9484 51.8594 30.8327 51.1724 31.5591 50.3123C32.2855 49.4522 32.8379 48.4379 33.1811 47.3341C33.5243 46.2303 33.6507 45.0613 33.5523 43.9017C33.415 42.7169 33.0528 41.5755 32.4884 40.549C31.924 39.5225 31.1695 38.6329 30.2722 37.9361C29.3749 37.2393 28.3542 36.7501 27.2738 36.4994C26.1935 36.2486 25.0769 36.2415 23.994 36.4787Z" fill="white"/>
<path d="M59.4167 25.0664C58.7315 25.0664 58.0744 25.3605 57.59 25.884C57.1055 26.4076 56.8333 27.1176 56.8333 27.858V41.875H46.5C44.4446 41.875 42.4733 42.7574 41.0199 44.328C39.5665 45.8986 38.75 48.0288 38.75 50.25V61.4167H12.9167C10.8612 61.4167 8.89 60.5343 7.43659 58.9637C5.98318 57.3931 5.16667 55.2629 5.16667 53.0417V13.9583C5.16667 11.7371 5.98318 9.60693 7.43659 8.03631C8.89 6.4657 10.8612 5.58333 12.9167 5.58333H41.4418C42.127 5.58333 42.7841 5.28921 43.2685 4.76567C43.753 4.24213 44.0252 3.53206 44.0252 2.79167C44.0252 2.05127 43.753 1.3412 43.2685 0.81766C42.7841 0.294121 42.127 0 41.4418 0L12.9167 0C9.49221 0.00443277 6.20919 1.47646 3.78773 4.0932C1.36628 6.70993 0.00410197 10.2577 0 13.9583L0 53.0417C0.00410197 56.7423 1.36628 60.2901 3.78773 62.9068C6.20919 65.5235 9.49221 66.9956 12.9167 67H42.2194C43.9161 67.0052 45.5968 66.6466 47.1643 65.9451C48.7319 65.2435 50.155 64.213 51.3515 62.913L58.218 55.4928C59.421 54.1998 60.3746 52.6618 61.0238 50.9679C61.673 49.274 62.0048 47.4577 62 45.6242V27.858C62 27.1176 61.7278 26.4076 61.2434 25.884C60.7589 25.3605 60.1018 25.0664 59.4167 25.0664ZM47.6987 58.9656C46.6569 60.0788 45.3463 60.8527 43.9167 61.1989V50.25C43.9167 49.5096 44.1888 48.7995 44.6733 48.276C45.1578 47.7525 45.8149 47.4583 46.5 47.4583H56.6396C56.3192 49.0032 55.603 50.4196 54.5729 51.5453L47.6987 58.9656Z" fill="white"/>
<path d="M37.6288 39.558C37.118 39.5578 36.6186 39.3941 36.1939 39.0873C35.7692 38.7805 35.4381 38.3446 35.2427 37.8345C35.0472 37.3245 34.996 36.7633 35.0957 36.2218C35.1953 35.6804 35.4412 35.183 35.8024 34.7926L56.0893 12.8696C56.3161 12.6251 56.496 12.3346 56.6187 12.0149C56.7415 11.6951 56.8046 11.3524 56.8046 11.0062C56.8046 10.66 56.7415 10.3172 56.6187 9.99748C56.496 9.67773 56.3161 9.38728 56.0893 9.14275C55.8587 8.88362 55.5793 8.68099 55.27 8.54855C54.9607 8.41611 54.6288 8.35694 54.2965 8.37504C53.9644 8.38285 53.6374 8.46474 53.336 8.61559C53.0346 8.76643 52.7653 8.98298 52.545 9.25163L32.9117 32.7212C32.4523 33.2705 31.8097 33.6002 31.1254 33.6376C30.4411 33.6751 29.7711 33.4172 29.2627 32.9208C28.7543 32.4243 28.4493 31.73 28.4146 30.9905C28.38 30.251 28.6186 29.5269 29.078 28.9775L48.7113 5.52754C49.3998 4.69692 50.2373 4.02612 51.173 3.55584C52.1087 3.08555 53.123 2.82558 54.1544 2.79171C55.1875 2.76778 56.2145 2.96848 57.1744 3.38186C58.1343 3.79525 59.0075 4.4129 59.7422 5.19812C61.1662 6.74046 61.9659 8.83024 61.9659 11.009C61.9659 13.1877 61.1662 15.2775 59.7422 16.8198L39.4552 38.7428C39.2158 39.0024 38.9311 39.2081 38.6176 39.3481C38.3041 39.488 37.968 39.5593 37.6288 39.558Z" fill="white"/>
</g>
<defs>
<clipPath id="clip0_47_292">
<rect width="62" height="67" fill="white"/>
</clipPath>
</defs>
</svg>
