<svg width="808" height="240" viewBox="0 0 808 240" fill="none" xmlns="http://www.w3.org/2000/svg">
<g clip-path="url(#clip0_268_1027)">
<g opacity="0.04">
<mask id="mask0_268_1027" style="mask-type:luminance" maskUnits="userSpaceOnUse" x="111" y="44" width="174" height="80">
<path d="M111.839 55.4375L116.723 44.0609H284.161L194.862 123.822L111.839 55.4375Z" fill="white"/>
</mask>
<g mask="url(#mask0_268_1027)">
<path d="M191.021 112.935L159.354 82.5406C158.992 82.1941 158.701 81.7794 158.498 81.3202C158.296 80.861 158.186 80.3664 158.176 79.8647C158.165 79.3629 158.253 78.864 158.435 78.3965C158.617 77.929 158.89 77.502 159.238 77.1402L184.457 50.8308C184.805 50.4695 185.078 50.043 185.261 49.5757C185.444 49.1085 185.533 48.6097 185.523 48.108C185.513 47.6063 185.404 47.1115 185.202 46.6521C185.001 46.1926 184.711 45.7774 184.348 45.4305L171.494 33.0967C171.132 32.7485 170.706 32.475 170.239 32.292C169.772 32.1089 169.274 32.0199 168.773 32.0301C168.271 32.0402 167.777 32.1492 167.317 32.351C166.858 32.5527 166.443 32.8431 166.097 33.2056L140.877 59.515C140.531 59.8781 140.116 60.1691 139.658 60.3715C139.199 60.574 138.704 60.6838 138.203 60.6946C137.701 60.7054 137.203 60.6171 136.736 60.4348C136.268 60.2524 135.842 59.9795 135.48 59.6318L131.592 55.8888C130.862 55.187 130.441 54.2238 130.42 53.2112C130.4 52.1985 130.782 51.2192 131.483 50.4884L165.7 14.7634C166.047 14.4009 166.462 14.1105 166.921 13.9087C167.38 13.707 167.875 13.5979 168.376 13.5878C168.877 13.5777 169.376 13.6667 169.843 13.8497C170.31 14.0328 170.736 14.3063 171.097 14.6545L202.771 45.0492C203.501 45.751 203.922 46.7141 203.943 47.7268C203.963 48.7394 203.581 49.7188 202.88 50.4496L177.66 76.7589C176.96 77.4897 176.577 78.469 176.598 79.4817C176.618 80.4943 177.039 81.4574 177.769 82.1593L190.632 94.493C190.993 94.8413 191.419 95.1147 191.886 95.2978C192.353 95.4808 192.851 95.5698 193.353 95.5597C193.854 95.5496 194.349 95.4405 194.808 95.2388C195.267 95.0371 195.682 94.7466 196.029 94.3841L260.987 26.6069C261.688 25.8762 262.07 24.8968 262.049 23.8842C262.029 22.8715 261.608 21.9084 260.878 21.2065L248.023 8.8728C247.293 8.17144 246.314 7.78892 245.302 7.80935C244.29 7.82978 243.328 8.25144 242.626 8.98171L217.407 35.2989C216.705 36.0291 215.743 36.4509 214.731 36.4713C213.719 36.4917 212.74 36.1092 212.01 35.4078L180.336 5.01314C179.606 4.31128 179.184 3.34815 179.164 2.33548C179.144 1.32282 179.526 0.343502 180.227 -0.387245L214.444 -36.1123C214.79 -36.4748 215.205 -36.7652 215.665 -36.967C216.124 -37.1687 216.618 -37.2778 217.12 -37.2879C217.621 -37.298 218.119 -37.209 218.586 -37.026C219.053 -36.8429 219.48 -36.5694 219.841 -36.2212L223.729 -32.4861C224.092 -32.1396 224.383 -31.7249 224.585 -31.2657C224.787 -30.8065 224.897 -30.3119 224.908 -29.8101C224.919 -29.3084 224.83 -28.8095 224.648 -28.342C224.466 -27.8745 224.193 -27.4475 223.846 -27.0857L198.665 -0.768532C197.964 -0.0377884 197.582 0.941536 197.602 1.9542C197.623 2.96686 198.044 3.92999 198.774 4.63186L211.629 16.9734C212.359 17.6747 213.338 18.0572 214.35 18.0368C215.362 18.0164 216.324 17.5947 217.026 16.8644L242.245 -9.48386C242.946 -10.2141 243.909 -10.6358 244.921 -10.6563C245.933 -10.6767 246.912 -10.2942 247.642 -9.59282L279.316 20.8641C280.046 21.566 280.467 22.5291 280.488 23.5418C280.508 24.5545 280.126 25.5338 279.425 26.2645L196.418 112.826C196.071 113.189 195.656 113.479 195.197 113.681C194.738 113.883 194.243 113.992 193.742 114.002C193.24 114.012 192.742 113.923 192.275 113.74C191.808 113.557 191.382 113.284 191.021 112.935Z" fill="white"/>
</g>
<mask id="mask1_268_1027" style="mask-type:luminance" maskUnits="userSpaceOnUse" x="30" y="44" width="173" height="80">
<path d="M30.0685 55.4375L34.9522 44.0609H202.39L113.091 123.822L30.0685 55.4375Z" fill="white"/>
</mask>
<g mask="url(#mask1_268_1027)">
<path d="M109.25 112.935L77.6223 82.5406C76.8914 81.8398 76.4686 80.8772 76.4467 79.8646C76.4249 78.8519 76.8057 77.872 77.5057 77.1402L102.725 50.8308C103.073 50.4695 103.346 50.043 103.529 49.5757C103.712 49.1085 103.801 48.6097 103.791 48.108C103.781 47.6063 103.672 47.1115 103.47 46.6521C103.269 46.1926 102.979 45.7774 102.616 45.4305L89.7616 33.0967C89.4005 32.7485 88.9742 32.475 88.5073 32.292C88.0403 32.1089 87.5419 32.0199 87.0405 32.0301C86.5391 32.0402 86.0446 32.1492 85.5854 32.351C85.1262 32.5527 84.7114 32.8431 84.3646 33.2056L59.1451 59.515C58.7989 59.8781 58.3844 60.1691 57.9255 60.3715C57.4666 60.574 56.9723 60.6838 56.4709 60.6946C55.9695 60.7054 55.4709 60.6171 55.0036 60.4348C54.5364 60.2524 54.1098 59.9795 53.7482 59.6318L49.8599 55.8888C49.1301 55.187 48.7086 54.2238 48.6882 53.2112C48.6678 52.1985 49.0501 51.2192 49.751 50.4884L83.968 14.7634C84.3148 14.4009 84.7297 14.1105 85.1888 13.9087C85.648 13.707 86.1425 13.5979 86.6439 13.5878C87.1453 13.5777 87.6437 13.6667 88.1107 13.8497C88.5776 14.0328 89.0039 14.3063 89.365 14.6545L121.031 45.0492C121.394 45.3962 121.684 45.8113 121.885 46.2708C122.087 46.7303 122.196 47.225 122.206 47.7267C122.216 48.2284 122.127 48.7272 121.944 49.1945C121.761 49.6617 121.488 50.0882 121.14 50.4496L95.8973 76.7589C95.5498 77.1208 95.2771 77.5476 95.0948 78.0152C94.9125 78.4827 94.8243 78.9816 94.8351 79.4833C94.846 79.985 94.9557 80.4797 95.158 80.9389C95.3603 81.3981 95.6511 81.8128 96.0139 82.1593L108.869 94.493C109.23 94.8413 109.656 95.1147 110.123 95.2978C110.59 95.4808 111.088 95.5698 111.59 95.5597C112.091 95.5496 112.586 95.4405 113.045 95.2388C113.504 95.0371 113.919 94.7466 114.266 94.3841L179.223 26.6069C179.572 26.2456 179.845 25.8191 180.028 25.3518C180.211 24.8846 180.3 24.3858 180.29 23.8841C180.279 23.3824 180.17 22.8876 179.969 22.4281C179.767 21.9687 179.477 21.5535 179.115 21.2065L166.275 8.8728C165.545 8.17144 164.566 7.78892 163.554 7.80935C162.542 7.82978 161.58 8.25144 160.879 8.98171L135.659 35.2989C134.958 36.0291 133.995 36.4509 132.983 36.4713C131.971 36.4917 130.992 36.1092 130.262 35.4078L98.588 5.01314C97.8582 4.31128 97.4368 3.34815 97.4164 2.33548C97.3959 1.32282 97.7782 0.343502 98.4791 -0.387245L132.696 -36.1123C133.043 -36.4748 133.458 -36.7652 133.917 -36.967C134.376 -37.1687 134.871 -37.2778 135.372 -37.2879C135.873 -37.298 136.372 -37.209 136.839 -37.026C137.306 -36.8429 137.732 -36.5694 138.093 -36.2212L141.981 -32.4861C142.711 -31.7842 143.133 -30.8211 143.153 -29.8084C143.173 -28.7958 142.791 -27.8164 142.09 -27.0857L116.894 -0.768532C116.193 -0.0377884 115.811 0.941536 115.831 1.9542C115.852 2.96686 116.273 3.92999 117.003 4.63186L129.858 16.9734C130.588 17.6747 131.567 18.0572 132.579 18.0368C133.591 18.0164 134.553 17.5947 135.255 16.8644L160.482 -9.48386C161.183 -10.2141 162.146 -10.6358 163.158 -10.6563C164.17 -10.6767 165.149 -10.2942 165.879 -9.59282L197.545 20.8641C197.907 21.2111 198.198 21.6263 198.399 22.0857C198.601 22.5452 198.71 23.04 198.72 23.5417C198.73 24.0434 198.641 24.5422 198.458 25.0094C198.275 25.4767 198.002 25.9032 197.654 26.2645L114.647 112.826C114.3 113.189 113.885 113.479 113.426 113.681C112.967 113.883 112.472 113.992 111.971 114.002C111.469 114.012 110.971 113.923 110.504 113.74C110.037 113.557 109.611 113.284 109.25 112.935Z" fill="white"/>
</g>
<mask id="mask2_268_1027" style="mask-type:luminance" maskUnits="userSpaceOnUse" x="-52" y="44" width="173" height="80">
<path d="M-51.9902 55.4375L-47.1065 44.0609H120.331L31.0327 123.822L-51.9902 55.4375Z" fill="white"/>
</mask>
<g mask="url(#mask2_268_1027)">
<path d="M27.1911 112.935L-4.48296 82.5406C-5.21276 81.8387 -5.63418 80.8756 -5.65459 79.8629C-5.67501 78.8503 -5.29275 77.871 -4.59183 77.1402L20.6277 50.8308C21.3286 50.1001 21.7109 49.1208 21.6904 48.1081C21.67 47.0955 21.2486 46.1323 20.5188 45.4305L7.63298 33.0967C7.27188 32.7485 6.84563 32.475 6.37869 32.292C5.91175 32.1089 5.41329 32.0199 4.9119 32.0301C4.4105 32.0402 3.91604 32.1492 3.45686 32.351C2.99767 32.5527 2.58279 32.8431 2.23602 33.2056L-22.9913 59.515C-23.3375 59.8781 -23.752 60.1691 -24.2109 60.3715C-24.6698 60.574 -25.1641 60.6838 -25.6655 60.6946C-26.1669 60.7054 -26.6655 60.6171 -27.1327 60.4348C-27.6 60.2524 -28.0266 59.9795 -28.3882 59.6318L-32.2765 55.8888C-32.6388 55.5418 -32.929 55.1267 -33.1307 54.6672C-33.3323 54.2077 -33.4413 53.713 -33.4514 53.2113C-33.4615 52.7096 -33.3725 52.2108 -33.1896 51.7435C-33.0067 51.2763 -32.7334 50.8498 -32.3854 50.4884L1.83163 14.7634C2.17841 14.4009 2.59328 14.1105 3.05247 13.9087C3.51166 13.707 4.00613 13.5979 4.50752 13.5878C5.00891 13.5777 5.50736 13.6667 5.97431 13.8497C6.44125 14.0328 6.86749 14.3063 7.22859 14.6545L38.9027 45.0492C39.6325 45.751 40.0539 46.7141 40.0743 47.7268C40.0947 48.7394 39.7125 49.7188 39.0115 50.4496L13.8543 76.7589C13.1533 77.4897 12.7711 78.469 12.7915 79.4817C12.8119 80.4943 13.2333 81.4574 13.9631 82.1593L26.8178 94.493C27.1789 94.8413 27.6052 95.1147 28.0721 95.2978C28.5391 95.4808 29.0375 95.5698 29.5389 95.5597C30.0403 95.5496 30.5348 95.4405 30.994 95.2388C31.4531 95.0371 31.868 94.7466 32.2148 94.3841L97.1805 26.6069C97.8814 25.8762 98.2636 24.8968 98.2432 23.8842C98.2228 22.8715 97.8014 21.9084 97.0716 21.2065L84.2169 8.8728C83.4866 8.17144 82.5079 7.78892 81.4959 7.80935C80.4838 7.82978 79.5213 8.25144 78.8199 8.98171L53.5927 35.2989C52.8912 36.0291 51.9287 36.4509 50.9167 36.4713C49.9047 36.4917 48.926 36.1092 48.1957 35.4078L16.5294 5.01314C15.7985 4.31232 15.3757 3.34977 15.3538 2.3371C15.332 1.32443 15.7128 0.344517 16.4128 -0.387245L50.6298 -36.1123C50.9765 -36.4748 51.3914 -36.7652 51.8506 -36.967C52.3098 -37.1687 52.8042 -37.2778 53.3056 -37.2879C53.807 -37.298 54.3055 -37.209 54.7724 -37.026C55.2394 -36.8429 55.6656 -36.5694 56.0267 -36.2212L59.915 -32.4861C60.6459 -31.7853 61.0687 -30.8227 61.0906 -29.81C61.1125 -28.7974 60.7316 -27.8175 60.0317 -27.0857L34.8511 -0.768532C34.1511 -0.0367699 33.7703 0.943142 33.7921 1.95581C33.814 2.96848 34.2368 3.93104 34.9677 4.63186L47.7991 16.9734C48.5294 17.6747 49.5081 18.0572 50.5201 18.0368C51.5321 18.0164 52.4946 17.5947 53.196 16.8644L78.4 -9.48386C79.1014 -10.2141 80.0639 -10.6358 81.0759 -10.6563C82.0879 -10.6767 83.0667 -10.2942 83.7969 -9.59282L115.479 20.8641C115.842 21.2106 116.132 21.6253 116.335 22.0845C116.537 22.5437 116.647 23.0384 116.658 23.5401C116.668 24.0418 116.58 24.5407 116.398 25.0082C116.216 25.4758 115.943 25.9027 115.595 26.2645L32.5881 112.826C32.2413 113.189 31.8264 113.479 31.3672 113.681C30.9081 113.883 30.4136 113.992 29.9122 114.002C29.4108 114.012 28.9123 113.923 28.4454 113.74C27.9785 113.557 27.5522 113.284 27.1911 112.935Z" fill="white"/>
</g>
<mask id="mask3_268_1027" style="mask-type:luminance" maskUnits="userSpaceOnUse" x="111" y="-40" width="174" height="80">
<path d="M111.987 28.5912L116.871 39.9756H284.309L195.01 -39.793L111.987 28.5912Z" fill="white"/>
</mask>
<g mask="url(#mask3_268_1027)">
<path d="M191.161 -28.9377L159.494 1.48805C158.765 2.18992 158.343 3.15305 158.323 4.16571C158.302 5.17837 158.685 6.1577 159.385 6.88844L184.605 33.1978C185.306 33.9286 185.688 34.9079 185.668 35.9206C185.647 36.9333 185.226 37.8963 184.496 38.5982L171.641 50.9398C170.91 51.6401 169.931 52.0212 168.919 51.9993C167.907 51.9774 166.945 51.5544 166.244 50.823L141.017 24.5136C140.317 23.7823 139.355 23.3592 138.343 23.3373C137.331 23.3154 136.351 23.6965 135.62 24.3969L131.732 28.1398C131.002 28.8417 130.581 29.8048 130.56 30.8175C130.54 31.8301 130.922 32.8095 131.623 33.5402L165.84 69.2653C166.54 69.9966 167.502 70.4197 168.514 70.4416C169.526 70.4635 170.506 70.0823 171.237 69.382L202.911 38.9873C203.641 38.2854 204.062 37.3223 204.083 36.3097C204.103 35.297 203.721 34.3176 203.02 33.5869L177.8 7.26978C177.1 6.53903 176.717 5.55966 176.738 4.547C176.758 3.53434 177.179 2.57125 177.909 1.86939L190.764 -10.4644C191.494 -11.1657 192.473 -11.5483 193.485 -11.5278C194.497 -11.5074 195.46 -11.0857 196.161 -10.3554L261.15 57.4373C261.851 58.1681 262.233 59.1474 262.213 60.1601C262.192 61.1727 261.771 62.1359 261.041 62.8377L248.186 75.1714C247.456 75.8728 246.477 76.2553 245.465 76.2349C244.453 76.2145 243.491 75.7928 242.789 75.0625L217.562 48.7454C216.861 48.0151 215.898 47.5934 214.886 47.573C213.874 47.5525 212.895 47.935 212.165 48.6364L180.499 79.0311C179.768 79.7319 179.345 80.6945 179.323 81.7071C179.301 82.7198 179.682 83.6997 180.382 84.4315L214.599 120.157C215.3 120.888 216.262 121.311 217.274 121.333C218.286 121.355 219.265 120.974 219.996 120.273L223.885 116.53C224.615 115.83 225.038 114.867 225.06 113.854C225.082 112.842 224.701 111.862 224.001 111.13L198.782 84.8128C198.434 84.4514 198.16 84.0249 197.977 83.5577C197.795 83.0904 197.706 82.5917 197.716 82.0899C197.726 81.5882 197.835 81.0935 198.036 80.634C198.238 80.1745 198.528 79.7594 198.891 79.4124L211.745 67.0787C212.476 66.3773 213.454 65.9948 214.466 66.0152C215.478 66.0356 216.441 66.4574 217.142 67.1876L242.362 93.5047C243.063 94.235 244.026 94.6567 245.038 94.6771C246.05 94.6976 247.028 94.315 247.759 93.6137L279.433 63.219C280.163 62.5171 280.584 61.554 280.604 60.5414C280.625 59.5287 280.243 58.5494 279.542 57.8186L196.604 -28.7977C196.258 -29.1684 195.842 -29.4664 195.38 -29.6744C194.917 -29.8825 194.418 -29.9963 193.912 -30.0094C193.405 -30.0224 192.901 -29.9344 192.428 -29.7504C191.956 -29.5664 191.525 -29.2901 191.161 -28.9377Z" fill="white"/>
</g>
<mask id="mask4_268_1027" style="mask-type:luminance" maskUnits="userSpaceOnUse" x="30" y="-40" width="173" height="80">
<path d="M30.2162 28.5912L35.0999 39.9756H202.538L113.239 -39.793L30.2162 28.5912Z" fill="white"/>
</mask>
<g mask="url(#mask4_268_1027)">
<path d="M109.397 -28.9377L77.7234 1.48808C77.0041 2.18978 76.5901 3.1469 76.5712 4.15196C76.5522 5.15702 76.9299 6.12904 77.6223 6.85736L102.842 33.1667C103.543 33.8975 103.925 34.8768 103.905 35.8895C103.884 36.9021 103.463 37.8653 102.733 38.5671L89.8782 50.9086C89.1469 51.609 88.1676 51.9901 87.1556 51.9682C86.1436 51.9464 85.1817 51.5233 84.4813 50.7919L59.2618 24.4826C58.5614 23.7512 57.5995 23.3281 56.5875 23.3062C55.5754 23.2843 54.5961 23.6655 53.8648 24.3658L49.9765 28.1087C49.2467 28.8106 48.8253 29.7737 48.8049 30.7864C48.7845 31.7991 49.1667 32.7784 49.8677 33.5091L84.0847 69.2341C84.785 69.9655 85.747 70.3886 86.759 70.4105C87.771 70.4324 88.7503 70.0513 89.4816 69.3509L121.171 38.9873C121.901 38.2854 122.322 37.3224 122.343 36.3097C122.363 35.297 121.981 34.3177 121.28 33.5869L96.0606 7.2698C95.3597 6.53905 94.9775 5.55968 94.9979 4.54702C95.0183 3.53436 95.4397 2.57128 96.1695 1.86941L109.024 -10.4644C109.754 -11.1657 110.733 -11.5482 111.745 -11.5278C112.757 -11.5074 113.72 -11.0857 114.421 -10.3554L179.371 57.4374C180.072 58.1681 180.454 59.1474 180.434 60.1601C180.414 61.1727 179.992 62.1359 179.262 62.8377L166.408 75.1715C165.677 75.8728 164.699 76.2553 163.687 76.2349C162.675 76.2145 161.712 75.7928 161.011 75.0625L135.783 48.7454C135.082 48.0151 134.12 47.5934 133.108 47.573C132.096 47.5526 131.117 47.9351 130.387 48.6364L98.7202 79.0311C98.3579 79.3781 98.0677 79.7932 97.8661 80.2527C97.6644 80.7122 97.5555 81.207 97.5454 81.7087C97.5352 82.2104 97.6242 82.7092 97.8071 83.1764C97.9901 83.6437 98.2633 84.0702 98.6113 84.4315L132.828 120.157C133.529 120.888 134.491 121.311 135.503 121.333C136.515 121.355 137.494 120.974 138.225 120.273L142.114 116.53C142.476 116.184 142.767 115.769 142.97 115.31C143.172 114.851 143.282 114.356 143.292 113.854C143.303 113.353 143.215 112.854 143.033 112.386C142.85 111.919 142.578 111.492 142.23 111.13L117.011 84.8128C116.663 84.4515 116.389 84.0249 116.207 83.5577C116.024 83.0905 115.935 82.5917 115.945 82.09C115.955 81.5883 116.064 81.0935 116.265 80.634C116.467 80.1745 116.757 79.7594 117.12 79.4124L129.974 67.0787C130.705 66.3773 131.683 65.9948 132.695 66.0152C133.707 66.0357 134.67 66.4574 135.371 67.1876L160.591 93.5048C161.292 94.235 162.255 94.6567 163.267 94.6772C164.279 94.6976 165.257 94.3151 165.988 93.6137L197.662 63.219C198.392 62.5172 198.813 61.554 198.833 60.5414C198.854 59.5287 198.472 58.5494 197.771 57.8186L114.794 -28.7977C114.097 -29.5322 113.137 -29.9596 112.125 -29.9858C111.113 -30.0121 110.132 -29.6351 109.397 -28.9377Z" fill="white"/>
</g>
<mask id="mask5_268_1027" style="mask-type:luminance" maskUnits="userSpaceOnUse" x="-52" y="-40" width="173" height="80">
<path d="M-51.8424 28.5912L-46.9665 39.9756H120.479L31.1805 -39.793L-51.8424 28.5912Z" fill="white"/>
</mask>
<g mask="url(#mask5_268_1027)">
<path d="M27.3311 -28.9377L-4.33518 1.48808C-4.69746 1.83507 -4.98773 2.25021 -5.18934 2.70969C-5.39095 3.16917 -5.49994 3.66397 -5.51005 4.16569C-5.52016 4.6674 -5.43121 5.16618 -5.24828 5.63342C-5.06536 6.10065 -4.79206 6.52713 -4.44406 6.88847L20.7754 33.1978C21.4753 33.9296 21.8562 34.9096 21.8344 35.9222C21.8125 36.9349 21.3896 37.8974 20.6588 38.5982L7.80408 50.9398C7.07278 51.6401 6.09348 52.0212 5.08146 51.9993C4.06942 51.9775 3.10749 51.5544 2.40712 50.823L-22.8124 24.5137C-23.5127 23.7823 -24.4747 23.3592 -25.4867 23.3373C-26.4987 23.3154 -27.478 23.6966 -28.2093 24.3969L-32.0976 28.1398C-32.8285 28.8407 -33.2513 29.8032 -33.2732 30.8159C-33.2951 31.8286 -32.9142 32.8085 -32.2143 33.5402L2.00274 69.2653C2.70311 69.9966 3.66504 70.4197 4.67707 70.4416C5.6891 70.4635 6.6684 70.0824 7.39969 69.382L39.066 38.9873C39.7969 38.2865 40.2197 37.324 40.2416 36.3113C40.2635 35.2986 39.8826 34.3187 39.1826 33.5869L13.9554 7.2698C13.2555 6.53804 12.8746 5.55808 12.8964 4.54541C12.9183 3.53273 13.3412 2.57023 14.072 1.86941L26.9267 -10.4644C27.657 -11.1657 28.6357 -11.5482 29.6477 -11.5278C30.6598 -11.5074 31.6223 -11.0857 32.3237 -10.3554L97.3127 57.4374C98.0126 58.1691 98.3935 59.149 98.3716 60.1617C98.3497 61.1744 97.9269 62.1369 97.196 62.8377L84.3413 75.1715C83.611 75.8728 82.6323 76.2553 81.6203 76.2349C80.6083 76.2145 79.6458 75.7928 78.9444 75.0625L53.7249 48.7454C53.0234 48.0151 52.0609 47.5934 51.0489 47.573C50.0369 47.5526 49.0582 47.9351 48.3279 48.6364L16.6616 79.0311C15.9308 79.7319 15.5079 80.6945 15.486 81.7072C15.4642 82.7198 15.8451 83.6997 16.545 84.4315L50.762 120.157C51.4623 120.888 52.4243 121.311 53.4363 121.333C54.4483 121.355 55.4276 120.974 56.1589 120.273L60.0472 116.53C60.4095 116.183 60.6998 115.768 60.9014 115.309C61.103 114.849 61.212 114.354 61.2221 113.853C61.2322 113.351 61.1433 112.852 60.9603 112.385C60.7774 111.918 60.5041 111.491 60.1561 111.13L34.9366 84.8128C34.2367 84.081 33.8558 83.1011 33.8777 82.0884C33.8996 81.0758 34.3224 80.1132 35.0533 79.4124L47.908 67.0787C48.6383 66.3773 49.617 65.9948 50.629 66.0152C51.641 66.0357 52.6035 66.4574 53.3049 67.1876L78.5244 93.5048C79.2258 94.235 80.1883 94.6567 81.2004 94.6772C82.2124 94.6976 83.1911 94.3151 83.9214 93.6137L115.588 63.219C116.319 62.5182 116.741 61.5557 116.763 60.543C116.785 59.5303 116.404 58.5504 115.704 57.8186L32.7281 -28.7977C32.0308 -29.5322 31.0706 -29.9596 30.0586 -29.9858C29.0465 -30.0121 28.0654 -29.6351 27.3311 -28.9377Z" fill="white"/>
</g>
</g>
<g opacity="0.04">
<mask id="mask6_268_1027" style="mask-type:luminance" maskUnits="userSpaceOnUse" x="356" y="44" width="173" height="80">
<path d="M356.266 55.4375L361.149 44.0609H528.587L439.288 123.822L356.266 55.4375Z" fill="white"/>
</mask>
<g mask="url(#mask6_268_1027)">
<path d="M435.447 112.935L403.78 82.5406C403.418 82.1941 403.127 81.7794 402.925 81.3202C402.722 80.861 402.613 80.3663 402.602 79.8646C402.591 79.3629 402.679 78.864 402.861 78.3965C403.044 77.929 403.316 77.502 403.664 77.1402L428.883 50.8308C429.584 50.1001 429.967 49.1208 429.946 48.1081C429.926 47.0954 429.504 46.1323 428.774 45.4304L415.904 33.0967C415.543 32.7484 415.117 32.475 414.65 32.292C414.183 32.1089 413.685 32.0199 413.183 32.03C412.682 32.0401 412.187 32.1492 411.728 32.351C411.269 32.5527 410.854 32.8431 410.507 33.2056L385.288 59.515C384.942 59.878 384.527 60.1691 384.068 60.3715C383.609 60.5739 383.115 60.6837 382.614 60.6946C382.112 60.7054 381.614 60.6171 381.146 60.4347C380.679 60.2523 380.252 59.9795 379.891 59.6317L376.003 55.8888C375.273 55.187 374.851 54.2238 374.831 53.2112C374.81 52.1985 375.193 51.2192 375.894 50.4884L410.111 14.7634C410.457 14.4009 410.872 14.1104 411.331 13.9087C411.791 13.707 412.285 13.5979 412.787 13.5878C413.288 13.5777 413.786 13.6667 414.253 13.8497C414.72 14.0328 415.147 14.3062 415.508 14.6545L447.182 45.0491C447.911 45.751 448.333 46.7141 448.353 47.7268C448.374 48.7394 447.991 49.7188 447.291 50.4495L422.125 76.7589C421.425 77.4896 421.042 78.469 421.063 79.4816C421.083 80.4943 421.505 81.4574 422.234 82.1593L435.089 94.493C435.45 94.8412 435.876 95.1147 436.343 95.2978C436.81 95.4808 437.309 95.5698 437.81 95.5597C438.312 95.5496 438.806 95.4405 439.265 95.2388C439.724 95.037 440.139 94.7466 440.486 94.384L505.452 26.6069C506.153 25.8761 506.535 24.8968 506.514 23.8842C506.494 22.8715 506.073 21.9084 505.343 21.2065L492.488 8.87278C491.758 8.17141 490.779 7.7889 489.767 7.80933C488.755 7.82975 487.793 8.25142 487.091 8.98169L461.872 35.2989C461.17 36.0291 460.208 36.4508 459.196 36.4713C458.184 36.4917 457.205 36.1092 456.475 35.4078L424.77 5.01312C424.407 4.66613 424.117 4.25098 423.915 3.79151C423.714 3.33203 423.605 2.83727 423.595 2.33556C423.585 1.83384 423.674 1.33507 423.856 0.867828C424.039 0.400589 424.313 -0.0259399 424.661 -0.387268L458.878 -36.1123C459.224 -36.4748 459.639 -36.7653 460.099 -36.967C460.558 -37.1687 461.052 -37.2778 461.554 -37.2879C462.055 -37.298 462.553 -37.209 463.02 -37.026C463.487 -36.8429 463.914 -36.5695 464.275 -36.2212L468.163 -32.4861C468.526 -32.1396 468.817 -31.7249 469.019 -31.2657C469.221 -30.8065 469.331 -30.3119 469.342 -29.8102C469.353 -29.3084 469.264 -28.8095 469.082 -28.342C468.9 -27.8745 468.627 -27.4476 468.28 -27.0857L443.122 -0.768555C442.421 -0.0378113 442.039 0.941513 442.06 1.95417C442.08 2.96684 442.501 3.92997 443.231 4.63183L456.055 16.9733C456.785 17.6747 457.764 18.0572 458.776 18.0368C459.788 18.0164 460.75 17.5947 461.452 16.8644L486.671 -9.48389C487.373 -10.2142 488.335 -10.6359 489.347 -10.6563C490.359 -10.6767 491.338 -10.2942 492.068 -9.59284L523.742 20.8641C524.472 21.566 524.893 22.5291 524.914 23.5418C524.934 24.5544 524.552 25.5338 523.851 26.2645L440.844 112.826C440.497 113.189 440.082 113.479 439.623 113.681C439.164 113.883 438.669 113.992 438.168 114.002C437.667 114.012 437.168 113.923 436.701 113.74C436.234 113.557 435.808 113.283 435.447 112.935Z" fill="white"/>
</g>
<mask id="mask7_268_1027" style="mask-type:luminance" maskUnits="userSpaceOnUse" x="274" y="44" width="173" height="80">
<path d="M274.495 55.4375L279.378 44.0609H446.816L357.517 123.822L274.495 55.4375Z" fill="white"/>
</mask>
<g mask="url(#mask7_268_1027)">
<path d="M353.691 112.935L322.025 82.5406C321.294 81.8398 320.871 80.8772 320.85 79.8645C320.828 78.8519 321.209 77.8719 321.908 77.1402L347.128 50.8308C347.476 50.4695 347.749 50.043 347.932 49.5757C348.115 49.1085 348.204 48.6097 348.194 48.108C348.184 47.6063 348.075 47.1115 347.873 46.652C347.672 46.1926 347.381 45.7774 347.019 45.4304L334.164 33.0967C333.803 32.7484 333.377 32.475 332.91 32.292C332.443 32.1089 331.945 32.0199 331.443 32.03C330.942 32.0401 330.447 32.1492 329.988 32.351C329.529 32.5527 329.114 32.8431 328.767 33.2056L303.532 59.515C303.186 59.878 302.772 60.1691 302.313 60.3715C301.854 60.5739 301.36 60.6837 300.858 60.6946C300.357 60.7054 299.858 60.6171 299.391 60.4347C298.924 60.2523 298.497 59.9795 298.135 59.6317L294.247 55.8888C293.517 55.187 293.096 54.2238 293.075 53.2112C293.055 52.1985 293.437 51.2192 294.138 50.4884L328.355 14.7634C328.702 14.4009 329.117 14.1104 329.576 13.9087C330.035 13.707 330.53 13.5979 331.031 13.5878C331.533 13.5777 332.031 13.6667 332.498 13.8497C332.965 14.0328 333.391 14.3062 333.752 14.6545L365.419 45.0491C365.781 45.3961 366.071 45.8113 366.273 46.2708C366.474 46.7302 366.583 47.225 366.593 47.7267C366.604 48.2284 366.515 48.7272 366.332 49.1944C366.149 49.6617 365.875 50.0882 365.527 50.4495L340.308 76.7589C339.96 77.1207 339.688 77.5476 339.505 78.0151C339.323 78.4827 339.235 78.9816 339.246 79.4833C339.257 79.985 339.366 80.4797 339.569 80.9389C339.771 81.3981 340.062 81.8128 340.425 82.1593L353.279 94.493C353.64 94.8412 354.067 95.1147 354.534 95.2978C355 95.4808 355.499 95.5698 356 95.5597C356.502 95.5496 356.996 95.4405 357.455 95.2388C357.915 95.037 358.329 94.7466 358.676 94.384L423.681 26.6069C424.029 26.2456 424.302 25.819 424.485 25.3518C424.668 24.8846 424.757 24.3858 424.747 23.8841C424.737 23.3824 424.628 22.8876 424.426 22.4281C424.224 21.9686 423.934 21.5535 423.572 21.2065L410.717 8.87278C409.987 8.17141 409.008 7.7889 407.996 7.80933C406.984 7.82975 406.022 8.25142 405.32 8.98169L380.101 35.2989C379.399 36.0291 378.437 36.4508 377.425 36.4713C376.413 36.4917 375.434 36.1092 374.704 35.4078L343.03 5.01312C342.3 4.31126 341.879 3.34813 341.858 2.33546C341.838 1.3228 342.22 0.343479 342.921 -0.387268L377.138 -36.1123C377.485 -36.4748 377.899 -36.7653 378.359 -36.967C378.818 -37.1687 379.312 -37.2778 379.814 -37.2879C380.315 -37.298 380.814 -37.209 381.281 -37.026C381.747 -36.8429 382.174 -36.5695 382.535 -36.2212L386.423 -32.4861C387.153 -31.7842 387.574 -30.8211 387.595 -29.8085C387.615 -28.7958 387.233 -27.8165 386.532 -27.0857L361.32 -0.768555C360.619 -0.0378113 360.237 0.941513 360.257 1.95417C360.278 2.96684 360.699 3.92997 361.429 4.63183L374.284 16.9733C375.014 17.6747 375.993 18.0572 377.005 18.0368C378.017 18.0164 378.979 17.5947 379.681 16.8644L404.9 -9.48389C405.602 -10.2142 406.564 -10.6359 407.576 -10.6563C408.588 -10.6767 409.567 -10.2942 410.297 -9.59284L441.971 20.8641C442.334 21.2111 442.624 21.6262 442.825 22.0857C443.027 22.5452 443.136 23.04 443.146 23.5417C443.156 24.0434 443.067 24.5422 442.884 25.0094C442.701 25.4766 442.428 25.9032 442.08 26.2645L359.073 112.826C358.373 113.554 357.413 113.974 356.405 113.994C355.396 114.015 354.42 113.634 353.691 112.935Z" fill="white"/>
</g>
<mask id="mask8_268_1027" style="mask-type:luminance" maskUnits="userSpaceOnUse" x="192" y="44" width="173" height="80">
<path d="M192.436 55.4375L197.32 44.0609H364.757L275.459 123.822L192.436 55.4375Z" fill="white"/>
</mask>
<g mask="url(#mask8_268_1027)">
<path d="M271.617 112.935L239.943 82.5406C239.213 81.8387 238.792 80.8756 238.772 79.8629C238.751 78.8503 239.133 77.8709 239.834 77.1402L265.038 50.8308C265.739 50.1001 266.121 49.1208 266.101 48.1081C266.081 47.0954 265.659 46.1323 264.929 45.4304L252.075 33.0967C251.714 32.7484 251.287 32.475 250.82 32.292C250.353 32.1089 249.855 32.0199 249.354 32.03C248.852 32.0401 248.358 32.1492 247.899 32.351C247.439 32.5527 247.024 32.8431 246.678 33.2056L221.489 59.515C221.143 59.878 220.729 60.1691 220.27 60.3715C219.811 60.5739 219.316 60.6837 218.815 60.6946C218.314 60.7054 217.815 60.6171 217.348 60.4347C216.881 60.2523 216.454 59.9795 216.092 59.6317L212.157 55.881C211.795 55.534 211.505 55.1189 211.303 54.6594C211.102 54.1999 210.993 53.7052 210.983 53.2035C210.972 52.7018 211.061 52.203 211.244 51.7357C211.427 51.2685 211.701 50.842 212.049 50.4806L246.266 14.7556C246.612 14.3931 247.027 14.1026 247.486 13.9009C247.946 13.6992 248.44 13.5901 248.941 13.58C249.443 13.5699 249.941 13.6589 250.408 13.8419C250.875 14.025 251.301 14.2984 251.662 14.6467L283.329 45.0414C283.692 45.3878 283.982 45.8025 284.185 46.2617C284.387 46.7209 284.497 47.2156 284.508 47.7173C284.518 48.219 284.43 48.7179 284.248 49.1855C284.066 49.653 283.793 50.0799 283.445 50.4417L258.226 76.7511C257.878 77.1124 257.605 77.539 257.422 78.0062C257.239 78.4734 257.15 78.9722 257.16 79.4739C257.17 79.9756 257.279 80.4704 257.481 80.9299C257.682 81.3894 257.973 81.8045 258.335 82.1515L271.26 94.493C271.621 94.8412 272.047 95.1147 272.514 95.2978C272.981 95.4808 273.479 95.5698 273.981 95.5597C274.482 95.5496 274.976 95.4405 275.436 95.2388C275.895 95.037 276.31 94.7466 276.656 94.384L341.622 26.6069C341.97 26.2451 342.242 25.8181 342.425 25.3506C342.607 24.8831 342.695 24.3842 342.684 23.8825C342.673 23.3807 342.564 22.8861 342.361 22.4269C342.159 21.9677 341.868 21.553 341.505 21.2065L328.651 8.87278C327.92 8.17141 326.942 7.7889 325.93 7.80933C324.918 7.82975 323.955 8.25142 323.254 8.98169L298.034 35.2989C297.333 36.0291 296.37 36.4508 295.358 36.4713C294.346 36.4917 293.368 36.1092 292.637 35.4078L260.971 5.01312C260.24 4.3123 259.817 3.34975 259.795 2.33708C259.774 1.32441 260.155 0.344494 260.854 -0.387268L295.071 -36.1123C295.418 -36.4748 295.833 -36.7653 296.292 -36.967C296.751 -37.1687 297.246 -37.2778 297.747 -37.2879C298.249 -37.298 298.747 -37.209 299.214 -37.026C299.681 -36.8429 300.107 -36.5695 300.468 -36.2212L304.357 -32.4861C305.088 -31.7853 305.51 -30.8227 305.532 -29.8101C305.554 -28.7974 305.173 -27.8175 304.473 -27.0857L279.254 -0.768555C278.554 -0.0367928 278.173 0.943119 278.195 1.95579C278.217 2.96846 278.64 3.93102 279.37 4.63183L292.256 16.9733C292.987 17.6747 293.965 18.0572 294.977 18.0368C295.989 18.0164 296.952 17.5947 297.653 16.8644L322.842 -9.48389C323.543 -10.2142 324.506 -10.6359 325.518 -10.6563C326.53 -10.6767 327.508 -10.2942 328.239 -9.59284L359.913 20.8641C360.275 21.2106 360.566 21.6253 360.769 22.0845C360.971 22.5437 361.081 23.0383 361.091 23.5401C361.102 24.0418 361.014 24.5407 360.832 25.0082C360.65 25.4757 360.377 25.9027 360.029 26.2645L277.014 112.826C276.667 113.189 276.253 113.479 275.793 113.681C275.334 113.883 274.84 113.992 274.338 114.002C273.837 114.012 273.338 113.923 272.872 113.74C272.405 113.557 271.978 113.283 271.617 112.935Z" fill="white"/>
</g>
<mask id="mask9_268_1027" style="mask-type:luminance" maskUnits="userSpaceOnUse" x="356" y="-40" width="173" height="80">
<path d="M356.413 28.5912L361.297 39.9755H528.735L439.436 -39.793L356.413 28.5912Z" fill="white"/>
</mask>
<g mask="url(#mask9_268_1027)">
<path d="M435.595 -28.9377L403.92 1.48805C403.191 2.18992 402.769 3.15305 402.749 4.16571C402.728 5.17838 403.111 6.1577 403.812 6.88844L429.031 33.1978C429.732 33.9286 430.114 34.9079 430.094 35.9206C430.073 36.9333 429.652 37.8963 428.922 38.5982L416.068 50.9398C415.336 51.6401 414.357 52.0212 413.345 51.9993C412.333 51.9774 411.371 51.5543 410.671 50.823L385.443 24.5136C384.743 23.7823 383.781 23.3592 382.769 23.3373C381.757 23.3154 380.778 23.6965 380.046 24.3969L376.158 28.1398C375.796 28.4868 375.505 28.902 375.304 29.3614C375.102 29.8209 374.993 30.3157 374.983 30.8174C374.973 31.3191 375.062 31.8179 375.245 32.2852C375.428 32.7524 375.701 33.1789 376.049 33.5402L410.266 69.2653C410.967 69.9966 411.928 70.4197 412.94 70.4416C413.953 70.4635 414.932 70.0823 415.663 69.382L447.337 38.9873C448.067 38.2854 448.488 37.3223 448.509 36.3097C448.529 35.297 448.147 34.3176 447.446 33.5869L422.227 7.26978C421.526 6.53903 421.143 5.55966 421.164 4.547C421.184 3.53434 421.606 2.57125 422.335 1.86939L435.19 -10.4644C435.92 -11.1657 436.899 -11.5483 437.911 -11.5278C438.923 -11.5074 439.886 -11.0857 440.587 -10.3554L505.568 57.4373C506.269 58.1681 506.652 59.1474 506.631 60.1601C506.611 61.1727 506.189 62.1359 505.459 62.8377L492.605 75.1714C491.874 75.8728 490.896 76.2553 489.884 76.2349C488.872 76.2145 487.909 75.7928 487.208 75.0625L461.981 48.7454C461.279 48.0151 460.317 47.5934 459.305 47.573C458.293 47.5525 457.314 47.935 456.584 48.6364L424.917 79.0311C424.186 79.7319 423.764 80.6945 423.742 81.7071C423.72 82.7198 424.101 83.6997 424.801 84.4315L459.018 120.157C459.718 120.888 460.68 121.311 461.692 121.333C462.704 121.355 463.683 120.974 464.415 120.273L468.303 116.53C469.034 115.83 469.457 114.867 469.478 113.854C469.5 112.842 469.119 111.862 468.42 111.13L443.192 84.8128C442.492 84.081 442.111 83.1011 442.133 82.0884C442.155 81.0757 442.578 80.1132 443.309 79.4124L456.164 67.0787C456.894 66.3773 457.873 65.9948 458.885 66.0152C459.897 66.0356 460.859 66.4574 461.561 67.1876L486.78 93.5047C487.481 94.235 488.444 94.6567 489.456 94.6771C490.468 94.6976 491.447 94.3151 492.177 93.6137L523.851 63.219C524.581 62.5171 525.002 61.554 525.023 60.5413C525.043 59.5287 524.661 58.5494 523.96 57.8186L440.991 -28.7977C440.294 -29.5322 439.334 -29.9596 438.322 -29.9859C437.31 -30.0121 436.329 -29.6351 435.595 -28.9377Z" fill="white"/>
</g>
<mask id="mask10_268_1027" style="mask-type:luminance" maskUnits="userSpaceOnUse" x="274" y="-40" width="173" height="80">
<path d="M274.642 28.5912L279.526 39.9755H446.964L357.665 -39.793L274.642 28.5912Z" fill="white"/>
</mask>
<g mask="url(#mask10_268_1027)">
<path d="M353.824 -28.9377L322.15 1.48805C321.42 2.18992 320.998 3.15305 320.978 4.16571C320.958 5.17838 321.34 6.1577 322.041 6.88844L347.26 33.1978C347.961 33.9286 348.343 34.9079 348.323 35.9206C348.303 36.9333 347.881 37.8963 347.151 38.5982L334.297 50.9398C333.565 51.6401 332.586 52.0212 331.574 51.9993C330.562 51.9774 329.6 51.5543 328.9 50.823L303.672 24.5136C302.972 23.7823 302.01 23.3592 300.998 23.3373C299.986 23.3154 299.007 23.6965 298.275 24.3969L294.387 28.1398C293.657 28.8417 293.236 29.8048 293.216 30.8175C293.195 31.8301 293.577 32.8095 294.278 33.5402L328.495 69.2653C329.196 69.9966 330.158 70.4197 331.17 70.4416C332.182 70.4635 333.161 70.0823 333.892 69.382L365.566 38.9873C366.296 38.2854 366.718 37.3223 366.738 36.3097C366.758 35.297 366.376 34.3176 365.675 33.5869L340.471 7.26978C339.77 6.53903 339.388 5.55966 339.408 4.547C339.429 3.53434 339.85 2.57125 340.58 1.86939L353.435 -10.4644C354.165 -11.1657 355.144 -11.5483 356.156 -11.5278C357.168 -11.5074 358.13 -11.0857 358.832 -10.3554L423.797 57.4373C424.498 58.1681 424.881 59.1474 424.86 60.1601C424.84 61.1727 424.418 62.1359 423.689 62.8377L410.834 75.1714C410.104 75.8728 409.125 76.2553 408.113 76.2349C407.101 76.2145 406.138 75.7928 405.437 75.0625L380.21 48.7298C379.508 47.9995 378.546 47.5778 377.534 47.5574C376.522 47.537 375.543 47.9195 374.813 48.6208L343.146 79.0155C342.784 79.3625 342.494 79.7776 342.292 80.2371C342.091 80.6966 341.982 81.1914 341.972 81.6931C341.961 82.1948 342.05 82.6936 342.233 83.1609C342.416 83.6281 342.69 84.0546 343.038 84.4159L377.255 120.141C377.955 120.872 378.917 121.295 379.929 121.317C380.941 121.339 381.92 120.958 382.651 120.258L386.54 116.515C387.271 115.814 387.694 114.851 387.715 113.839C387.737 112.826 387.356 111.846 386.656 111.114L361.468 84.7972C361.12 84.4359 360.847 84.0094 360.664 83.5421C360.481 83.0749 360.392 82.5761 360.402 82.0744C360.412 81.5727 360.521 81.0779 360.723 80.6184C360.924 80.1589 361.215 79.7438 361.577 79.3968L374.432 67.0631C375.162 66.3617 376.141 65.9792 377.153 65.9996C378.165 66.0201 379.127 66.4418 379.829 67.172L405.017 93.4892C405.718 94.2195 406.681 94.6411 407.693 94.6616C408.705 94.682 409.684 94.2995 410.414 93.5981L442.088 63.2034C442.818 62.5016 443.239 61.5385 443.26 60.5258C443.28 59.5132 442.898 58.5338 442.197 57.803L359.221 -28.7977C358.523 -29.5322 357.563 -29.9596 356.551 -29.9859C355.539 -30.0121 354.558 -29.6351 353.824 -28.9377Z" fill="white"/>
</g>
<mask id="mask11_268_1027" style="mask-type:luminance" maskUnits="userSpaceOnUse" x="192" y="-40" width="173" height="80">
<path d="M192.584 28.5912L197.46 39.9755H364.897L275.599 -39.793L192.584 28.5912Z" fill="white"/>
</mask>
<g mask="url(#mask11_268_1027)">
<path d="M271.757 -28.9377L240.091 1.48805C239.729 1.83504 239.438 2.25019 239.237 2.70966C239.035 3.16914 238.926 3.66395 238.916 4.16566C238.906 4.66737 238.995 5.16615 239.178 5.63339C239.361 6.10063 239.634 6.52711 239.982 6.88844L265.202 33.1978C265.901 33.9296 266.282 34.9095 266.26 35.9222C266.239 36.9349 265.816 37.8974 265.085 38.5982L252.23 50.9398C251.499 51.6401 250.52 52.0212 249.508 51.9993C248.496 51.9774 247.534 51.5543 246.833 50.823L221.614 24.5136C220.913 23.7823 219.951 23.3592 218.939 23.3373C217.927 23.3154 216.948 23.6965 216.217 24.3969L212.328 28.1398C211.598 28.8406 211.175 29.8032 211.153 30.8159C211.131 31.8285 211.512 32.8084 212.212 33.5402L246.429 69.2653C247.129 69.9966 248.091 70.4197 249.103 70.4416C250.115 70.4635 251.095 70.0823 251.826 69.382L283.492 38.9873C284.223 38.2865 284.646 37.324 284.668 36.3113C284.69 35.2986 284.309 34.3187 283.609 33.5869L258.381 7.26978C257.682 6.53801 257.301 5.55806 257.323 4.54538C257.344 3.53271 257.767 2.57021 258.498 1.86939L271.353 -10.4644C272.083 -11.1657 273.062 -11.5483 274.074 -11.5278C275.086 -11.5074 276.048 -11.0857 276.75 -10.3554L341.739 57.4373C342.439 58.1691 342.82 59.149 342.798 60.1617C342.776 61.1744 342.353 62.1369 341.622 62.8377L328.806 75.1559C328.076 75.8573 327.097 76.2397 326.085 76.2193C325.073 76.1989 324.111 75.7772 323.409 75.0469L298.19 48.7298C297.488 47.9995 296.526 47.5778 295.514 47.5574C294.502 47.537 293.523 47.9195 292.793 48.6208L261.127 79.0155C260.764 79.362 260.473 79.7767 260.271 80.2359C260.068 80.6951 259.959 81.1898 259.948 81.6915C259.937 82.1932 260.025 82.6922 260.207 83.1597C260.39 83.6272 260.662 84.0541 261.01 84.4159L295.227 120.141C295.927 120.872 296.889 121.295 297.901 121.317C298.913 121.339 299.893 120.958 300.624 120.258L304.512 116.515C304.875 116.168 305.165 115.753 305.366 115.293C305.568 114.834 305.677 114.339 305.687 113.837C305.697 113.335 305.608 112.837 305.425 112.369C305.242 111.902 304.969 111.476 304.621 111.114L279.402 84.7972C278.702 84.0654 278.321 83.0855 278.343 82.0728C278.365 81.0602 278.787 80.0976 279.518 79.3968L292.373 67.0631C293.103 66.3617 294.082 65.9792 295.094 65.9996C296.106 66.0201 297.069 66.4418 297.77 67.172L322.989 93.4892C323.691 94.2195 324.653 94.6411 325.665 94.6616C326.677 94.682 327.656 94.2995 328.386 93.5981L360.053 63.2034C360.784 62.5026 361.206 61.5401 361.228 60.5274C361.25 59.5148 360.869 58.5348 360.169 57.803L277.154 -28.7977C276.457 -29.5322 275.497 -29.9596 274.485 -29.9859C273.473 -30.0121 272.492 -29.6351 271.757 -28.9377Z" fill="white"/>
</g>
<mask id="mask12_268_1027" style="mask-type:luminance" maskUnits="userSpaceOnUse" x="393" y="162" width="173" height="81">
<path d="M393.616 174.114L398.492 162.737H565.93L476.632 242.498L393.616 174.114Z" fill="white"/>
</mask>
<g mask="url(#mask12_268_1027)">
<path d="M472.79 231.619L441.124 201.225C440.393 200.524 439.97 199.561 439.948 198.549C439.926 197.536 440.307 196.556 441.007 195.824L466.234 169.491C466.934 168.76 467.315 167.78 467.293 166.767C467.271 165.754 466.848 164.792 466.118 164.091L453.232 151.773C452.501 151.072 451.523 150.689 450.511 150.71C449.499 150.73 448.536 151.152 447.835 151.882L422.615 178.199C421.914 178.929 420.951 179.351 419.939 179.371C418.927 179.392 417.949 179.009 417.218 178.308L413.33 174.565C412.599 173.864 412.176 172.902 412.154 171.889C412.133 170.876 412.513 169.896 413.213 169.165L447.43 133.44C448.132 132.709 449.094 132.288 450.106 132.267C451.118 132.247 452.097 132.629 452.827 133.331L484.494 163.725C485.225 164.426 485.647 165.389 485.669 166.401C485.691 167.414 485.31 168.394 484.61 169.126L459.453 195.435C458.753 196.167 458.372 197.147 458.394 198.16C458.416 199.172 458.839 200.135 459.57 200.836L472.424 213.177C473.156 213.877 474.135 214.259 475.147 214.237C476.159 214.215 477.121 213.792 477.821 213.06L542.787 145.291C543.476 144.56 543.85 143.586 543.827 142.581C543.803 141.576 543.385 140.62 542.663 139.922L529.8 127.549C529.069 126.849 528.089 126.468 527.077 126.489C526.065 126.511 525.104 126.934 524.403 127.666L499.184 153.975C498.483 154.706 497.521 155.13 496.509 155.151C495.497 155.173 494.518 154.792 493.787 154.092L462.113 123.697C461.383 122.995 460.961 122.032 460.941 121.019C460.921 120.007 461.303 119.028 462.004 118.297L496.221 82.5639C496.922 81.8336 497.885 81.412 498.897 81.3915C499.909 81.3711 500.887 81.7536 501.618 82.455L505.506 86.1979C506.236 86.8998 506.657 87.8629 506.678 88.8755C506.698 89.8882 506.316 90.8676 505.615 91.5983L480.45 117.908C480.102 118.27 479.83 118.696 479.647 119.164C479.465 119.631 479.377 120.13 479.388 120.632C479.399 121.134 479.508 121.628 479.711 122.088C479.913 122.547 480.204 122.962 480.567 123.308L493.413 135.65C494.145 136.35 495.124 136.731 496.136 136.709C497.148 136.687 498.11 136.264 498.81 135.533L523.999 109.223C524.699 108.492 525.661 108.069 526.673 108.047C527.685 108.025 528.664 108.406 529.396 109.107L561.062 139.501C561.793 140.202 562.216 141.165 562.238 142.177C562.259 143.19 561.879 144.17 561.179 144.902L478.187 231.503C477.486 232.234 476.525 232.657 475.513 232.679C474.5 232.701 473.521 232.32 472.79 231.619Z" fill="white"/>
</g>
<mask id="mask13_268_1027" style="mask-type:luminance" maskUnits="userSpaceOnUse" x="311" y="162" width="174" height="81">
<path d="M311.846 174.114L316.722 162.737H484.159L394.861 242.498L311.846 174.114Z" fill="white"/>
</mask>
<g mask="url(#mask13_268_1027)">
<path d="M391.019 231.619L359.353 201.225C358.991 200.878 358.7 200.462 358.499 200.003C358.297 199.544 358.188 199.049 358.178 198.547C358.168 198.045 358.257 197.547 358.44 197.079C358.623 196.612 358.896 196.186 359.244 195.824L384.463 169.491C385.163 168.76 385.544 167.78 385.522 166.767C385.5 165.754 385.078 164.792 384.347 164.091L371.492 151.757C370.762 151.056 369.783 150.673 368.771 150.694C367.759 150.714 366.797 151.136 366.095 151.866L340.876 178.183C340.174 178.914 339.212 179.335 338.2 179.356C337.188 179.376 336.209 178.994 335.479 178.292L331.59 174.549C330.86 173.849 330.437 172.886 330.415 171.873C330.393 170.861 330.774 169.881 331.474 169.149L365.691 133.424C366.392 132.694 367.355 132.272 368.367 132.252C369.379 132.231 370.357 132.614 371.088 133.315L402.754 163.71C403.485 164.411 403.908 165.373 403.93 166.386C403.951 167.399 403.571 168.378 402.871 169.11L377.643 195.42C376.943 196.151 376.563 197.131 376.584 198.144C376.606 199.157 377.029 200.119 377.76 200.82L390.615 213.161C391.346 213.862 392.325 214.243 393.337 214.221C394.349 214.199 395.311 213.776 396.012 213.045L461.008 145.291C461.708 144.559 462.089 143.579 462.067 142.567C462.045 141.554 461.623 140.591 460.892 139.891L448.029 127.549C447.298 126.849 446.319 126.468 445.307 126.489C444.295 126.511 443.333 126.934 442.632 127.666L417.413 153.975C416.712 154.706 415.751 155.13 414.739 155.151C413.726 155.173 412.747 154.792 412.016 154.092L380.35 123.697C379.987 123.351 379.696 122.936 379.494 122.477C379.291 122.018 379.182 121.523 379.171 121.021C379.16 120.519 379.248 120.021 379.43 119.553C379.613 119.085 379.885 118.659 380.233 118.297L414.45 82.5639C415.151 81.8336 416.114 81.412 417.126 81.3915C418.138 81.3711 419.117 81.7536 419.847 82.455L423.735 86.1979C424.098 86.5449 424.388 86.9601 424.589 87.4195C424.791 87.879 424.9 88.3738 424.91 88.8755C424.92 89.3772 424.831 89.876 424.648 90.3432C424.465 90.8105 424.192 91.237 423.844 91.5983L398.625 117.908C397.925 118.639 397.544 119.619 397.566 120.632C397.588 121.645 398.01 122.607 398.741 123.308L411.596 135.65C412.327 136.35 413.307 136.731 414.319 136.709C415.331 136.687 416.293 136.264 416.993 135.533L442.212 109.223C442.913 108.492 443.875 108.069 444.887 108.047C445.899 108.025 446.878 108.406 447.609 109.107L479.276 139.501C480.007 140.202 480.429 141.165 480.451 142.177C480.473 143.19 480.092 144.17 479.392 144.902L396.416 231.503C395.716 232.234 394.754 232.657 393.742 232.679C392.73 232.701 391.75 232.32 391.019 231.619Z" fill="white"/>
</g>
<mask id="mask14_268_1027" style="mask-type:luminance" maskUnits="userSpaceOnUse" x="229" y="162" width="174" height="81">
<path d="M229.779 174.114L234.663 162.737H402.101L312.802 242.498L229.779 174.114Z" fill="white"/>
</mask>
<g mask="url(#mask14_268_1027)">
<path d="M308.96 231.619L277.294 201.225C276.931 200.878 276.64 200.463 276.438 200.004C276.236 199.545 276.126 199.05 276.115 198.549C276.105 198.047 276.193 197.548 276.375 197.08C276.557 196.613 276.83 196.186 277.178 195.824L302.366 169.491C302.714 169.13 302.987 168.704 303.17 168.236C303.353 167.769 303.442 167.27 303.432 166.769C303.422 166.267 303.313 165.772 303.111 165.313C302.91 164.853 302.619 164.438 302.257 164.091L289.402 151.757C288.672 151.056 287.693 150.673 286.681 150.694C285.669 150.714 284.707 151.136 284.005 151.866L258.817 178.199C258.116 178.929 257.153 179.351 256.141 179.371C255.129 179.392 254.15 179.009 253.42 178.308L249.532 174.565C248.802 173.863 248.38 172.9 248.36 171.887C248.34 170.875 248.722 169.895 249.423 169.165L283.64 133.44C284.341 132.709 285.304 132.288 286.316 132.267C287.328 132.247 288.307 132.629 289.037 133.331L320.711 163.725C321.441 164.427 321.862 165.39 321.883 166.403C321.903 167.416 321.521 168.395 320.82 169.126L295.6 195.435C294.899 196.166 294.517 197.145 294.537 198.158C294.558 199.171 294.979 200.134 295.709 200.836L308.587 213.177C309.318 213.877 310.298 214.259 311.31 214.237C312.322 214.215 313.284 213.792 313.984 213.06L378.942 145.291C379.643 144.56 380.025 143.581 380.005 142.568C379.984 141.555 379.563 140.592 378.833 139.891L365.971 127.549C365.239 126.849 364.26 126.468 363.248 126.489C362.236 126.511 361.274 126.934 360.574 127.666L335.354 153.975C334.654 154.706 333.692 155.13 332.68 155.151C331.668 155.173 330.689 154.792 329.957 154.092L298.283 123.697C297.553 122.995 297.132 122.032 297.112 121.019C297.091 120.007 297.473 119.028 298.174 118.297L332.391 82.5639C333.093 81.8336 334.055 81.412 335.067 81.3915C336.079 81.3711 337.058 81.7536 337.788 82.455L341.677 86.1979C342.039 86.5444 342.33 86.9591 342.533 87.4183C342.735 87.8775 342.845 88.3722 342.855 88.8739C342.866 89.3756 342.778 89.8745 342.596 90.342C342.413 90.8095 342.141 91.2365 341.793 91.5983L316.574 117.908C315.873 118.638 315.491 119.618 315.511 120.63C315.531 121.643 315.953 122.606 316.683 123.308L329.584 135.65C330.315 136.35 331.295 136.731 332.307 136.709C333.319 136.687 334.281 136.264 334.981 135.533L360.2 109.223C360.901 108.492 361.863 108.069 362.875 108.047C363.887 108.025 364.866 108.406 365.597 109.107L397.24 139.501C397.97 140.203 398.392 141.166 398.412 142.179C398.432 143.192 398.05 144.171 397.349 144.902L314.357 231.503C313.657 232.234 312.695 232.657 311.683 232.679C310.671 232.701 309.692 232.32 308.96 231.619Z" fill="white"/>
</g>
<mask id="mask15_268_1027" style="mask-type:luminance" maskUnits="userSpaceOnUse" x="393" y="78" width="174" height="81">
<path d="M393.756 147.275L398.64 158.652H566.078L476.779 78.891L393.756 147.275Z" fill="white"/>
</mask>
<g mask="url(#mask15_268_1027)">
<path d="M472.938 89.7696L441.271 120.164C440.541 120.865 440.118 121.828 440.096 122.84C440.074 123.853 440.455 124.833 441.155 125.565L466.374 151.882C466.722 152.243 466.996 152.67 467.179 153.137C467.361 153.604 467.45 154.103 467.44 154.605C467.43 155.106 467.321 155.601 467.12 156.061C466.918 156.52 466.628 156.935 466.265 157.282L453.411 169.616C452.68 170.317 451.702 170.7 450.69 170.679C449.678 170.659 448.715 170.237 448.014 169.507L422.794 143.19C422.447 142.827 422.033 142.537 421.573 142.335C421.114 142.133 420.62 142.024 420.118 142.014C419.617 142.004 419.119 142.093 418.652 142.276C418.185 142.459 417.758 142.733 417.397 143.081L413.509 146.816C412.779 147.518 412.358 148.481 412.337 149.494C412.317 150.506 412.699 151.486 413.4 152.216L447.617 187.941C447.963 188.305 448.378 188.596 448.837 188.798C449.296 189 449.79 189.11 450.291 189.121C450.793 189.132 451.291 189.044 451.759 188.861C452.226 188.679 452.652 188.406 453.014 188.058L484.68 157.663C485.043 157.317 485.333 156.901 485.535 156.442C485.736 155.982 485.845 155.488 485.855 154.986C485.865 154.484 485.776 153.985 485.593 153.518C485.411 153.051 485.137 152.624 484.789 152.263L459.57 125.954C459.222 125.592 458.95 125.165 458.767 124.697C458.585 124.23 458.497 123.731 458.508 123.229C458.518 122.728 458.628 122.233 458.83 121.774C459.033 121.315 459.324 120.9 459.686 120.553L472.541 108.212C472.903 107.864 473.329 107.591 473.797 107.409C474.264 107.226 474.762 107.138 475.264 107.149C475.765 107.16 476.26 107.27 476.718 107.472C477.177 107.674 477.592 107.966 477.938 108.329L542.896 176.098C543.244 176.459 543.517 176.886 543.7 177.353C543.883 177.82 543.972 178.319 543.962 178.821C543.952 179.322 543.843 179.817 543.641 180.277C543.44 180.736 543.149 181.151 542.787 181.498L529.932 193.84C529.201 194.54 528.222 194.921 527.21 194.899C526.198 194.878 525.236 194.454 524.535 193.723L499.316 167.414C498.616 166.682 497.654 166.259 496.642 166.237C495.63 166.216 494.65 166.597 493.919 167.297L462.245 197.692C461.515 198.394 461.094 199.357 461.073 200.369C461.053 201.382 461.435 202.361 462.136 203.092L496.353 238.817C496.699 239.18 497.114 239.471 497.573 239.674C498.032 239.876 498.526 239.986 499.027 239.997C499.529 240.008 500.027 239.919 500.495 239.737C500.962 239.554 501.388 239.282 501.75 238.934L505.638 235.191C506.368 234.489 506.79 233.526 506.81 232.513C506.83 231.501 506.448 230.521 505.747 229.791L480.528 203.481C479.827 202.75 479.445 201.771 479.465 200.758C479.485 199.746 479.907 198.783 480.637 198.081L493.491 185.739C494.223 185.039 495.202 184.658 496.214 184.68C497.226 184.702 498.188 185.125 498.888 185.856L524.108 212.165C524.808 212.897 525.77 213.32 526.782 213.342C527.794 213.364 528.773 212.982 529.505 212.282L561.179 181.887C561.543 181.543 561.835 181.131 562.039 180.673C562.244 180.216 562.356 179.723 562.369 179.222C562.383 178.721 562.298 178.222 562.119 177.754C561.94 177.287 561.671 176.859 561.327 176.495L478.335 89.8863C477.988 89.5233 477.574 89.2322 477.115 89.0298C476.656 88.8274 476.162 88.7176 475.66 88.7067C475.159 88.6959 474.66 88.7842 474.193 88.9666C473.726 89.149 473.299 89.4219 472.938 89.7696Z" fill="white"/>
</g>
<mask id="mask16_268_1027" style="mask-type:luminance" maskUnits="userSpaceOnUse" x="311" y="78" width="174" height="81">
<path d="M311.986 147.275L316.869 158.652H484.307L395.008 78.891L311.986 147.275Z" fill="white"/>
</mask>
<g mask="url(#mask16_268_1027)">
<path d="M391.167 89.7696L359.5 120.164C358.77 120.865 358.347 121.828 358.325 122.84C358.303 123.853 358.684 124.833 359.384 125.565L384.611 151.882C385.311 152.614 385.692 153.593 385.67 154.606C385.648 155.619 385.225 156.581 384.494 157.282L371.64 169.616C370.909 170.317 369.931 170.7 368.919 170.679C367.907 170.659 366.944 170.237 366.243 169.507L341.023 143.19C340.677 142.827 340.262 142.537 339.802 142.335C339.343 142.133 338.849 142.024 338.347 142.014C337.846 142.004 337.348 142.093 336.881 142.276C336.414 142.459 335.987 142.733 335.626 143.081L331.738 146.816C331.375 147.163 331.084 147.577 330.882 148.036C330.68 148.496 330.57 148.99 330.559 149.492C330.548 149.994 330.637 150.493 330.819 150.96C331.001 151.428 331.274 151.855 331.621 152.216L365.838 187.941C366.185 188.305 366.599 188.596 367.058 188.798C367.517 189 368.011 189.11 368.513 189.121C369.014 189.132 369.513 189.044 369.98 188.861C370.447 188.679 370.874 188.406 371.235 188.058L402.902 157.663C403.633 156.963 404.055 156 404.077 154.987C404.099 153.975 403.718 152.995 403.018 152.263L377.799 125.954C377.099 125.222 376.718 124.242 376.74 123.229C376.762 122.217 377.185 121.254 377.915 120.553L390.77 108.212C391.132 107.864 391.558 107.591 392.026 107.409C392.493 107.226 392.991 107.138 393.493 107.149C393.994 107.16 394.489 107.27 394.948 107.472C395.406 107.674 395.821 107.966 396.167 108.329L461.133 176.098C461.833 176.83 462.214 177.81 462.192 178.822C462.17 179.835 461.747 180.798 461.016 181.498L448.177 193.84C447.446 194.54 446.466 194.921 445.454 194.899C444.442 194.878 443.48 194.454 442.78 193.723L417.561 167.414C416.86 166.682 415.898 166.259 414.886 166.237C413.874 166.216 412.895 166.597 412.164 167.297L380.49 197.692C379.76 198.394 379.338 199.357 379.318 200.369C379.297 201.382 379.68 202.361 380.381 203.092L414.598 238.817C414.944 239.18 415.358 239.471 415.817 239.674C416.276 239.876 416.771 239.986 417.272 239.997C417.773 240.008 418.272 239.919 418.739 239.737C419.206 239.554 419.633 239.282 419.995 238.934L423.883 235.191C424.613 234.489 425.034 233.526 425.055 232.513C425.075 231.501 424.693 230.521 423.992 229.791L398.796 203.481C398.095 202.75 397.712 201.771 397.733 200.758C397.753 199.746 398.175 198.783 398.905 198.081L411.759 185.739C412.49 185.039 413.47 184.658 414.482 184.68C415.494 184.702 416.456 185.125 417.156 185.856L442.383 212.165C442.73 212.529 443.145 212.821 443.604 213.024C444.063 213.227 444.558 213.338 445.06 213.35C445.562 213.361 446.061 213.273 446.53 213.092C446.998 212.91 447.425 212.637 447.788 212.29L479.454 181.895C479.817 181.548 480.107 181.133 480.309 180.674C480.51 180.214 480.619 179.719 480.629 179.218C480.639 178.716 480.55 178.217 480.368 177.75C480.185 177.283 479.911 176.856 479.563 176.495L396.564 89.8863C396.217 89.5233 395.803 89.2322 395.344 89.0298C394.885 88.8274 394.391 88.7176 393.889 88.7067C393.388 88.6959 392.889 88.7842 392.422 88.9666C391.955 89.149 391.528 89.4219 391.167 89.7696Z" fill="white"/>
</g>
<mask id="mask17_268_1027" style="mask-type:luminance" maskUnits="userSpaceOnUse" x="229" y="78" width="174" height="81">
<path d="M229.927 147.275L234.811 158.652H402.248L312.95 78.891L229.927 147.275Z" fill="white"/>
</mask>
<g mask="url(#mask17_268_1027)">
<path d="M309.108 89.7696L277.434 120.164C276.704 120.866 276.283 121.829 276.262 122.842C276.242 123.855 276.624 124.834 277.325 125.565L302.545 151.882C303.246 152.613 303.628 153.592 303.608 154.605C303.587 155.617 303.166 156.58 302.436 157.282L289.581 169.616C288.851 170.317 287.872 170.7 286.86 170.679C285.848 170.659 284.886 170.237 284.184 169.507L258.957 143.19C258.61 142.827 258.195 142.537 257.736 142.335C257.277 142.133 256.782 142.024 256.281 142.014C255.78 142.004 255.281 142.093 254.814 142.276C254.347 142.459 253.921 142.733 253.56 143.081L249.672 146.816C249.309 147.163 249.019 147.578 248.818 148.038C248.616 148.497 248.507 148.992 248.497 149.494C248.487 149.995 248.576 150.494 248.759 150.961C248.942 151.429 249.215 151.855 249.563 152.216L283.78 187.941C284.126 188.305 284.541 188.596 284.999 188.798C285.458 189 285.953 189.11 286.454 189.121C286.956 189.132 287.454 189.044 287.921 188.861C288.389 188.679 288.815 188.406 289.177 188.058L320.851 157.663C321.581 156.962 322.002 155.999 322.023 154.986C322.043 153.973 321.661 152.994 320.96 152.263L295.756 125.954C295.055 125.223 294.673 124.244 294.693 123.231C294.713 122.218 295.135 121.255 295.865 120.553L308.719 108.212C309.081 107.864 309.508 107.591 309.975 107.409C310.442 107.226 310.941 107.138 311.442 107.149C311.943 107.16 312.438 107.27 312.897 107.472C313.356 107.674 313.77 107.966 314.116 108.329L379.082 176.098C379.783 176.829 380.165 177.808 380.145 178.821C380.124 179.833 379.703 180.796 378.973 181.498L366.134 193.84C365.403 194.54 364.423 194.921 363.411 194.899C362.399 194.878 361.437 194.454 360.737 193.723L335.494 167.414C334.794 166.682 333.832 166.259 332.82 166.237C331.808 166.216 330.829 166.597 330.097 167.297L298.431 197.692C297.7 198.393 297.277 199.355 297.255 200.368C297.233 201.38 297.614 202.36 298.314 203.092L332.531 238.817C332.878 239.18 333.292 239.471 333.751 239.674C334.21 239.876 334.704 239.986 335.206 239.997C335.707 240.008 336.206 239.919 336.673 239.737C337.14 239.554 337.567 239.282 337.928 238.934L341.817 235.191C342.547 234.49 342.97 233.528 342.992 232.515C343.014 231.502 342.633 230.522 341.933 229.791L316.753 203.481C316.405 203.12 316.131 202.693 315.948 202.226C315.765 201.759 315.676 201.26 315.687 200.758C315.697 200.257 315.806 199.762 316.007 199.302C316.209 198.843 316.499 198.428 316.862 198.081L329.716 185.739C330.447 185.039 331.427 184.658 332.439 184.68C333.451 184.702 334.413 185.125 335.113 185.856L360.333 212.165C361.033 212.897 361.995 213.32 363.007 213.342C364.019 213.364 364.998 212.982 365.73 212.282L397.404 181.887C398.133 181.186 398.555 180.222 398.575 179.21C398.596 178.197 398.213 177.218 397.513 176.487L314.505 89.8863C314.159 89.5233 313.744 89.2322 313.286 89.0298C312.827 88.8274 312.332 88.7176 311.831 88.7067C311.33 88.6959 310.831 88.7842 310.364 88.9666C309.896 89.149 309.47 89.4219 309.108 89.7696Z" fill="white"/>
</g>
</g>
<g opacity="0.04">
<mask id="mask18_268_1027" style="mask-type:luminance" maskUnits="userSpaceOnUse" x="601" y="44" width="174" height="80">
<path d="M601.858 55.4375L606.742 44.0609H774.18L684.881 123.822L601.858 55.4375Z" fill="white"/>
</mask>
<g mask="url(#mask18_268_1027)">
<path d="M681.039 112.935L649.373 82.5406C648.642 81.8398 648.219 80.8772 648.197 79.8645C648.176 78.8519 648.556 77.8719 649.256 77.1402L674.484 50.8308C675.184 50.0991 675.564 49.1191 675.543 48.1065C675.521 47.0938 675.098 46.1312 674.367 45.4304L661.512 33.0967C661.151 32.7484 660.725 32.475 660.258 32.292C659.791 32.1089 659.293 32.0199 658.791 32.03C658.29 32.0401 657.795 32.1492 657.336 32.351C656.877 32.5527 656.462 32.8431 656.115 33.2056L630.896 59.515C630.55 59.878 630.135 60.1691 629.676 60.3715C629.217 60.5739 628.723 60.6837 628.222 60.6946C627.72 60.7054 627.222 60.6171 626.754 60.4347C626.287 60.2523 625.86 59.9795 625.499 59.6317L621.611 55.8888C621.248 55.5423 620.957 55.1276 620.755 54.6684C620.552 54.2092 620.443 53.7146 620.432 53.2129C620.421 52.7112 620.509 52.2122 620.691 51.7447C620.874 51.2772 621.146 50.8503 621.494 50.4884L655.711 14.7634C656.058 14.4009 656.473 14.1104 656.932 13.9087C657.391 13.707 657.885 13.5979 658.387 13.5878C658.888 13.5777 659.387 13.6667 659.854 13.8497C660.321 14.0328 660.747 14.3062 661.108 14.6545L692.774 45.0491C693.136 45.3961 693.427 45.8113 693.628 46.2708C693.83 46.7302 693.939 47.225 693.949 47.7267C693.959 48.2284 693.87 48.7272 693.687 49.1944C693.504 49.6617 693.231 50.0882 692.883 50.4495L667.664 76.7589C666.964 77.4907 666.583 78.4706 666.605 79.4832C666.626 80.4959 667.049 81.4585 667.78 82.1593L680.635 94.493C680.996 94.8412 681.422 95.1147 681.889 95.2978C682.356 95.4808 682.855 95.5698 683.356 95.5597C683.857 95.5496 684.352 95.4405 684.811 95.2388C685.27 95.037 685.685 94.7466 686.032 94.384L750.99 26.6069C751.338 26.2456 751.611 25.819 751.794 25.3518C751.977 24.8846 752.066 24.3858 752.056 23.8841C752.046 23.3824 751.937 22.8876 751.735 22.4281C751.533 21.9686 751.243 21.5535 750.881 21.2065L738.026 8.87278C737.296 8.17141 736.317 7.7889 735.305 7.80933C734.293 7.82975 733.331 8.25142 732.629 8.98169L707.41 35.2989C706.708 36.0291 705.746 36.4508 704.734 36.4713C703.722 36.4917 702.743 36.1092 702.013 35.4078L670.339 5.01312C669.609 4.31126 669.187 3.34813 669.167 2.33546C669.147 1.3228 669.529 0.343479 670.23 -0.387268L704.447 -36.1123C704.794 -36.4748 705.208 -36.7653 705.668 -36.967C706.127 -37.1687 706.621 -37.2778 707.123 -37.2879C707.624 -37.298 708.123 -37.209 708.589 -37.026C709.056 -36.8429 709.483 -36.5695 709.844 -36.2212L713.732 -32.4861C714.462 -31.7842 714.883 -30.8211 714.904 -29.8085C714.924 -28.7958 714.542 -27.8165 713.841 -27.0857L688.621 -0.768555C687.921 -0.0378113 687.538 0.941513 687.559 1.95417C687.579 2.96684 688.001 3.92997 688.73 4.63183L701.647 16.9733C702.377 17.6747 703.356 18.0572 704.368 18.0368C705.38 18.0164 706.343 17.5947 707.044 16.8644L732.271 -9.48389C732.973 -10.2142 733.935 -10.6359 734.947 -10.6563C735.959 -10.6767 736.938 -10.2942 737.668 -9.59284L769.335 20.8641C769.697 21.2111 769.987 21.6262 770.189 22.0857C770.391 22.5452 770.499 23.04 770.51 23.5417C770.52 24.0434 770.431 24.5422 770.248 25.0094C770.065 25.4766 769.792 25.9032 769.444 26.2645L686.436 112.826C686.089 113.189 685.675 113.479 685.215 113.681C684.756 113.883 684.262 113.992 683.76 114.002C683.259 114.012 682.76 113.923 682.294 113.74C681.827 113.557 681.4 113.283 681.039 112.935Z" fill="white"/>
</g>
<mask id="mask19_268_1027" style="mask-type:luminance" maskUnits="userSpaceOnUse" x="520" y="44" width="173" height="80">
<path d="M520.095 55.4375L524.971 44.0609H692.409L603.11 123.822L520.095 55.4375Z" fill="white"/>
</mask>
<g mask="url(#mask19_268_1027)">
<path d="M599.268 112.935L567.602 82.5406C566.871 81.8398 566.448 80.8772 566.427 79.8645C566.405 78.8519 566.786 77.8719 567.486 77.1402L592.713 50.8308C593.413 50.0991 593.794 49.1191 593.772 48.1065C593.75 47.0938 593.327 46.1312 592.596 45.4304L579.741 33.0967C579.38 32.7484 578.954 32.475 578.487 32.292C578.02 32.1089 577.522 32.0199 577.02 32.03C576.519 32.0401 576.024 32.1492 575.565 32.351C575.106 32.5527 574.691 32.8431 574.344 33.2056L549.125 59.515C548.779 59.878 548.364 60.1691 547.905 60.3715C547.446 60.5739 546.952 60.6837 546.451 60.6946C545.949 60.7054 545.451 60.6171 544.983 60.4347C544.516 60.2523 544.09 59.9795 543.728 59.6317L539.84 55.8888C539.109 55.188 538.686 54.2254 538.664 53.2128C538.642 52.2001 539.023 51.2202 539.723 50.4884L573.94 14.7634C574.287 14.4009 574.702 14.1104 575.161 13.9087C575.62 13.707 576.115 13.5979 576.616 13.5878C577.117 13.5777 577.616 13.6667 578.083 13.8497C578.55 14.0328 578.976 14.3062 579.337 14.6545L611.003 45.0491C611.734 45.75 612.157 46.7125 612.179 47.7251C612.201 48.7378 611.82 49.7178 611.12 50.4495L585.893 76.7589C585.193 77.4907 584.812 78.4706 584.834 79.4832C584.856 80.4959 585.278 81.4585 586.009 82.1593L598.864 94.493C599.225 94.8412 599.651 95.1147 600.118 95.2978C600.585 95.4808 601.084 95.5698 601.585 95.5597C602.087 95.5496 602.581 95.4405 603.04 95.2388C603.499 95.037 603.914 94.7466 604.261 94.384L669.227 26.6069C669.927 25.8751 670.307 24.8952 670.286 23.8825C670.264 22.8699 669.841 21.9073 669.11 21.2065L656.255 8.87278C655.525 8.17141 654.546 7.7889 653.534 7.80933C652.522 7.82975 651.56 8.25142 650.858 8.98169L625.639 35.2989C624.937 36.0291 623.975 36.4508 622.963 36.4713C621.951 36.4917 620.972 36.1092 620.242 35.4078L588.568 5.01312C587.838 4.31126 587.417 3.34813 587.396 2.33546C587.376 1.3228 587.758 0.343479 588.459 -0.387268L622.676 -36.1123C623.023 -36.4748 623.438 -36.7653 623.897 -36.967C624.356 -37.1687 624.85 -37.2778 625.352 -37.2879C625.853 -37.298 626.352 -37.209 626.819 -37.026C627.286 -36.8429 627.712 -36.5695 628.073 -36.2212L631.961 -32.4861C632.691 -31.7842 633.113 -30.8211 633.133 -29.8085C633.153 -28.7958 632.771 -27.8165 632.07 -27.0857L606.913 -0.768555C606.565 -0.406723 606.293 0.0202103 606.11 0.487728C605.928 0.955246 605.84 1.45417 605.851 1.95588C605.862 2.4576 605.971 2.95221 606.174 3.41141C606.376 3.87061 606.667 4.28536 607.03 4.63183L619.876 16.9733C620.607 17.6747 621.585 18.0572 622.597 18.0368C623.609 18.0164 624.572 17.5947 625.273 16.8644L650.501 -9.48389C651.202 -10.2142 652.165 -10.6359 653.177 -10.6563C654.189 -10.6767 655.167 -10.2942 655.898 -9.59284L687.564 20.8641C688.295 21.5649 688.718 22.5275 688.739 23.5402C688.761 24.5528 688.38 25.5327 687.681 26.2645L604.665 112.826C604.319 113.189 603.904 113.479 603.445 113.681C602.985 113.883 602.491 113.992 601.99 114.002C601.488 114.012 600.99 113.923 600.523 113.74C600.056 113.557 599.63 113.283 599.268 112.935Z" fill="white"/>
</g>
<mask id="mask20_268_1027" style="mask-type:luminance" maskUnits="userSpaceOnUse" x="438" y="44" width="173" height="80">
<path d="M438.029 55.4375L442.912 44.0609H610.35L521.051 123.822L438.029 55.4375Z" fill="white"/>
</mask>
<g mask="url(#mask20_268_1027)">
<path d="M517.21 112.935L485.536 82.5406C484.806 81.8387 484.385 80.8756 484.364 79.8629C484.344 78.8503 484.726 77.8709 485.427 77.1402L510.646 50.8308C511.347 50.1001 511.73 49.1208 511.709 48.1081C511.689 47.0954 511.267 46.1323 510.538 45.4304L497.683 33.0967C497.322 32.7484 496.896 32.475 496.429 32.292C495.962 32.1089 495.463 32.0199 494.962 32.03C494.46 32.0401 493.966 32.1492 493.507 32.351C493.048 32.5527 492.633 32.8431 492.286 33.2056L467.059 59.515C466.712 59.878 466.298 60.1691 465.839 60.3715C465.38 60.5739 464.886 60.6837 464.384 60.6946C463.883 60.7054 463.384 60.6171 462.917 60.4347C462.45 60.2523 462.023 59.9795 461.662 59.6317L457.773 55.8888C457.044 55.187 456.622 54.2238 456.602 53.2112C456.581 52.1985 456.964 51.2192 457.665 50.4884L491.882 14.7634C492.228 14.4009 492.643 14.1104 493.102 13.9087C493.562 13.707 494.056 13.5979 494.557 13.5878C495.059 13.5777 495.557 13.6667 496.024 13.8497C496.491 14.0328 496.917 14.3062 497.278 14.6545L528.953 45.0491C529.682 45.751 530.104 46.7141 530.124 47.7268C530.145 48.7394 529.762 49.7188 529.061 50.4495L503.857 76.7589C503.157 77.4896 502.774 78.469 502.795 79.4816C502.815 80.4943 503.237 81.4574 503.966 82.1593L516.821 94.493C517.182 94.8412 517.608 95.1147 518.075 95.2978C518.542 95.4808 519.041 95.5698 519.542 95.5597C520.044 95.5496 520.538 95.4405 520.997 95.2388C521.456 95.037 521.871 94.7466 522.218 94.384L587.184 26.6069C587.885 25.8761 588.267 24.8968 588.246 23.8842C588.226 22.8715 587.805 21.9084 587.075 21.2065L574.22 8.87278C573.49 8.17141 572.511 7.7889 571.499 7.80933C570.487 7.82975 569.525 8.25142 568.823 8.98169L543.596 35.2989C542.894 36.0291 541.932 36.4508 540.92 36.4713C539.908 36.4917 538.929 36.1092 538.199 35.4078L506.533 5.01312C506.17 4.66613 505.88 4.25098 505.678 3.79151C505.477 3.33203 505.368 2.83727 505.358 2.33556C505.348 1.83384 505.437 1.33507 505.62 0.867828C505.802 0.400589 506.076 -0.0259399 506.424 -0.387268L540.641 -36.1123C540.988 -36.4748 541.402 -36.7653 541.862 -36.967C542.321 -37.1687 542.815 -37.2778 543.317 -37.2879C543.818 -37.298 544.316 -37.209 544.783 -37.026C545.25 -36.8429 545.677 -36.5695 546.038 -36.2212L549.926 -32.4861C550.657 -31.7853 551.08 -30.8227 551.102 -29.8101C551.123 -28.7974 550.743 -27.8175 550.043 -27.0857L524.854 -0.768555C524.506 -0.407227 524.233 0.0192986 524.05 0.486542C523.867 0.953781 523.778 1.45251 523.788 1.95422C523.798 2.45594 523.907 2.95074 524.109 3.41022C524.311 3.8697 524.601 4.28484 524.963 4.63183L537.818 16.9733C538.548 17.6747 539.527 18.0572 540.539 18.0368C541.551 18.0164 542.513 17.5947 543.215 16.8644L568.434 -9.48389C569.136 -10.2142 570.098 -10.6359 571.11 -10.6563C572.122 -10.6767 573.101 -10.2942 573.831 -9.59284L605.505 20.8641C606.235 21.566 606.657 22.5291 606.677 23.5418C606.697 24.5544 606.315 25.5338 605.614 26.2645L522.607 112.826C522.26 113.189 521.845 113.479 521.386 113.681C520.927 113.883 520.432 113.992 519.931 114.002C519.43 114.012 518.931 113.923 518.464 113.74C517.997 113.557 517.571 113.283 517.21 112.935Z" fill="white"/>
</g>
<mask id="mask21_268_1027" style="mask-type:luminance" maskUnits="userSpaceOnUse" x="602" y="-40" width="173" height="80">
<path d="M602.006 28.5912L606.89 39.9755H774.327L685.029 -39.793L602.006 28.5912Z" fill="white"/>
</mask>
<g mask="url(#mask21_268_1027)">
<path d="M681.187 -28.9377L649.521 1.45694C649.158 1.80342 648.867 2.21817 648.665 2.67737C648.463 3.13657 648.353 3.63118 648.342 4.13289C648.331 4.63461 648.419 5.13353 648.602 5.60105C648.784 6.06857 649.057 6.4955 649.404 6.85733L674.624 33.1667C675.325 33.8975 675.707 34.8768 675.686 35.8894C675.666 36.9021 675.245 37.8652 674.515 38.5671L661.645 50.9398C660.913 51.6401 659.934 52.0212 658.922 51.9993C657.91 51.9774 656.948 51.5543 656.248 50.823L631.028 24.5136C630.328 23.7823 629.366 23.3592 628.354 23.3373C627.342 23.3154 626.362 23.6965 625.631 24.3969L621.743 28.1398C621.013 28.8417 620.592 29.8048 620.571 30.8175C620.551 31.8301 620.933 32.8095 621.634 33.5402L655.851 69.2653C656.551 69.9966 657.513 70.4197 658.525 70.4416C659.537 70.4635 660.517 70.0823 661.248 69.382L692.922 38.9873C693.652 38.2854 694.073 37.3223 694.094 36.3097C694.114 35.297 693.732 34.3176 693.031 33.5869L667.866 7.26978C667.165 6.53903 666.783 5.55966 666.803 4.547C666.823 3.53434 667.245 2.57125 667.975 1.86939L680.829 -10.4644C681.56 -11.1657 682.538 -11.5483 683.55 -11.5278C684.562 -11.5074 685.525 -11.0857 686.226 -10.3554L751.192 57.4217C751.893 58.1525 752.275 59.1319 752.255 60.1445C752.234 61.1572 751.813 62.1203 751.083 62.8221L738.228 75.1559C737.498 75.8573 736.519 76.2397 735.507 76.2193C734.495 76.1989 733.533 75.7772 732.831 75.0469L707.612 48.7298C706.911 47.9995 705.948 47.5778 704.936 47.5574C703.924 47.537 702.945 47.9195 702.215 48.6208L670.541 79.0155C670.179 79.3625 669.888 79.7776 669.687 80.2371C669.485 80.6966 669.376 81.1914 669.366 81.6931C669.356 82.1948 669.445 82.6936 669.628 83.1609C669.811 83.6281 670.084 84.0546 670.432 84.4159L704.649 120.141C705.349 120.872 706.311 121.295 707.323 121.317C708.335 121.339 709.315 120.958 710.046 120.258L713.934 116.515C714.297 116.168 714.588 115.754 714.79 115.294C714.993 114.835 715.102 114.341 715.113 113.839C715.124 113.337 715.036 112.838 714.853 112.371C714.671 111.903 714.398 111.476 714.051 111.114L688.863 84.7972C688.162 84.0664 687.779 83.0871 687.8 82.0745C687.82 81.0618 688.242 80.0987 688.971 79.3968L701.826 67.0631C702.556 66.3617 703.535 65.9792 704.547 65.9996C705.559 66.0201 706.522 66.4418 707.223 67.172L732.412 93.4892C733.113 94.2195 734.075 94.6411 735.087 94.6616C736.099 94.682 737.078 94.2995 737.808 93.5981L769.483 63.2034C770.212 62.5016 770.634 61.5385 770.654 60.5258C770.675 59.5132 770.292 58.5338 769.591 57.803L686.584 -28.7977C685.887 -29.5322 684.927 -29.9596 683.915 -29.9859C682.903 -30.0121 681.921 -29.6351 681.187 -28.9377Z" fill="white"/>
</g>
<mask id="mask22_268_1027" style="mask-type:luminance" maskUnits="userSpaceOnUse" x="520" y="-40" width="173" height="80">
<path d="M520.235 28.5912L525.119 39.9755H692.556L603.258 -39.793L520.235 28.5912Z" fill="white"/>
</mask>
<g mask="url(#mask22_268_1027)">
<path d="M599.432 -28.9377L567.75 1.48806C567.019 2.18888 566.596 3.15143 566.574 4.1641C566.552 5.17677 566.933 6.15668 567.633 6.88845L592.853 33.1978C593.201 33.5592 593.474 33.9857 593.657 34.4529C593.84 34.9202 593.929 35.4189 593.919 35.9207C593.909 36.4224 593.8 36.9171 593.598 37.3766C593.396 37.8361 593.106 38.2512 592.744 38.5982L579.889 50.9398C579.158 51.6401 578.179 52.0212 577.167 51.9993C576.155 51.9774 575.193 51.5543 574.492 50.823L549.273 24.5136C548.572 23.7823 547.61 23.3592 546.598 23.3373C545.586 23.3154 544.607 23.6965 543.876 24.3969L539.988 28.1398C539.258 28.8417 538.836 29.8048 538.816 30.8175C538.795 31.8301 539.178 32.8095 539.879 33.5402L574.096 69.2653C574.796 69.9966 575.758 70.4197 576.77 70.4416C577.782 70.4635 578.761 70.0823 579.493 69.382L611.159 38.9873C611.521 38.6403 611.811 38.2252 612.013 37.7657C612.215 37.3062 612.324 36.8114 612.334 36.3097C612.344 35.808 612.255 35.3092 612.072 34.842C611.889 34.3748 611.616 33.9482 611.268 33.5869L586.048 7.26978C585.701 6.90795 585.428 6.48102 585.246 6.0135C585.063 5.54598 584.975 5.04706 584.986 4.54534C584.997 4.04362 585.107 3.54897 585.309 3.08977C585.511 2.63057 585.802 2.21587 586.165 1.86939L599.02 -10.4644C599.75 -11.1657 600.729 -11.5483 601.741 -11.5278C602.753 -11.5074 603.715 -11.0857 604.417 -10.3554L669.421 57.4373C669.769 57.7987 670.042 58.2252 670.225 58.6924C670.408 59.1597 670.497 59.6584 670.487 60.1602C670.477 60.6619 670.368 61.1566 670.166 61.6161C669.965 62.0756 669.675 62.4907 669.312 62.8377L656.458 75.1714C655.727 75.8728 654.749 76.2553 653.737 76.2349C652.725 76.2145 651.762 75.7928 651.061 75.0625L625.841 48.7454C625.14 48.0151 624.177 47.5934 623.165 47.573C622.153 47.5525 621.174 47.935 620.444 48.6364L588.77 79.0311C588.04 79.733 587.619 80.6961 587.598 81.7088C587.578 82.7214 587.96 83.7007 588.661 84.4315L622.878 120.156C623.579 120.888 624.541 121.311 625.553 121.333C626.565 121.355 627.544 120.974 628.275 120.273L632.163 116.53C632.893 115.828 633.315 114.865 633.335 113.853C633.356 112.84 632.973 111.861 632.272 111.13L607.053 84.8128C606.352 84.082 605.97 83.1027 605.99 82.09C606.01 81.0774 606.432 80.1142 607.162 79.4124L620.016 67.0787C620.747 66.3773 621.725 65.9948 622.737 66.0152C623.749 66.0356 624.712 66.4574 625.413 67.1876L650.633 93.5047C651.334 94.235 652.297 94.6567 653.309 94.6771C654.321 94.6976 655.3 94.3151 656.03 93.6137L687.704 63.219C688.066 62.872 688.356 62.4569 688.558 61.9974C688.76 61.5379 688.869 61.0432 688.879 60.5414C688.889 60.0397 688.8 59.541 688.617 59.0737C688.434 58.6065 688.161 58.18 687.813 57.8186L604.813 -28.7977C604.117 -29.5275 603.16 -29.9518 602.151 -29.9781C601.143 -30.0043 600.165 -29.6303 599.432 -28.9377Z" fill="white"/>
</g>
<mask id="mask23_268_1027" style="mask-type:luminance" maskUnits="userSpaceOnUse" x="438" y="-40" width="173" height="80">
<path d="M438.176 28.5912L443.06 39.9755H610.498L521.199 -39.793L438.176 28.5912Z" fill="white"/>
</mask>
<g mask="url(#mask23_268_1027)">
<path d="M517.358 -28.9377L485.684 1.48805C484.954 2.18992 484.532 3.15305 484.512 4.16571C484.492 5.17838 484.874 6.1577 485.575 6.88844L510.779 33.1978C511.48 33.9286 511.862 34.9079 511.841 35.9206C511.821 36.9333 511.4 37.8963 510.67 38.5982L497.815 50.9398C497.084 51.6401 496.104 52.0212 495.092 51.9993C494.08 51.9774 493.118 51.5543 492.418 50.823L467.23 24.5136C466.529 23.7823 465.567 23.3592 464.555 23.3373C463.543 23.3154 462.564 23.6965 461.833 24.3969L457.944 28.1398C457.582 28.4868 457.292 28.902 457.09 29.3614C456.889 29.8209 456.78 30.3157 456.77 30.8174C456.759 31.3191 456.848 31.8179 457.031 32.2852C457.214 32.7524 457.488 33.1789 457.836 33.5402L492.053 69.2653C492.753 69.9966 493.715 70.4197 494.727 70.4416C495.739 70.4635 496.718 70.0823 497.45 69.382L529.116 38.9873C529.479 38.6408 529.77 38.2261 529.972 37.7669C530.174 37.3077 530.284 36.8131 530.295 36.3113C530.305 35.8096 530.217 35.3107 530.035 34.8432C529.853 34.3757 529.58 33.9487 529.232 33.5869L504.013 7.26978C503.665 6.90845 503.392 6.48192 503.209 6.01468C503.026 5.54744 502.937 5.04866 502.947 4.54695C502.957 4.04524 503.066 3.55043 503.268 3.09095C503.469 2.63147 503.76 2.21638 504.122 1.86939L517 -10.4644C517.73 -11.1657 518.709 -11.5483 519.721 -11.5278C520.733 -11.5074 521.695 -11.0857 522.397 -10.3554L587.331 57.4373C587.679 57.7992 587.952 58.2261 588.134 58.6936C588.316 59.1611 588.404 59.6601 588.394 60.1618C588.383 60.6635 588.273 61.1581 588.071 61.6173C587.868 62.0765 587.578 62.4912 587.215 62.8377L574.36 75.1714C573.63 75.8728 572.651 76.2553 571.639 76.2349C570.627 76.2145 569.665 75.7928 568.963 75.0625L543.744 48.7454C543.042 48.0151 542.08 47.5934 541.068 47.573C540.056 47.5525 539.077 47.935 538.347 48.6364L506.68 79.0311C505.95 79.7319 505.527 80.6945 505.505 81.7071C505.483 82.7198 505.864 83.6997 506.564 84.4315L540.781 120.157C541.481 120.888 542.443 121.311 543.455 121.333C544.467 121.355 545.446 120.974 546.178 120.273L550.066 116.53C550.797 115.83 551.22 114.867 551.242 113.854C551.263 112.842 550.883 111.862 550.183 111.13L524.955 84.8128C524.255 84.081 523.875 83.1011 523.896 82.0884C523.918 81.0757 524.341 80.1132 525.072 79.4124L537.997 67.0631C538.727 66.3617 539.706 65.9792 540.718 65.9996C541.73 66.0201 542.692 66.4418 543.394 67.172L568.613 93.4892C569.315 94.2195 570.277 94.6411 571.289 94.6616C572.301 94.682 573.28 94.2995 574.01 93.5981L605.653 63.2034C606.016 62.857 606.307 62.4423 606.509 61.9831C606.711 61.5239 606.821 61.0292 606.832 60.5275C606.843 60.0258 606.755 59.5268 606.572 59.0593C606.39 58.5918 606.117 58.1649 605.77 57.803L522.755 -28.7977C522.057 -29.5322 521.097 -29.9596 520.085 -29.9859C519.073 -30.0121 518.092 -29.6351 517.358 -28.9377Z" fill="white"/>
</g>
<mask id="mask24_268_1027" style="mask-type:luminance" maskUnits="userSpaceOnUse" x="639" y="162" width="173" height="81">
<path d="M639.209 174.114L644.085 162.737H811.531L722.224 242.498L639.209 174.114Z" fill="white"/>
</mask>
<g mask="url(#mask24_268_1027)">
<path d="M718.414 231.619L686.747 201.225C686.385 200.878 686.095 200.462 685.893 200.003C685.692 199.544 685.583 199.049 685.573 198.547C685.562 198.045 685.651 197.547 685.834 197.079C686.017 196.612 686.291 196.186 686.639 195.824L711.827 169.491C712.174 169.13 712.447 168.703 712.629 168.235C712.812 167.768 712.9 167.269 712.889 166.767C712.878 166.265 712.769 165.771 712.566 165.312C712.364 164.852 712.073 164.438 711.71 164.091L698.856 151.757C698.125 151.056 697.147 150.673 696.135 150.694C695.123 150.714 694.16 151.136 693.459 151.866L668.239 178.183C667.538 178.914 666.575 179.335 665.563 179.356C664.551 179.376 663.572 178.994 662.842 178.292L658.954 174.549C658.223 173.849 657.8 172.886 657.778 171.873C657.756 170.861 658.137 169.881 658.837 169.149L693.054 133.424C693.756 132.694 694.718 132.272 695.73 132.252C696.742 132.231 697.721 132.614 698.451 133.315L730.118 163.71C730.848 164.411 731.271 165.373 731.293 166.386C731.315 167.399 730.934 168.378 730.234 169.11L705.015 195.42C704.667 195.781 704.393 196.207 704.21 196.675C704.027 197.142 703.938 197.641 703.949 198.142C703.959 198.644 704.068 199.139 704.269 199.598C704.471 200.058 704.761 200.473 705.124 200.82L717.978 213.161C718.709 213.862 719.689 214.243 720.701 214.221C721.713 214.199 722.675 213.776 723.375 213.045L788.403 145.291C789.103 144.559 789.484 143.579 789.462 142.567C789.44 141.554 789.017 140.591 788.286 139.891L775.432 127.549C774.7 126.849 773.721 126.468 772.709 126.489C771.697 126.511 770.735 126.934 770.035 127.666L744.815 153.975C744.115 154.706 743.153 155.13 742.141 155.151C741.129 155.173 740.15 154.792 739.418 154.092L707.752 123.697C707.021 122.996 706.598 122.034 706.576 121.021C706.555 120.008 706.935 119.029 707.635 118.297L741.852 82.5639C742.554 81.8336 743.516 81.412 744.528 81.3915C745.54 81.3711 746.519 81.7536 747.249 82.455L751.138 86.1979C751.5 86.5449 751.79 86.9601 751.992 87.4195C752.193 87.879 752.302 88.3738 752.313 88.8755C752.323 89.3772 752.234 89.876 752.051 90.3432C751.868 90.8105 751.594 91.237 751.246 91.5983L726.027 117.908C725.327 118.639 724.946 119.619 724.968 120.632C724.99 121.645 725.413 122.607 726.144 123.308L738.998 135.65C739.73 136.35 740.709 136.731 741.721 136.709C742.733 136.687 743.695 136.264 744.395 135.533L769.615 109.223C770.315 108.492 771.277 108.069 772.289 108.047C773.301 108.025 774.28 108.406 775.012 109.107L806.678 139.501C807.409 140.202 807.832 141.165 807.854 142.177C807.876 143.19 807.495 144.17 806.795 144.902L723.78 231.503C723.08 232.224 722.125 232.642 721.121 232.663C720.116 232.685 719.144 232.31 718.414 231.619Z" fill="white"/>
</g>
<mask id="mask25_268_1027" style="mask-type:luminance" maskUnits="userSpaceOnUse" x="557" y="162" width="173" height="81">
<path d="M557.438 174.114L562.322 162.737H729.76L640.461 242.498L557.438 174.114Z" fill="white"/>
</mask>
<g mask="url(#mask25_268_1027)">
<path d="M636.619 231.619L604.945 201.225C604.216 200.523 603.794 199.56 603.774 198.547C603.753 197.534 604.136 196.555 604.837 195.824L630.056 169.491C630.757 168.761 631.139 167.781 631.119 166.769C631.098 165.756 630.677 164.793 629.947 164.091L617.092 151.757C616.362 151.056 615.383 150.673 614.371 150.694C613.359 150.714 612.397 151.136 611.696 151.866L586.468 178.183C585.767 178.914 584.804 179.335 583.792 179.356C582.78 179.376 581.802 178.994 581.071 178.292L577.183 174.549C576.821 174.202 576.53 173.787 576.329 173.328C576.127 172.868 576.018 172.374 576.008 171.872C575.998 171.37 576.087 170.871 576.27 170.404C576.453 169.937 576.726 169.51 577.074 169.149L611.291 133.424C611.993 132.694 612.955 132.272 613.967 132.252C614.979 132.231 615.958 132.614 616.688 133.315L648.354 163.71C648.717 164.056 649.008 164.471 649.21 164.93C649.413 165.389 649.522 165.884 649.533 166.386C649.544 166.887 649.456 167.386 649.273 167.854C649.091 168.321 648.819 168.748 648.471 169.11L623.252 195.42C622.904 195.781 622.63 196.207 622.447 196.675C622.264 197.142 622.175 197.641 622.186 198.142C622.196 198.644 622.305 199.139 622.506 199.598C622.708 200.058 622.998 200.473 623.36 200.82L636.215 213.161C636.946 213.862 637.926 214.243 638.938 214.221C639.95 214.199 640.912 213.776 641.612 213.045L706.578 145.275C706.925 144.914 707.198 144.487 707.38 144.019C707.562 143.552 707.651 143.053 707.64 142.551C707.629 142.049 707.519 141.555 707.317 141.095C707.115 140.636 706.824 140.221 706.461 139.875L693.606 127.533C692.875 126.833 691.896 126.452 690.884 126.474C689.872 126.496 688.91 126.919 688.209 127.65L662.99 153.96C662.29 154.691 661.328 155.114 660.316 155.136C659.304 155.158 658.324 154.777 657.593 154.076L625.927 123.682C625.196 122.981 624.773 122.018 624.751 121.006C624.729 119.993 625.11 119.013 625.81 118.281L660.027 82.5484C660.728 81.8181 661.691 81.3964 662.703 81.376C663.715 81.3555 664.694 81.7381 665.424 82.4394L669.312 86.1823C670.043 86.8832 670.466 87.8457 670.488 88.8584C670.51 89.8711 670.129 90.851 669.429 91.5827L644.202 117.892C643.502 118.624 643.121 119.604 643.143 120.616C643.165 121.629 643.587 122.592 644.318 123.292L657.173 135.634C657.904 136.334 658.884 136.715 659.896 136.694C660.908 136.672 661.87 136.249 662.57 135.517L687.789 109.208C688.49 108.477 689.452 108.053 690.464 108.032C691.476 108.01 692.455 108.391 693.186 109.091L724.853 139.486C725.216 139.832 725.506 140.247 725.709 140.706C725.911 141.165 726.021 141.66 726.032 142.162C726.042 142.664 725.954 143.162 725.772 143.63C725.59 144.097 725.317 144.524 724.969 144.886L642.016 231.503C641.316 232.234 640.354 232.657 639.342 232.679C638.33 232.701 637.351 232.32 636.619 231.619Z" fill="white"/>
</g>
<mask id="mask26_268_1027" style="mask-type:luminance" maskUnits="userSpaceOnUse" x="475" y="162" width="173" height="81">
<path d="M475.372 174.114L480.255 162.737H647.693L558.395 242.498L475.372 174.114Z" fill="white"/>
</mask>
<g mask="url(#mask26_268_1027)">
<path d="M554.553 231.619L522.887 201.225C522.156 200.524 521.733 199.561 521.711 198.549C521.689 197.536 522.07 196.556 522.77 195.824L547.997 169.491C548.697 168.76 549.078 167.78 549.056 166.767C549.034 165.754 548.612 164.792 547.881 164.091L535.026 151.757C534.296 151.056 533.317 150.673 532.305 150.694C531.293 150.714 530.33 151.136 529.629 151.866L504.41 178.183C503.708 178.914 502.746 179.335 501.734 179.356C500.722 179.376 499.743 178.994 499.013 178.292L495.124 174.549C494.762 174.203 494.471 173.788 494.268 173.329C494.066 172.87 493.956 172.375 493.946 171.874C493.935 171.372 494.023 170.873 494.205 170.405C494.387 169.938 494.66 169.511 495.008 169.149L529.225 133.424C529.926 132.694 530.889 132.272 531.901 132.252C532.913 132.231 533.891 132.614 534.622 133.315L566.288 163.71C566.65 164.057 566.94 164.472 567.142 164.931C567.344 165.391 567.453 165.886 567.463 166.387C567.473 166.889 567.384 167.388 567.201 167.855C567.018 168.322 566.745 168.749 566.397 169.11L541.177 195.42C540.477 196.151 540.097 197.131 540.118 198.144C540.14 199.157 540.563 200.119 541.294 200.82L554.149 213.161C554.88 213.862 555.859 214.243 556.871 214.221C557.883 214.199 558.845 213.776 559.546 213.045L624.511 145.275C625.211 144.544 625.592 143.564 625.57 142.551C625.548 141.538 625.125 140.576 624.395 139.875L611.563 127.549C610.832 126.849 609.853 126.468 608.841 126.489C607.829 126.511 606.867 126.934 606.166 127.666L580.947 153.975C580.246 154.706 579.285 155.13 578.272 155.151C577.26 155.173 576.281 154.792 575.55 154.092L543.876 123.697C543.146 122.995 542.725 122.032 542.704 121.019C542.684 120.007 543.066 119.028 543.767 118.297L577.984 82.5639C578.685 81.8336 579.648 81.412 580.66 81.3915C581.672 81.3711 582.651 81.7536 583.381 82.455L587.269 86.1979C587.999 86.8998 588.42 87.8629 588.441 88.8755C588.461 89.8882 588.079 90.8676 587.378 91.5983L562.159 117.908C561.458 118.638 561.075 119.618 561.096 120.63C561.116 121.643 561.538 122.606 562.267 123.308L575.122 135.65C575.853 136.35 576.833 136.731 577.845 136.709C578.857 136.687 579.819 136.264 580.519 135.533L605.746 109.223C606.447 108.492 607.409 108.069 608.421 108.047C609.433 108.025 610.412 108.406 611.143 109.107L642.81 139.501C643.172 139.848 643.462 140.264 643.664 140.723C643.865 141.183 643.974 141.677 643.984 142.179C643.995 142.681 643.906 143.18 643.723 143.647C643.54 144.114 643.267 144.541 642.919 144.902L559.95 231.503C559.25 232.234 558.288 232.657 557.276 232.679C556.264 232.701 555.284 232.32 554.553 231.619Z" fill="white"/>
</g>
<mask id="mask27_268_1027" style="mask-type:luminance" maskUnits="userSpaceOnUse" x="639" y="78" width="173" height="81">
<path d="M639.357 147.275L644.233 158.652H811.671L722.372 78.891L639.357 147.275Z" fill="white"/>
</mask>
<g mask="url(#mask27_268_1027)">
<path d="M718.53 89.7696L686.864 120.164C686.133 120.865 685.71 121.828 685.689 122.84C685.667 123.853 686.048 124.833 686.747 125.565L711.975 151.882C712.675 152.614 713.056 153.593 713.034 154.606C713.012 155.619 712.589 156.581 711.858 157.282L698.972 169.616C698.242 170.317 697.263 170.7 696.251 170.679C695.239 170.659 694.277 170.237 693.575 169.507L668.356 143.19C668.009 142.827 667.594 142.537 667.135 142.335C666.676 142.133 666.181 142.024 665.68 142.014C665.179 142.004 664.68 142.093 664.213 142.276C663.746 142.459 663.32 142.733 662.959 143.081L659.071 146.816C658.34 147.517 657.917 148.479 657.895 149.492C657.873 150.505 658.254 151.485 658.954 152.216L693.171 187.941C693.517 188.305 693.932 188.596 694.39 188.798C694.849 189 695.344 189.11 695.845 189.121C696.347 189.132 696.845 189.044 697.312 188.861C697.78 188.679 698.206 188.406 698.568 188.058L730.234 157.663C730.965 156.963 731.388 156 731.41 154.987C731.432 153.975 731.051 152.995 730.351 152.263L705.194 125.954C704.494 125.222 704.113 124.242 704.135 123.229C704.156 122.217 704.579 121.254 705.31 120.553L718.165 108.212C718.527 107.864 718.953 107.591 719.42 107.409C719.888 107.226 720.386 107.138 720.888 107.149C721.389 107.16 721.883 107.27 722.342 107.472C722.801 107.674 723.216 107.966 723.562 108.329L788.528 176.098C789.227 176.83 789.608 177.81 789.586 178.822C789.565 179.835 789.142 180.798 788.411 181.498L775.556 193.84C774.825 194.54 773.846 194.921 772.834 194.899C771.822 194.878 770.86 194.454 770.159 193.723L744.94 167.414C744.239 166.682 743.277 166.259 742.265 166.237C741.253 166.216 740.274 166.597 739.543 167.297L707.869 197.692C707.139 198.394 706.717 199.357 706.697 200.369C706.677 201.382 707.059 202.361 707.76 203.092L741.977 238.817C742.323 239.18 742.738 239.471 743.196 239.674C743.655 239.876 744.15 239.986 744.651 239.997C745.153 240.008 745.651 239.919 746.118 239.737C746.586 239.554 747.012 239.282 747.374 238.934L751.262 235.191C751.992 234.489 752.413 233.526 752.434 232.513C752.454 231.501 752.072 230.521 751.371 229.791L726.19 203.481C725.843 203.119 725.57 202.692 725.388 202.225C725.206 201.757 725.117 201.258 725.128 200.757C725.139 200.255 725.249 199.76 725.451 199.301C725.653 198.842 725.944 198.427 726.307 198.081L739.154 185.739C739.885 185.039 740.864 184.658 741.877 184.68C742.889 184.702 743.85 185.125 744.551 185.856L769.739 212.165C770.44 212.897 771.402 213.32 772.414 213.342C773.426 213.364 774.405 212.982 775.136 212.282L806.803 181.887C807.533 181.187 807.956 180.224 807.978 179.211C808 178.199 807.619 177.219 806.919 176.487L723.927 89.8863C723.581 89.5233 723.167 89.2322 722.708 89.0298C722.249 88.8274 721.754 88.7176 721.253 88.7067C720.752 88.6959 720.253 88.7842 719.786 88.9666C719.319 89.149 718.892 89.4219 718.53 89.7696Z" fill="white"/>
</g>
<mask id="mask28_268_1027" style="mask-type:luminance" maskUnits="userSpaceOnUse" x="557" y="78" width="173" height="81">
<path d="M557.586 147.275L562.462 158.652H729.908L640.601 78.891L557.586 147.275Z" fill="white"/>
</mask>
<g mask="url(#mask28_268_1027)">
<path d="M636.759 89.7696L605.093 120.164C604.731 120.511 604.441 120.926 604.239 121.386C604.037 121.845 603.928 122.34 603.918 122.842C603.908 123.344 603.997 123.842 604.18 124.31C604.363 124.777 604.636 125.203 604.984 125.565L630.204 151.882C630.904 152.614 631.285 153.593 631.263 154.606C631.241 155.619 630.818 156.581 630.087 157.282L617.232 169.616C616.502 170.303 615.53 170.676 614.528 170.652C613.525 170.629 612.572 170.212 611.874 169.491L586.616 143.19C586.269 142.827 585.854 142.537 585.395 142.335C584.936 142.133 584.441 142.024 583.94 142.014C583.439 142.004 582.94 142.093 582.473 142.276C582.006 142.459 581.58 142.733 581.219 143.081L577.331 146.816C576.6 147.517 576.177 148.479 576.155 149.492C576.133 150.505 576.514 151.485 577.214 152.216L611.431 187.941C611.777 188.305 612.192 188.596 612.651 188.798C613.11 189 613.604 189.11 614.105 189.121C614.607 189.132 615.105 189.044 615.573 188.861C616.04 188.679 616.466 188.406 616.828 188.058L648.494 157.663C649.225 156.963 649.648 156 649.67 154.987C649.692 153.975 649.311 152.995 648.611 152.263L623.384 125.954C622.684 125.222 622.303 124.242 622.325 123.229C622.347 122.217 622.77 121.254 623.5 120.553L636.355 108.212C636.717 107.864 637.143 107.591 637.611 107.409C638.078 107.226 638.576 107.138 639.078 107.149C639.579 107.16 640.073 107.27 640.532 107.472C640.991 107.674 641.406 107.966 641.752 108.329L706.749 176.098C707.449 176.83 707.83 177.81 707.808 178.822C707.786 179.835 707.363 180.798 706.632 181.498L693.777 193.84C693.046 194.54 692.067 194.921 691.055 194.899C690.043 194.878 689.081 194.454 688.38 193.723L663.161 167.414C662.461 166.682 661.499 166.259 660.487 166.237C659.475 166.216 658.495 166.597 657.764 167.297L626.098 197.692C625.735 198.038 625.444 198.453 625.242 198.912C625.039 199.371 624.93 199.866 624.919 200.368C624.908 200.869 624.996 201.368 625.179 201.836C625.361 202.303 625.634 202.73 625.981 203.092L660.198 238.817C660.544 239.18 660.959 239.471 661.418 239.674C661.877 239.876 662.371 239.986 662.872 239.997C663.374 240.008 663.872 239.919 664.34 239.737C664.807 239.554 665.233 239.282 665.595 238.934L669.483 235.191C669.846 234.844 670.136 234.429 670.337 233.969C670.539 233.51 670.648 233.015 670.658 232.513C670.668 232.012 670.579 231.513 670.396 231.046C670.214 230.578 669.94 230.152 669.592 229.791L644.373 203.481C643.673 202.749 643.292 201.77 643.314 200.757C643.336 199.744 643.758 198.782 644.489 198.081L657.344 185.739C658.075 185.039 659.055 184.658 660.067 184.68C661.079 184.702 662.041 185.125 662.741 185.856L687.961 212.165C688.661 212.897 689.623 213.32 690.635 213.342C691.647 213.364 692.626 212.982 693.358 212.282L725.024 181.887C725.755 181.187 726.178 180.224 726.199 179.211C726.221 178.199 725.84 177.219 725.14 176.487L642.156 89.8863C641.81 89.5233 641.396 89.2322 640.937 89.0298C640.478 88.8274 639.984 88.7176 639.482 88.7067C638.981 88.6959 638.482 88.7842 638.015 88.9666C637.548 89.149 637.121 89.4219 636.759 89.7696Z" fill="white"/>
</g>
<mask id="mask29_268_1027" style="mask-type:luminance" maskUnits="userSpaceOnUse" x="475" y="78" width="173" height="81">
<path d="M475.519 147.275L480.403 158.652H647.841L558.542 78.891L475.519 147.275Z" fill="white"/>
</mask>
<g mask="url(#mask29_268_1027)">
<path d="M554.701 89.7696L523.035 120.164C522.672 120.511 522.381 120.925 522.179 121.385C521.976 121.844 521.867 122.338 521.856 122.84C521.845 123.342 521.933 123.841 522.115 124.308C522.298 124.776 522.57 125.203 522.918 125.565L548.106 151.882C548.454 152.243 548.728 152.67 548.91 153.137C549.093 153.604 549.182 154.103 549.172 154.605C549.162 155.106 549.053 155.601 548.852 156.061C548.65 156.52 548.36 156.935 547.997 157.282L535.143 169.616C534.412 170.317 533.434 170.7 532.422 170.679C531.41 170.659 530.447 170.237 529.746 169.507L504.557 143.19C504.211 142.827 503.796 142.537 503.336 142.335C502.877 142.133 502.383 142.024 501.881 142.014C501.38 142.004 500.882 142.093 500.415 142.276C499.948 142.459 499.521 142.733 499.16 143.081L495.272 146.816C494.542 147.518 494.121 148.481 494.1 149.494C494.08 150.506 494.462 151.486 495.163 152.216L529.38 187.941C529.726 188.305 530.141 188.596 530.6 188.798C531.059 189 531.553 189.11 532.054 189.121C532.556 189.132 533.054 189.044 533.522 188.861C533.989 188.679 534.416 188.406 534.777 188.058L566.459 157.663C567.189 156.962 567.61 155.999 567.631 154.986C567.651 153.973 567.269 152.994 566.568 152.263L541.348 125.954C540.647 125.223 540.265 124.244 540.286 123.231C540.306 122.218 540.727 121.255 541.457 120.553L554.328 108.212C554.689 107.864 555.116 107.591 555.583 107.409C556.05 107.226 556.549 107.138 557.05 107.149C557.552 107.16 558.046 107.27 558.505 107.472C558.964 107.674 559.378 107.966 559.724 108.329L624.682 176.098C625.383 176.829 625.766 177.808 625.745 178.821C625.725 179.833 625.303 180.796 624.574 181.498L611.719 193.84C610.987 194.54 610.008 194.921 608.996 194.899C607.984 194.878 607.022 194.454 606.322 193.723L581.102 167.414C580.402 166.682 579.44 166.259 578.428 166.237C577.416 166.216 576.437 166.597 575.705 167.297L544.031 197.692C543.302 198.394 542.88 199.357 542.86 200.369C542.839 201.382 543.222 202.361 543.922 203.092L578.139 238.817C578.486 239.18 578.9 239.471 579.359 239.674C579.818 239.876 580.312 239.986 580.814 239.997C581.315 240.008 581.814 239.919 582.281 239.737C582.748 239.554 583.175 239.282 583.536 238.934L587.425 235.191C587.787 234.844 588.078 234.43 588.281 233.971C588.483 233.511 588.593 233.017 588.604 232.515C588.614 232.013 588.526 231.514 588.344 231.047C588.162 230.579 587.889 230.152 587.541 229.791L562.322 203.481C561.621 202.75 561.239 201.771 561.259 200.758C561.28 199.746 561.701 198.783 562.431 198.081L575.324 185.739C576.056 185.039 577.035 184.658 578.047 184.68C579.059 184.702 580.021 185.125 580.721 185.856L605.941 212.165C606.641 212.897 607.603 213.32 608.615 213.342C609.627 213.364 610.606 212.982 611.338 212.282L642.981 181.887C643.71 181.186 644.132 180.222 644.152 179.21C644.173 178.197 643.79 177.218 643.09 176.487L560.098 89.8863C559.751 89.5233 559.337 89.2322 558.878 89.0298C558.419 88.8274 557.925 88.7176 557.423 88.7067C556.922 88.6959 556.423 88.7842 555.956 88.9666C555.489 89.149 555.062 89.4219 554.701 89.7696Z" fill="white"/>
</g>
</g>
</g>
<defs>
<clipPath id="clip0_268_1027">
<rect width="956" height="752" fill="white" transform="translate(-148 -512)"/>
</clipPath>
</defs>
</svg>
