<svg width="14" height="18" viewBox="0 0 14 18" fill="none" xmlns="http://www.w3.org/2000/svg">
<path d="M14 7.1192C12.5691 7.1192 11.2425 6.6256 10.1602 5.78706V11.838C10.1602 14.8602 7.88102 17.3181 5.08008 17.3181C3.99771 17.3181 2.9936 16.9501 2.16877 16.3251C0.858945 15.3329 0 13.6919 0 11.838C0 8.81577 2.27915 6.35715 5.08075 6.35715C5.31355 6.35715 5.541 6.37808 5.7651 6.41055V7.11559V9.45009C5.54836 9.37721 5.31957 9.33463 5.08075 9.33463C3.8017 9.33463 2.7608 10.4575 2.7608 11.838C2.7608 12.7992 3.26653 13.6342 4.00507 14.0534C4.32684 14.236 4.69276 14.3406 5.08142 14.3406C6.33104 14.3406 7.35054 13.2683 7.39736 11.9318L7.39937 -0.000488281H10.1595C10.1595 0.257858 10.1829 0.50971 10.2244 0.755068C10.4191 1.88948 11.0432 2.86297 11.9082 3.47132C12.5102 3.89492 13.2287 4.14244 13.9993 4.14244L14 7.1192Z" fill="white"/>
</svg>
