<svg width="21" height="18" viewBox="0 0 21 18" fill="none" xmlns="http://www.w3.org/2000/svg">
<path d="M20.1281 3.47292C19.8961 2.4647 19.2128 1.66997 18.3446 1.4002C16.7721 0.911133 10.4644 0.911133 10.4644 0.911133C10.4644 0.911133 4.15678 0.911133 2.58344 1.4002C1.71608 1.66997 1.03279 2.46373 0.800818 3.47292C0.378906 5.30111 0.378906 9.11469 0.378906 9.11469C0.378906 9.11469 0.378906 12.9283 0.800818 14.7564C1.03279 15.7647 1.71608 16.5594 2.58428 16.8292C4.15678 17.3182 10.4644 17.3182 10.4644 17.3182C10.4644 17.3182 16.7721 17.3182 18.3455 16.8292C19.2128 16.5594 19.8961 15.7656 20.1289 14.7564C20.55 12.9283 20.55 9.11469 20.55 9.11469C20.55 9.11469 20.55 5.30111 20.1281 3.47292ZM8.40195 12.578V5.65142L13.6733 9.11469L8.40195 12.578Z" fill="white"/>
</svg>
